<svg xmlns="http://www.w3.org/2000/svg" width="170.81" height="169.87" viewBox="0 0 170.81 169.87"><title>FC Barcelona logo - Brandlogos.net</title><path d="M585.07,518.47c.2,1.84.09,1.78.22,2.86,2.23,41-26.84,60.34-62,61.78C517.93,588,512,592.37,512,592.37s-5.94-4.33-11.32-9.25c-35.14-1.43-64.22-20.79-62-61.78.13-1.08,0-1,.21-2.86-2-2.09-5.35-5.51-7.11-7.23,12.6-12.84,27.31-42.24,6.9-68.88,1.34-2.12,2.31-2.82,4.31-5.61A41.43,41.43,0,0,0,456.2,439c11.7,0,19.69-1.13,29.52-7.54,7.77,5.3,16.19,8.61,26.28,8.61s18.52-3.31,26.28-8.61c9.82,6.41,17.82,7.54,29.52,7.54A41.43,41.43,0,0,0,581,436.75c2,2.79,3,3.49,4.31,5.61-20.41,26.64-5.7,56,6.9,68.88-1.76,1.72-5.09,5.14-7.11,7.23m12.33-7.18-2.54-2.59c-10.82-11-26.13-38.64-6.61-64.14l1.53-2-1.34-2.12a25.52,25.52,0,0,0-2.31-3.08c-.62-.75-1.25-1.51-2.11-2.7l-1.61-2.25-2.65.9a37.67,37.67,0,0,1-12,2.06c-11.16,0-18.47-1.08-27.47-6.92l-2.11-1.38-2.07,1.42c-8,5.42-15.63,8-24.15,8s-16.2-2.53-24.16-8l-2.07-1.42-2.1,1.38c-9,5.84-16.32,6.92-27.47,6.92a37.64,37.64,0,0,1-12-2.06l-2.65-.9L440,434.65c-.86,1.2-1.49,2-2.1,2.7a26.19,26.19,0,0,0-2.32,3.09l-1.35,2.13,1.54,2c19.53,25.5,4.22,53.12-6.6,64.14l-2.54,2.59,2.58,2.55c1.4,1.34,3.87,3.87,5.9,6,0,.13,0,.24,0,.34a7.23,7.23,0,0,1-.06.76l0,.23c-1,18.4,3.88,33.53,14.51,45,11.26,12.16,28.86,19.43,49.67,20.55,5.16,4.62,10.39,8.43,10.63,8.6l2.22,1.64,2.21-1.64c.24-.17,5.44-4,10.6-8.6,20.81-1.13,38.41-8.4,49.67-20.55,10.63-11.48,15.5-26.61,14.51-45l0-.23a6,6,0,0,1-.06-.76c0-.1,0-.21,0-.34,2-2.1,4.5-4.62,5.9-6Z" transform="translate(-426.6 -427.07)" style="fill:#010305"/><path d="M512,592.37a146.17,146.17,0,0,1-11.32-9.26c-35.13-1.43-64.22-20.79-62-61.78.13-1.08,0-1,.21-2.86-2-2.08-5.35-5.51-7.11-7.22,12.6-12.85,27.32-42.24,6.9-68.88,1.33-2.13,2.3-2.83,4.31-5.62A41.3,41.3,0,0,0,456.2,439c11.71,0,19.7-1.14,29.53-7.53,7.76,5.29,16.19,8.61,26.27,8.61s18.52-3.32,26.29-8.61c9.82,6.39,17.81,7.53,29.51,7.53A41.36,41.36,0,0,0,581,436.75c2,2.79,3,3.49,4.3,5.62-20.4,26.64-5.7,56,6.9,68.88-1.77,1.71-5.1,5.14-7.11,7.22.19,1.85.07,1.79.21,2.86,2.22,41-26.84,60.34-62,61.78C517.94,588,512,592.37,512,592.37" transform="translate(-426.6 -427.07)" style="fill:#edc23d"/><path d="M463.87,519.43h-18.5c-.09,1.17-.18,1.25-.31,2.41-1.07,20.7,6.32,34.85,18.8,43.63Z" transform="translate(-426.6 -427.07)" style="fill:#003b7f"/><path d="M463.86,565.47a59.65,59.65,0,0,0,19.41,8.65V519.43H463.86Z" transform="translate(-426.6 -427.07)" style="fill:#a20748"/><path d="M483.26,574.12a94.47,94.47,0,0,0,19.41,2.8V519.43H483.26Z" transform="translate(-426.6 -427.07)" style="fill:#003b7f"/><path d="M522.07,519.43H502.66v57.48l.67,0c6.45,0,12.3.07,17.35,0l1.39-.06Z" transform="translate(-426.6 -427.07)" style="fill:#a20748"/><path d="M522.07,576.88a92.74,92.74,0,0,0,19.41-3V519.43H522.07Z" transform="translate(-426.6 -427.07)" style="fill:#003b7f"/><path d="M541.46,573.92a58.48,58.48,0,0,0,19.41-9v-45.5H541.46Z" transform="translate(-426.6 -427.07)" style="fill:#a20748"/><path d="M578.63,519.43H560.86V565c12-8.82,19.12-22.81,18.08-43.1-.14-1.17-.22-1.24-.32-2.41" transform="translate(-426.6 -427.07)" style="fill:#003b7f"/><path d="M445.88,520c0,.35-.08.58-.11.83s-.09.57-.14,1.07c-.81,15.43,3.11,27.92,11.62,37.09,9.81,10.57,25.73,16.58,46.09,17.42h.6c3.5,0,6.8,0,9.91,0,2.62,0,4.85,0,6.81,0,20.34-.83,36.28-6.85,46.08-17.42,8.52-9.17,12.43-21.66,11.62-37.12,0-.48-.09-.78-.14-1s-.08-.49-.12-.83Zm68,57.55q-4.67,0-9.92,0h-.6c-20.68-.83-36.9-7-46.9-17.76-8.72-9.39-12.73-22.15-11.92-37.91.06-.57.11-.88.16-1.16s.11-.64.15-1.27l0-.51H579.14l.05.51c0,.62.09.92.14,1.27s.1.58.14,1.13c.83,15.79-3.17,28.55-11.9,37.94-10,10.79-26.2,16.93-46.86,17.76-2,0-4.23,0-6.85,0" transform="translate(-426.6 -427.07)" style="fill:#010305"/><path d="M493.33,547.41a18.6,18.6,0,1,1,18.59,18.26,18.44,18.44,0,0,1-18.59-18.26" transform="translate(-426.6 -427.07)" style="fill:#edc23d"/><path d="M493.92,547.41a18,18,0,1,1,18,17.69A17.85,17.85,0,0,1,493.92,547.41Z" transform="translate(-426.6 -427.07)" style="fill:none;stroke:#010305;stroke-miterlimit:3.864000082015991;stroke-width:0.11100000143051147px"/><path d="M529.41,549c-1-3.57-4.6-7.52-8-9.4-4.24-2.32-8.89-3.6-10.93-.42a5.55,5.55,0,0,0,1.48,7.6c4-2.73,7.26-.08,8.19,2.12a5.71,5.71,0,0,1,.49,2c2.38-.82,6.25-.29,7.44,3.36a16.66,16.66,0,0,0,1.36-5.25m-18-1.34a6.58,6.58,0,0,1-1.84-9,5.51,5.51,0,0,1,1.32-1.41,4.73,4.73,0,0,1-.48-7,17.75,17.75,0,0,0-8.22,2.85c-.77,3.24-1.75,6.2-1.7,9.58.06,4.56,2,8.27,6.05,8.79,1.9.23,4.65-1.75,4.86-3.77m.49-11c2.91-1.18,6.93.36,10,2a20.08,20.08,0,0,1,7.57,7.66,17.41,17.41,0,0,0-17.37-16.19,3.76,3.76,0,0,0-.19,6.49m-11.12,24.06c3.67,0,9.3-.87,12.52-2.77,4.17-2.44,7.41-5.05,5.87-8.67-.77-1.82-3.36-3.93-6.71-1.6-.22,2.7-3.61,5.08-6,4.77a7.4,7.4,0,0,1-3.13-1.09,7.56,7.56,0,0,1-6.71,3.6h-.43a17.62,17.62,0,0,0,4.63,5.77M520.51,552c-.58,2.89-3.72,5-6.69,6.78s-8,2.72-11.68,2.88a17.74,17.74,0,0,0,25.17-6c-.51-4.26-4.64-4.76-6.8-3.69m-18.07-1.33c-3.37-3-3.38-9.13-2.47-13.19.25-1.14.57-2.24.9-3.51a17.09,17.09,0,0,0-6.5,13.39,16.78,16.78,0,0,0,1.28,6.46,5.76,5.76,0,0,0,.92.06,6.51,6.51,0,0,0,5.87-3.21m9.49-21.59a18.27,18.27,0,1,1-18.59,18.27,18.44,18.44,0,0,1,18.59-18.27" transform="translate(-426.6 -427.07)" style="fill:#010305"/><path d="M529.89,505.26h4.27c1.16,0,1.7-.43,1.7-1.36,0-.69-.23-1.39-1.87-1.39h-4.1Zm0,7.24h4.29c1.46,0,2.22-.67,2.22-2s-.7-1.94-2.22-1.94h-4.29Zm4.17,3.56h-7.88V499h8c3.48,0,5.57,1.72,5.57,4.59a3.85,3.85,0,0,1-1.6,3.21,4,4,0,0,1,2.17,3.67c0,3.48-2.33,5.56-6.22,5.56" transform="translate(-426.6 -427.07)" style="fill:#010305"/><path d="M510.63,516.31c-4.61,0-7.6-3.44-7.6-8.77,0-5.16,3.17-8.78,7.72-8.78a6.63,6.63,0,0,1,6.37,3.8l.1.18-3.51,1.59-.1-.17a3,3,0,0,0-2.9-1.7c-2.34,0-3.79,2-3.79,5.08s1.53,5.07,3.81,5.07c1.4,0,2.25-.55,3.13-2l.1-.16,3.19,1.85-.08.17a6.69,6.69,0,0,1-6.45,3.86" transform="translate(-426.6 -427.07)" style="fill:#010305"/><polygon points="60.78 88.98 56.99 88.98 56.99 71.96 69.51 71.96 69.51 75.61 60.78 75.61 60.78 78.34 65.88 78.34 65.88 81.96 60.78 81.96 60.78 88.98" style="fill:#010305"/><path d="M449.8,495.54c6.41-14.41,8.78-32.93-2-51a48.77,48.77,0,0,0,8.38.76c11,0,19.68-1,29.43-6.39a50.27,50.27,0,0,0,52.74,0c9.75,5.41,18.41,6.39,29.43,6.39a45.42,45.42,0,0,0,8.41-.8c-10.8,18.13-8.41,36.65-2,51.06Z" transform="translate(-426.6 -427.07)" style="fill:#fff"/><path d="M511.43,446.35v49.19h6.65V446a49.78,49.78,0,0,1-6.11.36h-.55" transform="translate(-426.6 -427.07)" style="fill:#fedc07"/><path d="M518.09,495.54h6.65V444.71a48.46,48.46,0,0,1-6.65,1.28Z" transform="translate(-426.6 -427.07)" style="fill:#e21239"/><path d="M524.74,495.54h6.65V442.43a51.42,51.42,0,0,1-6.65,2.28Z" transform="translate(-426.6 -427.07)" style="fill:#fedc07"/><path d="M531.39,495.54H538V439.08a56.57,56.57,0,0,1-6.65,3.35Z" transform="translate(-426.6 -427.07)" style="fill:#e21239"/><path d="M538,439.08v56.46h6.65v-53.7a50.8,50.8,0,0,1-6.32-2.94c-.1.07-.22.12-.33.18" transform="translate(-426.6 -427.07)" style="fill:#fedc07"/><path d="M544.69,495.54h6.65v-51.7a44.48,44.48,0,0,1-6.65-2Z" transform="translate(-426.6 -427.07)" style="fill:#e21239"/><path d="M551.34,495.54H558V444.87a55,55,0,0,1-6.65-1Z" transform="translate(-426.6 -427.07)" style="fill:#fedc07"/><path d="M558,495.46h6.66V445.16c-2.3,0-4.51-.16-6.66-.36Z" transform="translate(-426.6 -427.07)" style="fill:#e21239"/><path d="M575.7,444.56a44.69,44.69,0,0,1-7.9.73c-1.06,0-2.12,0-3.15,0v50.29h9.54c-6.29-14.18-8.67-32.34,1.51-50.18Z" transform="translate(-426.6 -427.07)" style="fill:#fedc07"/><path d="M473.53,478.86v16.68H492V478.86h19.72V460.68H492v-18.5a55.11,55.11,0,0,1-6.42-3.3,47.3,47.3,0,0,1-12.1,4.76v17H454.18a52.37,52.37,0,0,1,.51,18.18Z" transform="translate(-426.6 -427.07)" style="fill:#e21239"/><path d="M573.35,495h-61V446.9a51.14,51.14,0,0,0,26.06-7.37c9.62,5.27,18.09,6.3,29.41,6.3a45.91,45.91,0,0,0,7.33-.6c-10.84,19.07-7.1,37.42-1.77,49.76M448.89,445.25a48.67,48.67,0,0,0,7.31.57c11.32,0,19.8-1,29.41-6.3a51.06,51.06,0,0,0,25.59,7.37V495H450.65c5.31-12.34,9.06-30.69-1.77-49.74m128.42-1.54-1.21.23a45.23,45.23,0,0,1-8.3.8c-11.25,0-19.62-1-29.14-6.32l-.29-.16-.28.17a49.71,49.71,0,0,1-52.18,0l-.27-.17-.29.16c-9.53,5.28-17.9,6.32-29.15,6.32a48.62,48.62,0,0,1-8.28-.75l-1.18-.22.6,1c11.54,19.4,7.42,38.17,1.94,50.52l-.34.77H575l-.35-.77c-5.47-12.34-9.58-31.13,2-50.56Z" transform="translate(-426.6 -427.07)" style="fill:#010305"/></svg>