<svg xmlns="http://www.w3.org/2000/svg" viewBox="0 0 148.8 206.93"><title>la-liga-logo</title><path d="M202.72,184.51a.84.84,0,0,0,.34,1.13h0l26,15,.06,0a.84.84,0,0,0,1.14-.34l0,0a34.11,34.11,0,0,1,23.9-16.69.84.84,0,0,0,.65-.95v-.05l-5.51-29.33v-.05a.85.85,0,0,0-.94-.67h-.07a66.48,66.48,0,0,0-26.42,11,65.36,65.36,0,0,0-19.2,21" transform="translate(-181.6 -152.53)" style="fill:#812c7c"/><path d="M187.93,241.2a.85.85,0,0,0,1.12.43l28.2-10.7.06,0a.83.83,0,0,0,.45-1.09l0-.07a33.26,33.26,0,0,1,1.85-28.84.87.87,0,0,0,.09-.3.84.84,0,0,0-.43-.78l-.05,0-26.63-14.06,0,0a.85.85,0,0,0-1.11.3s0,0,0,.06a64.46,64.46,0,0,0-3.44,55.12" transform="translate(-181.6 -152.53)" style="fill:#005093"/><path d="M223.26,287.67a.85.85,0,0,0,.83-.24.83.83,0,0,0,.19-.36l9-28.39,0-.06a.82.82,0,0,0-.51-1,34.07,34.07,0,0,1-13.14-7.23,33.56,33.56,0,0,1-8.72-12.13.85.85,0,0,0-1.07-.41l0,0-27.61,11.8,0,0a.83.83,0,0,0-.46,1l0,.07a65.83,65.83,0,0,0,41.57,36.88" transform="translate(-181.6 -152.53)" style="fill:#008fc9"/><path d="M282.35,289.25a.83.83,0,0,0,.19-1.16h0l-16.81-24.67,0-.05a.85.85,0,0,0-1.18-.18l0,0a34.61,34.61,0,0,1-28.92,4.61.91.91,0,0,0-.32,0,.84.84,0,0,0-.67.58l0,.06-8,28.65v0a.74.74,0,0,0,0,.37.85.85,0,0,0,.55.63l.07,0a67.24,67.24,0,0,0,28.67,1.58,66.39,66.39,0,0,0,26.57-10.47" transform="translate(-181.6 -152.53)" style="fill:#009949"/><path d="M320.75,244.88a.84.84,0,0,0-.81-.86h0l-30.17-2.31h-.07a.84.84,0,0,0-.88.78s0,0,0,.07a33.17,33.17,0,0,1-4.23,14.13,33.75,33.75,0,0,1-10.08,11.11.82.82,0,0,0-.16,1.12l0,0,17.89,24,0,0a.87.87,0,0,0,1.13.2l.06,0a65.77,65.77,0,0,0,19.1-21.2,64.11,64.11,0,0,0,8.17-27.07" transform="translate(-181.6 -152.53)" style="fill:#fff101"/><path d="M309.42,187.51a.85.85,0,0,0-1.19.09L287.5,209.15l0,0a.82.82,0,0,0,.06,1.16l.06,0A33.56,33.56,0,0,1,296,222.52a33.1,33.1,0,0,1,2.42,14.67.87.87,0,0,0,.06.3.84.84,0,0,0,.72.52h.06l30.09,1.44h.05a.8.8,0,0,0,.36-.07.84.84,0,0,0,.51-.67v-.07a64.81,64.81,0,0,0-20.88-51.14" transform="translate(-181.6 -152.53)" style="fill:#e9822c"/><path d="M256.69,160.62a.83.83,0,0,0-.68,1v0l4.43,29.56v.06a.84.84,0,0,0,.61.65.82.82,0,0,0,.45,0,34.78,34.78,0,0,1,15,.91A34.41,34.41,0,0,1,289.81,200a.86.86,0,0,0,1.16-.09l0,0,19.86-22.59,0,0a.8.8,0,0,0,.17-.33.83.83,0,0,0-.22-.81l-.05,0a67.35,67.35,0,0,0-54.09-15.44" transform="translate(-181.6 -152.53)" style="fill:#d8232a"/><path d="M254.86,203a24.68,24.68,0,1,1-24.38,24.68A24.86,24.86,0,0,1,254.86,203Zm18.29,38.58a22.4,22.4,0,0,0,4.8-13.92c0-.24,0-.48,0-.72a13.81,13.81,0,0,1-1.35,2.93,14.76,14.76,0,0,0-.52-2,14,14,0,0,0-3-5.13l-6.91,1.38,0-.08,6.45-2.91a13.89,13.89,0,0,0-.66-5.77,15.57,15.57,0,0,0-.79-1.94,13.53,13.53,0,0,1,2.91,1.65,23,23,0,0,0-12.89-9.24,13.09,13.09,0,0,1,2.55,2.26,15.81,15.81,0,0,0-2.11-.14,14.38,14.38,0,0,0-5.81,1.18L255,216h-.08l-.8-6.9a14.39,14.39,0,0,0-5.82-1.18,15.75,15.75,0,0,0-2.11.14,12.78,12.78,0,0,1,2.56-2.27,23,23,0,0,0-12.9,9.26,13.36,13.36,0,0,1,2.93-1.66,14.86,14.86,0,0,0-.79,1.94,13.92,13.92,0,0,0-.67,5.76L243.8,224l0,.08-6.91-1.38a14,14,0,0,0-3,5.14,14.63,14.63,0,0,0-.52,2,13.6,13.6,0,0,1-1.36-3c0,.24,0,.49,0,.74a22.41,22.41,0,0,0,4.85,13.93,14,14,0,0,1-.63-3.1,14.82,14.82,0,0,0,1.62,1.34,14.32,14.32,0,0,0,5.36,2.41l4.84-5.2.07,0-3.5,6.13a14.07,14.07,0,0,0,4,4.35,15.5,15.5,0,0,0,1.79,1.11,14.86,14.86,0,0,1-3.15.37,23.27,23.27,0,0,0,15.47,0,14.77,14.77,0,0,1-3.15-.37,16,16,0,0,0,1.79-1.11,14.1,14.1,0,0,0,4-4.35l-3.5-6.12.07,0,4.83,5.2a14.34,14.34,0,0,0,5.36-2.41,15.3,15.3,0,0,0,1.62-1.35A14.14,14.14,0,0,1,273.15,241.59Zm-28.51-17.28L254.86,217l10.22,7.28-3.9,11.78H248.54l-3.9-11.78Z" transform="translate(-181.6 -152.53)" style="fill:#1a1919"/><path d="M273.15,241.6a14.16,14.16,0,0,0,.63-3.08,15.39,15.39,0,0,1-1.62,1.34,14.34,14.34,0,0,1-5.36,2.41l-4.83-5.2-.07,0,3.5,6.13a14.1,14.1,0,0,1-4,4.35,15.56,15.56,0,0,1-1.79,1.11,14.78,14.78,0,0,0,3.15.37,23.27,23.27,0,0,1-15.47,0,14.7,14.7,0,0,0,3.15-.36,15.93,15.93,0,0,1-1.79-1.11,14.12,14.12,0,0,1-4-4.35l3.5-6.13-.07,0-4.84,5.2a14.32,14.32,0,0,1-5.36-2.41,15.17,15.17,0,0,1-1.62-1.34,14.08,14.08,0,0,0,.63,3.09A22.42,22.42,0,0,1,232,227a13.73,13.73,0,0,0,1.36,3,14.45,14.45,0,0,1,.52-2,14,14,0,0,1,3-5.14l6.91,1.38,0-.08-6.46-2.91a13.92,13.92,0,0,1,.67-5.76,14.84,14.84,0,0,1,.79-1.94,13.24,13.24,0,0,0-2.93,1.66,23,23,0,0,1,12.9-9.26,12.87,12.87,0,0,0-2.56,2.27,15.75,15.75,0,0,1,2.11-.14,14.39,14.39,0,0,1,5.82,1.18l.8,6.9H255l.8-6.91a14.38,14.38,0,0,1,5.81-1.18,15.84,15.84,0,0,1,2.11.14,13,13,0,0,0-2.55-2.26,23,23,0,0,1,12.89,9.24,13.49,13.49,0,0,0-2.91-1.65,15.7,15.7,0,0,1,.79,1.94,13.86,13.86,0,0,1,.66,5.77l-6.45,2.91,0,.08,6.91-1.38a14,14,0,0,1,3,5.13,15.07,15.07,0,0,1,.52,2,13.67,13.67,0,0,0,1.35-2.93c0,.24,0,.48,0,.72A22.4,22.4,0,0,1,273.15,241.6Zm-28.49-17.29,3.9,11.78H261.2l3.9-11.78L254.88,217Z" transform="translate(-181.6 -152.53)" style="fill:#fff"/><path d="M182.18,316.86h8.74v25.57h10.57v7.52H182.18Zm20.46,20a13.47,13.47,0,0,1,13.1-13.8,10.63,10.63,0,0,1,7.76,3.22v-2.7h8.09v26.32h-8.23v-2.59a11.53,11.53,0,0,1-8.09,3.22c-7.52,0-12.66-5.23-12.66-13.68Zm14.7-6.44a6.47,6.47,0,1,0,6.41,6.8q0-.14,0-.28a6.27,6.27,0,0,0-6-6.51Zm38.1,19.56H236.13V316.86h8.74v25.57h10.57Zm2.84-33.25a4.83,4.83,0,1,1,8.21,3.4,4.91,4.91,0,0,1-3.49,1.44,4.74,4.74,0,0,1-4.72-4.76Zm.77,33.25V323.43h8v26.51Zm11.72-13.64c0-7.19,4.59-13.29,11.6-13.29a10,10,0,0,1,8,3.5v-3H298V347c0,8.23-6.19,12.49-13.63,12.49-6.53,0-12.24-3.29-13.1-9.26h9.06a4.11,4.11,0,0,0,4.24,2.16c2.81,0,5.41-1.3,5.41-4.2a15,15,0,0,0,0-2,12.19,12.19,0,0,1-7.62,3.07c-6.88,0-11.55-5.71-11.55-12.94Zm13.46-6.4a5.75,5.75,0,0,0-5.66,5.84q0,.26,0,.53a5.67,5.67,0,0,0,5.07,6.2l.52,0a6.06,6.06,0,0,0,6.17-6q0-.12,0-.25a5.84,5.84,0,0,0-6.14-6.4Zm17.21,6.92a13.46,13.46,0,0,1,13.1-13.8,10.63,10.63,0,0,1,7.77,3.22v-2.7h8.09v26.32h-8.23v-2.59a11.53,11.53,0,0,1-8.09,3.22c-7.52,0-12.66-5.23-12.66-13.68Zm14.72-6.44a6.47,6.47,0,1,0,6.41,6.8q0-.14,0-.28a6.27,6.27,0,0,0-6-6.51Z" transform="translate(-181.6 -152.53)" style="fill:#1a1919"/></svg>