<svg xmlns="http://www.w3.org/2000/svg" viewBox="0 0 97.48 134.77"><title>Real Madrid CF logo</title><path d="M531.24,483.7a1,1,0,1,1,1-1A1,1,0,0,1,531.24,483.7ZM470.72,531A41.28,41.28,0,1,1,512,572,41.22,41.22,0,0,1,470.72,531Zm57.47-62.57a1.81,1.81,0,0,1,1.32,2.22,1.84,1.84,0,0,1-2.24,1.32,1.81,1.81,0,0,1-1.32-2.22A1.84,1.84,0,0,1,528.19,468.42Zm1.66-3.58a1,1,0,1,1-1,1A1,1,0,0,1,529.85,464.83Zm-.85-3.66a1,1,0,1,1-1,1A1,1,0,0,1,529,461.17Zm12.7,9.61a1,1,0,1,1-1,1A1,1,0,0,1,541.7,470.78Zm-.85-3.63a1,1,0,1,1-1,1A1,1,0,0,1,540.85,467.15ZM539.31,464a1,1,0,0,1,1,1,1,1,0,0,1-1,1,1,1,0,0,1-1-1A1,1,0,0,1,539.31,464Zm-2.41-2.83a1,1,0,1,1-1,1A1,1,0,0,1,536.9,461.12Zm-3-2.17a1,1,0,1,1-1,1A1,1,0,0,1,533.9,459Zm-3.22-1.24a1,1,0,1,1-1,1A1,1,0,0,1,530.68,457.71Zm-3.27.27a1,1,0,1,1-1,1,1,1,0,0,1,1-1ZM525,455.22a1,1,0,1,1-1,1A1,1,0,0,1,525,455.22Zm-3.15-2.07a1,1,0,1,1-1,1A1,1,0,0,1,521.85,453.15ZM518.58,452a1,1,0,1,1-1,1A1,1,0,0,1,518.58,452Zm-3.34-.59a1,1,0,1,1-1,1A1,1,0,0,1,515.24,451.37Zm-31.67,26.77a1.86,1.86,0,0,1-2.51-.71,1.82,1.82,0,0,1,.73-2.49,1.84,1.84,0,0,1,2.51.73A1.79,1.79,0,0,1,483.57,478.14ZM496.71,472a1.85,1.85,0,0,1-2.24-1.32,1.83,1.83,0,0,1,1.32-2.22,1.85,1.85,0,0,1,2.24,1.32A1.79,1.79,0,0,1,496.71,472ZM512,470a1.83,1.83,0,1,1,1.85-1.83A1.88,1.88,0,0,1,512,470Zm-17.87-3.19a1,1,0,1,1,1-1A1,1,0,0,1,494.13,466.85Zm.85-3.63a1,1,0,1,1,1-1A1,1,0,0,1,495,463.22Zm-12.68,9.61a1,1,0,1,1,1-1A1,1,0,0,1,482.3,472.83Zm.85-3.66a1,1,0,1,1,1-1A1,1,0,0,1,483.15,469.17Zm1.51-3.19a1,1,0,1,1,1-1A1,1,0,0,1,484.67,466Zm2.44-2.83a1,1,0,1,1,1-1A1,1,0,0,1,487.1,463.15Zm3-2.15a1,1,0,1,1,1-1A1,1,0,0,1,490.1,461Zm3.19-1.27a1,1,0,1,1,1-1A1,1,0,0,1,493.3,459.73Zm3.29.29a1,1,0,1,1,1-1A1,1,0,0,1,496.59,460Zm2.41-2.76a1,1,0,1,1,1-1A1,1,0,0,1,499,457.27Zm3.12-2.07a1,1,0,1,1,1-1A1,1,0,0,1,502.12,455.2Zm3.27-1.22a1,1,0,1,1,1-1A1,1,0,0,1,505.39,454ZM512,464a1,1,0,1,1,1-1A1,1,0,0,1,512,464Zm0-3.68a1,1,0,1,1,1-1A1,1,0,0,1,512,460.27Zm0-3.71a1,1,0,1,1,1-1A1,1,0,0,1,512,456.57Zm-3.24-3.15a1,1,0,1,1,1-1A1,1,0,0,1,508.76,453.42Zm33.43,21.53a1.82,1.82,0,0,1,.73,2.49,1.85,1.85,0,1,1-.73-2.49Zm-23.63,5.34a1,1,0,1,1,1-1A1,1,0,0,1,518.56,480.29Zm-25.82,3.41a1,1,0,1,1,1-1A1,1,0,0,1,492.74,483.7Zm12.68-3.41a1,1,0,1,1,1-1A1,1,0,0,1,505.42,480.29Z" transform="translate(-463.26 -444.62)" style="fill:#fff"/><path d="M519.61,473a4.37,4.37,0,0,0,1,1.46c-.93-.15-1.88-.27-2.83-.34a4.16,4.16,0,0,0,1.34-1.17A3,3,0,0,0,519.61,473Zm-15.24,0a2.7,2.7,0,0,0,.46,0,4.39,4.39,0,0,0,1.34,1.17c-1,.1-1.88.22-2.83.34A3.63,3.63,0,0,0,504.37,473Zm-5.49,2.34c-.83.2-1.66.39-2.46.63a4.05,4.05,0,0,0,.8-2A4.22,4.22,0,0,0,498.88,475.29Zm-9.41,3A4,4,0,0,0,490,477l.15,0a3.39,3.39,0,0,0,.68-.29,4.27,4.27,0,0,0,1.27.59Q490.75,477.79,489.47,478.34ZM512,472.07a4,4,0,0,0,1.29,1.73l-1.29,0c-.44,0-.85,0-1.29,0A3.83,3.83,0,0,0,512,472.07Zm21.16,4.66a2.14,2.14,0,0,0,.68.29l.15,0a4,4,0,0,0,.54,1.29q-1.28-.55-2.63-1A4.62,4.62,0,0,0,533.16,476.73Zm-5.61-.83c-.8-.22-1.63-.44-2.46-.63a4.05,4.05,0,0,0,1.66-1.34A3.84,3.84,0,0,0,527.56,475.9Zm3.19-7.95a2.3,2.3,0,0,0,1.37-1.66,25.39,25.39,0,0,1,3.36,1,7.68,7.68,0,0,1,2.24,1.34,16.92,16.92,0,0,1,1,5,2.69,2.69,0,0,0-1.34,1.66,2.22,2.22,0,0,0,.73,2.93,1.81,1.81,0,0,1-1.93-1.9,2.27,2.27,0,0,0,.46-.9,2.3,2.3,0,1,0-4.46-1.12h0c0,.15,0,.27-.07.39a1.84,1.84,0,0,1-3.24-1,2.31,2.31,0,0,0,3.07-1.88,2.24,2.24,0,0,0-1.1-2.85A2.19,2.19,0,0,0,530.75,468Z" transform="translate(-463.26 -444.62)" style="fill:#e62644"/><path d="M498.08,463.42a20.21,20.21,0,0,1,12.19-1.83v.27a2,2,0,0,0,.44,2.63,2.15,2.15,0,0,0-1.44,1.66,2.24,2.24,0,0,0-1.76,2.49,2.31,2.31,0,0,0,2.51,2.58,1.83,1.83,0,1,1-3.46,0,2.3,2.3,0,1,0-4.54-.59,2.43,2.43,0,0,0,.27,1.1,1.87,1.87,0,0,1-1.37,1.66,1.84,1.84,0,0,1-2-.8,2.3,2.3,0,0,0,1.78-3.12,2.26,2.26,0,0,0-2.34-2,2.19,2.19,0,0,0-1-1A15.53,15.53,0,0,1,498.08,463.42Zm15.63-1.83c3.73-.54,8.51-.2,12.19,1.83a14.1,14.1,0,0,1,.71,3.07,2.3,2.3,0,0,0-1,1,2.26,2.26,0,0,0-2.34,2,2.3,2.3,0,0,0,1.78,3.12,1.82,1.82,0,1,1-3.36-.85,2.31,2.31,0,0,0-2-3.39,2.31,2.31,0,0,0-2.24,2.88,1.83,1.83,0,0,1-3.46,0,2.31,2.31,0,0,0,2.51-2.58,2.26,2.26,0,0,0-1.76-2.49,2.19,2.19,0,0,0-1.44-1.66,2,2,0,0,0,.44-2.63v-.24Zm-25.19,5.66a21.4,21.4,0,0,1,3.36-1,2.25,2.25,0,0,0,1.37,1.66,2.74,2.74,0,0,0-.15.93,2.25,2.25,0,0,0-1.1,2.85,2.32,2.32,0,0,0,3.07,1.88,1.83,1.83,0,0,1-3.24,1,1.1,1.1,0,0,0-.07-.39,2.32,2.32,0,0,0-2.8-1.66,2.27,2.27,0,0,0-1.19,3.68,1.78,1.78,0,0,1-1,1.68,1.82,1.82,0,0,1-1,.22,2.25,2.25,0,0,0,.73-2.93,2.81,2.81,0,0,0-1.37-1.66,18.23,18.23,0,0,1,1-5A9.37,9.37,0,0,1,488.52,467.24Zm26.75,11.7L512,480.17l-3.29-1.22,3.29-1.22Zm-24.68,4.41-.29,1.15-.12.41-.24-.15-1.07-.59.29-1.1,0-.24.39.12Zm42.82,0,1.39-.51,0,.24.27,1.12-1.07.59-.22.12-.12-.41Z" transform="translate(-463.26 -444.62)" style="fill:#e62644"/><path d="M527.56,475.9a4.05,4.05,0,0,1-.8-2,3.7,3.7,0,0,1-1.66,1.34C525.92,475.46,526.75,475.68,527.56,475.9Zm5.61.83a4.27,4.27,0,0,1-1.27.59q1.32.48,2.63,1A4,4,0,0,1,534,477l-.15,0A3.39,3.39,0,0,1,533.16,476.73ZM512,472.07a4,4,0,0,1-1.29,1.73l1.29,0c.44,0,.85,0,1.29,0A3.83,3.83,0,0,1,512,472.07Zm-22.53,6.27q1.28-.55,2.63-1a3.77,3.77,0,0,1-1.27-.59,2.14,2.14,0,0,1-.68.29l-.15,0A4.67,4.67,0,0,1,489.47,478.34Zm9.41-3a4.05,4.05,0,0,1-1.66-1.34,3.84,3.84,0,0,1-.8,2C497.25,475.68,498.08,475.46,498.88,475.29Zm5.49-2.34a4,4,0,0,1-1,1.46c.93-.15,1.88-.27,2.83-.34a4.16,4.16,0,0,1-1.34-1.17A3.3,3.3,0,0,1,504.37,473Zm15.24,0a3,3,0,0,1-.46,0,4.39,4.39,0,0,1-1.34,1.17c1,.1,1.88.22,2.83.34a4.51,4.51,0,0,1-1-1.37Zm22.58,2a1.82,1.82,0,0,0-2.48.71v0a1.82,1.82,0,0,0,.73,2.49,1.86,1.86,0,0,0,2.51-.71A1.89,1.89,0,0,0,542.19,474.95Zm-14-6.53a1.85,1.85,0,0,0-2.24,1.32,1.84,1.84,0,1,0,2.24-1.32Zm1.66-3.58a1,1,0,1,0,1,1A1,1,0,0,0,529.85,464.83Zm-.85-3.66a1,1,0,1,0,1,1,1,1,0,0,0-1-1Zm12.7,9.61a1,1,0,1,0,1,1A1,1,0,0,0,541.7,470.78Zm-.85-3.63a1,1,0,1,0,1,1A1,1,0,0,0,540.85,467.15ZM539.31,464a1,1,0,0,0-1,1,1,1,0,0,0,1,1,1,1,0,0,0,1-1A1,1,0,0,0,539.31,464Zm-2.41-2.83a1,1,0,1,0,1,1A1,1,0,0,0,536.9,461.12Zm-3-2.17a1,1,0,1,0,1,1A1,1,0,0,0,533.9,459Zm-3.22-1.24a1,1,0,1,0,1,1A1,1,0,0,0,530.68,457.71Zm-3.27.27a1,1,0,1,0,1,1A1,1,0,0,0,527.41,458ZM525,455.22a1,1,0,1,0,1,1A1,1,0,0,0,525,455.22Zm-3.15-2.07a1,1,0,1,0,1,1A1,1,0,0,0,521.85,453.15ZM518.58,452a1,1,0,1,0,1,1A1,1,0,0,0,518.58,452Zm-3.34-.59a1,1,0,1,0,1,1A1,1,0,0,0,515.24,451.37Zm-31.67,26.77a1.82,1.82,0,0,0,.73-2.49,1.87,1.87,0,0,0-2.51-.73,1.84,1.84,0,0,0-.73,2.49A1.86,1.86,0,0,0,483.57,478.14ZM496.71,472a1.81,1.81,0,0,0,1.32-2.22,1.85,1.85,0,0,0-2.24-1.32,1.83,1.83,0,1,0,.93,3.54ZM512,470a1.83,1.83,0,1,0-1.85-1.83A1.85,1.85,0,0,0,512,470Zm-17.87-3.19a1,1,0,1,0-1-1A1,1,0,0,0,494.13,466.85Zm.85-3.63a1,1,0,1,0-1-1A1,1,0,0,0,495,463.22Zm-12.68,9.61a1,1,0,1,0-1-1A1,1,0,0,0,482.3,472.83Zm.85-3.66a1,1,0,1,0-1-1A1,1,0,0,0,483.15,469.17Zm1.51-3.19a1,1,0,0,0,1-1,1,1,0,0,0-1-1,1,1,0,0,0-1,1A1,1,0,0,0,484.67,466Zm2.44-2.83a1,1,0,1,0-1-1A1,1,0,0,0,487.1,463.15Zm3-2.15a1,1,0,1,0-1-1A1,1,0,0,0,490.1,461Zm3.19-1.27a1,1,0,1,0-1-1A1,1,0,0,0,493.3,459.73Zm3.29.29a1,1,0,1,0-1-1A1,1,0,0,0,496.59,460Zm2.41-2.76a1,1,0,1,0-1-1A1,1,0,0,0,499,457.27Zm3.12-2.07a1,1,0,1,0-1-1A1,1,0,0,0,502.12,455.2Zm3.27-1.22a1,1,0,1,0-1-1A1,1,0,0,0,505.39,454ZM512,464a1,1,0,1,0-1-1A1,1,0,0,0,512,464Zm0-3.68a1,1,0,1,0-1-1A1,1,0,0,0,512,460.27Zm0-3.71a1,1,0,1,0-1-1A1,1,0,0,0,512,456.57Zm-3.24-3.15a1,1,0,1,0-1-1A1,1,0,0,0,508.76,453.42Zm28.16,24.92a2.56,2.56,0,0,0,2.34,0c-1.37-.68-2.07-1.29-1.46-2.9a2.08,2.08,0,0,1,1.41-1.49c-.49-6.24-2.24-9.22-7.95-12l-.41.12c0,.07,0,.15,0,.22a2,2,0,0,1-1.1,1.73c1,.22,2,.68,2,1.9a1.9,1.9,0,0,1-1.58,1.85,2.12,2.12,0,0,1,.29,1.44,1.84,1.84,0,0,1,1.12,2.46c-.44,1.68-1.46,1.85-3.07,1.44a2.26,2.26,0,0,0,4.07,1.73,3.33,3.33,0,0,1,0-.46,1.87,1.87,0,0,1,2.27-1.34,1.84,1.84,0,0,1,1.34,2.27,1.87,1.87,0,0,1-.46.83A2.31,2.31,0,0,0,536.92,478.34Zm-26.53-22.77c0-.12,0-.27,0-.41-7.46-.54-12.8,4.51-13.53,11.61A2,2,0,0,1,498.1,468a1.83,1.83,0,0,1,2.17,1.63c.44,1.68-.39,2.32-2,2.73A2.28,2.28,0,0,0,501,473.8a2.21,2.21,0,0,0,1.68-2.17,2,2,0,0,1-.29-1,1.88,1.88,0,0,1,3.75,0,2.45,2.45,0,0,1-.1.59,2.25,2.25,0,0,0,2.19,1.66,2.29,2.29,0,0,0,2.27-2.12c-1.66,0-2.61-.44-2.61-2.17a1.84,1.84,0,0,1,1.71-2.12c.29-1.54,1.07-1.63,2.37-1.83,1.29.22,2.07.32,2.37,1.83a1.84,1.84,0,0,1,1.71,2.12c0,1.73-1,2.15-2.61,2.17a2.29,2.29,0,0,0,2.27,2.12,2.25,2.25,0,0,0,2.17-1.66,2.45,2.45,0,0,1-.1-.59,1.87,1.87,0,0,1,3.73,0,1.7,1.7,0,0,1-.29,1,2.22,2.22,0,0,0,1.71,2.17,2.32,2.32,0,0,0,2.73-1.49c-1.61-.41-2.41-1.07-2-2.73a17,17,0,0,0,3.39-2.83c-.73-7.12-6.07-12.17-13.53-11.61a2.4,2.4,0,0,1,0,.41,1.65,1.65,0,0,1-.32,1v1.8a1.58,1.58,0,0,1,0,1.9l0,1.85a1.58,1.58,0,0,1,.27.9c0,1-.78,1.39-1.58,1.73-.8-.37-1.58-.68-1.58-1.73a1.65,1.65,0,0,1,.32-1V460.2a1.58,1.58,0,0,1,0-1.9v-1.8A1.4,1.4,0,0,1,510.39,455.57Zm-24.21,19.85c.61,1.58-.1,2.22-1.46,2.9a2.56,2.56,0,0,0,2.34,0,2.2,2.2,0,0,0,1.15-2.24,1.86,1.86,0,1,1,3.15-1.76,1.43,1.43,0,0,1,0,.46,2.26,2.26,0,0,0,4.07-1.73c-1.61.39-2.63.22-3.07-1.44a1.81,1.81,0,0,1,1.12-2.46,2.1,2.1,0,0,1,.29-1.44,1.9,1.9,0,0,1-1.58-1.83c0-1.22.93-1.68,1.93-1.9a2.07,2.07,0,0,1-1.1-1.73c0-.07,0-.15-.41-.29-5.8,2.85-7.44,5.71-7.92,12A1.82,1.82,0,0,1,486.18,475.41Zm49.35,5.9a55.67,55.67,0,0,0-47,0,.9.9,0,0,1-1.22-.46c-.22-.49,0-.83.22-1.24a3.71,3.71,0,0,1-3.8-.54c-2.34,1.58-5-1.66-3.27-3.15-.85-1-.88-2.22.34-3a2,2,0,0,1-.37-1.1c0-1.22.9-1.68,1.93-1.9-.59-.49-1.07-.88-1.07-1.73,0-1.24,1-1.76,2-1.88a2.16,2.16,0,0,1-.51-1.32,1.85,1.85,0,0,1,1.85-1.85,3,3,0,0,1,.93.2,2.54,2.54,0,0,1-.37-1.19,1.85,1.85,0,0,1,1.85-1.85,2.4,2.4,0,0,1,1.22.39,7,7,0,0,1-.1-.71,1.85,1.85,0,0,1,1.85-1.85,2.23,2.23,0,0,1,1.34.51c.22-1,.76-1.76,1.88-1.76a1.93,1.93,0,0,1,1.71,1.07,2,2,0,0,1,1.56-.8,3.11,3.11,0,0,1,.83.15,2.67,2.67,0,0,1-.27-1,1.85,1.85,0,0,1,1.85-1.85,2.39,2.39,0,0,1,1.39.54,3.76,3.76,0,0,1-.12-.76,1.85,1.85,0,0,1,1.85-1.85,2.27,2.27,0,0,1,1.39.56c.22-1,.76-1.78,1.88-1.78a2.08,2.08,0,0,1,1.54.76,2,2,0,0,1,1.8-1.34,2.44,2.44,0,0,1,.73.15,4.22,4.22,0,0,1,2-1.1v-2h-1.56v-1.15h1.56v-1.39h1.24v1.39h1.56v1.15h-1.56v2a3.32,3.32,0,0,1,1.9,1.15,1.87,1.87,0,0,1,.73-.15,1.91,1.91,0,0,1,1.8,1.34,2.08,2.08,0,0,1,1.54-.76c1.12,0,1.66.8,1.88,1.78a2,2,0,0,1,1.39-.56,1.85,1.85,0,0,1,1.85,1.85,7.09,7.09,0,0,1-.1.76,2.39,2.39,0,0,1,1.39-.54,1.85,1.85,0,0,1,1.85,1.85,3.17,3.17,0,0,1-.27,1,3.11,3.11,0,0,1,.83-.15,2,2,0,0,1,1.56.8,1.93,1.93,0,0,1,1.71-1.07,1.91,1.91,0,0,1,1.88,1.76,2,2,0,0,1,1.34-.51,1.85,1.85,0,0,1,1.85,1.85,3.52,3.52,0,0,1-.1.71,2.4,2.4,0,0,1,1.22-.39,1.85,1.85,0,0,1,1.85,1.85,2.63,2.63,0,0,1-.37,1.19,2.29,2.29,0,0,1,1-.24,1.85,1.85,0,0,1,1.85,1.85,2.16,2.16,0,0,1-.51,1.32c1.07.1,2,.63,2,1.88a2,2,0,0,1-1.1,1.73c1,.22,1.93.68,1.93,1.9a2,2,0,0,1-.37,1.1c1.22.76,1.22,1.93.39,3,1.07.88.51,2.27-.39,3a2.25,2.25,0,0,1-2.88.17,3.71,3.71,0,0,1-3.8.54l.22.44A.93.93,0,0,1,535.53,481.31Zm-44.6,1.85-1.51-.56-.12-.24a2.26,2.26,0,0,1-.32.1.27.27,0,0,1-.17-.51,55,55,0,0,1,46.33,0c.2.1.24.56-.17.51a.65.65,0,0,1-.32-.1l-.12.24-1.51.56.44,1.73-.15.29c.8.37.24.93-.07.78a50.5,50.5,0,0,0-42.57,0,.36.36,0,0,1-.46-.2.33.33,0,0,1,.12-.44l.24-.15-.15-.29Zm8.41-1.27,3.24-2.24-3.93-.41-3.24,2.24ZM531.24,484a1.32,1.32,0,1,0-1.32-1.32A1.3,1.3,0,0,0,531.24,484Zm-25.82-3.39a1.32,1.32,0,1,0-1.32-1.32A1.31,1.31,0,0,0,505.42,480.58ZM492.74,484a1.32,1.32,0,1,0-1.32-1.32A1.3,1.3,0,0,0,492.74,484Zm25.82-3.39a1.32,1.32,0,1,0-1.32-1.32A1.31,1.31,0,0,0,518.56,480.58Zm6.07,1.32,3.93-.41-3.24-2.24-3.93.41Zm-8.51-3L512,477.41l-4.12,1.54,4.12,1.54Zm-46.82,52A42.65,42.65,0,0,0,512,573.36c23.48,0,42.69-19.07,42.69-42.38a42.7,42.7,0,0,0-85.39,0Zm90,0A47.24,47.24,0,0,1,512,578c-26.09,0-47.33-21.14-47.33-47a47.33,47.33,0,0,1,94.65,0Zm-53.55-20,6.17,6.27,5.78-6.07a26.77,26.77,0,0,0-6.07-1A21.76,21.76,0,0,0,505.78,511ZM522,506.6l9.07-9.31a38.61,38.61,0,0,1,19.63,33.53,38,38,0,0,1-8.92,24.55l-4.24-4.22c4.75-5.78,7.88-11.53,7.88-20.7,0-9.83-5.17-20.77-13.44-26.46l-5.44,5.53a25.83,25.83,0,0,1,6.88,7.12l-4.17,3.56a20.06,20.06,0,0,0-6.51-6.75l-10.85,11.36-11.24-11.53c-5.83,4-9.27,9.83-9.41,17-.2,9.53,6,16.19,14.75,19.07V530.18h13.31v4h-8.17v5.12h8v4.51h-8v6.46c6,.32,12.31-3.12,16.19-7.39l4,4a26.56,26.56,0,0,1-20.16,8.9v5.9h-5.14V555.1c-11.78-2.9-20.29-13.14-20.12-25.38.1-8.39,4.61-15.26,11.14-20.16l-5.51-5.68C483,510.82,478.42,519.3,478,530.32a30.23,30.23,0,0,0,8,20.87l-3.75,3.88a36.4,36.4,0,0,1-9.12-24.24,38.62,38.62,0,0,1,19.53-33.4l9.19,9.51A28.16,28.16,0,0,1,512,505a27.63,27.63,0,0,1,9.73,1.9Z" transform="translate(-463.26 -444.62)" style="fill:#fcbf00"/><path d="M560.74,531c0,26.63-21.87,48.4-48.74,48.4s-48.74-21.77-48.74-48.4a48.74,48.74,0,0,1,97.48,0Zm-1.41,0A47.33,47.33,0,1,0,512,578C538.09,578,559.33,556.83,559.33,531Zm-88.61,0A41.28,41.28,0,1,0,512,490,41.25,41.25,0,0,0,470.72,531Zm-1.41,0A42.7,42.7,0,1,1,512,573.36C488.52,573.36,469.31,554.29,469.31,531ZM517,521.62l23.09,23.65a26.6,26.6,0,0,0,4-14.8c0-10.63-6-20.31-11.83-24.6l-3.49,3.54a26.65,26.65,0,0,1,6.56,7.56l-6.41,5.51a18.37,18.37,0,0,0-5.9-7.12Zm29.26,30a39.34,39.34,0,0,1-18,15.87l-3.73-3.8-7-7.1a27.21,27.21,0,0,1-4.9.61v5.93h-8v-6.83a27.31,27.31,0,0,1-20.12-26.48,23.56,23.56,0,0,1,.8-5.88l-4-4a35.25,35.25,0,0,0-2,10.53,28.5,28.5,0,0,0,8.56,20.8l-5.75,5.83c-6.78-7.56-10.48-16.07-10.48-26.31,0-14.95,8.24-28,21.21-35.18l9.29,9.63a29.84,29.84,0,0,1,9.78-1.66,28.22,28.22,0,0,1,9.39,1.68l9.46-9.75c13.07,7.19,21.31,20.24,21.31,35.28A38.46,38.46,0,0,1,546.23,551.59Zm-41.62-8-11.92-12.07a17.85,17.85,0,0,0,11.92,16ZM522,506.6l-.32.32A27.63,27.63,0,0,0,512,505a28.35,28.35,0,0,0-10.14,1.9l-9.19-9.51a38.68,38.68,0,0,0-19.53,33.43,36.4,36.4,0,0,0,9.12,24.24l3.71-3.75a30.23,30.23,0,0,1-8-20.87c.39-11,5-19.51,13.53-26.46l5.51,5.68c-6.53,4.9-11,11.75-11.14,20.16-.15,12.24,8.34,22.46,20.12,25.38v6.53h5.14v-5.9a26.52,26.52,0,0,0,20.16-8.9l-4-4c-3.88,4.27-10.22,7.68-16.19,7.39v-6.46h8v-4.51h-8v-5.12h8.17v-4H506v19.19c-8.73-2.88-14.95-9.53-14.75-19.07.15-7.19,3.58-13,9.41-17l11.24,11.53,10.85-11.36a20.06,20.06,0,0,1,6.51,6.75l4.17-3.56a25.83,25.83,0,0,0-6.88-7.12l5.44-5.53c8.27,5.66,13.44,16.63,13.44,26.46,0,9.17-3.1,14.92-7.88,20.7l4.24,4.22a38,38,0,0,0,8.92-24.55,38.61,38.61,0,0,0-19.63-33.53l-9,9.19ZM505.78,511a21.89,21.89,0,0,1,5.88-.8,25.48,25.48,0,0,1,6.07,1L512,517.28Zm2.8.83,3.34,3.39L515,512a20,20,0,0,0-3.44-.37A18.65,18.65,0,0,0,508.59,511.84Zm24.82-28.48.29,1.12.12.41.22-.12,1.07-.59-.27-1.12,0-.24Zm2.12-2a1,1,0,0,0,1.19-1.29l-.22-.44a3.71,3.71,0,0,0,3.8-.54,2.25,2.25,0,0,0,2.88-.17c.9-.71,1.46-2.07.39-3,.83-1.07.85-2.24-.39-3a2,2,0,0,0,.37-1.1c0-1.22-.93-1.68-1.93-1.9a2.07,2.07,0,0,0,1.1-1.73c0-1.24-1-1.76-2-1.88a2.16,2.16,0,0,0,.51-1.32,1.85,1.85,0,0,0-1.85-1.85,3,3,0,0,0-.93.2,2.54,2.54,0,0,0,.37-1.19,1.85,1.85,0,0,0-1.85-1.85,2.33,2.33,0,0,0-1.22.39,7,7,0,0,0,.1-.71,1.85,1.85,0,0,0-1.85-1.85h0a2.23,2.23,0,0,0-1.34.51c-.22-1-.76-1.76-1.88-1.76a1.93,1.93,0,0,0-1.71,1.07,2,2,0,0,0-1.56-.8,3.11,3.11,0,0,0-.83.15,2.67,2.67,0,0,0,.27-1,1.85,1.85,0,0,0-1.85-1.85,2.39,2.39,0,0,0-1.39.54,3.77,3.77,0,0,0,.1-.76,1.85,1.85,0,0,0-1.85-1.85h0a2.27,2.27,0,0,0-1.39.56c-.22-1-.76-1.78-1.88-1.78a2.08,2.08,0,0,0-1.54.76,2,2,0,0,0-1.8-1.34,2.44,2.44,0,0,0-.73.15,3.37,3.37,0,0,0-1.9-1.15v-2h1.56v-1.07h-1.56v-1.39h-1.24v1.39h-1.61v1.15h1.56v2a3.44,3.44,0,0,0-1.88,1.15,1.87,1.87,0,0,0-.73-.15,1.91,1.91,0,0,0-1.8,1.34,2.08,2.08,0,0,0-1.54-.76c-1.15,0-1.66.8-1.88,1.78a2.17,2.17,0,0,0-1.41-.59,1.85,1.85,0,0,0-1.85,1.85h0a3.76,3.76,0,0,0,.12.76,2.39,2.39,0,0,0-1.39-.54,1.85,1.85,0,0,0-1.85,1.85h0a3.17,3.17,0,0,0,.27,1,3.11,3.11,0,0,0-.83-.15,2,2,0,0,0-1.56.8,1.93,1.93,0,0,0-1.71-1.07c-1.12,0-1.66.8-1.88,1.76a2.23,2.23,0,0,0-1.34-.51,1.85,1.85,0,0,0-1.85,1.85h0a3.52,3.52,0,0,0,.1.71,2.4,2.4,0,0,0-1.22-.39,1.85,1.85,0,0,0-1.85,1.85h0a2.63,2.63,0,0,0,.37,1.19,4.19,4.19,0,0,0-.93-.2,1.85,1.85,0,0,0-1.85,1.85h0a2.16,2.16,0,0,0,.51,1.32c-1.12.07-2.1.61-2.1,1.85a2,2,0,0,0,1.07,1.73c-1,.22-1.93.68-1.93,1.9a2,2,0,0,0,.37,1.1c-1.22.76-1.22,1.93-.39,3-1.78,1.46.93,4.73,3.27,3.15a3.71,3.71,0,0,0,3.8.54c-.2.41-.44.78-.22,1.24a.9.9,0,0,0,1.22.46,55.9,55.9,0,0,1,47.06,0Zm-44.94,2-1-.37-.39-.12,0,.24-.29,1.1,1.07.59.24.15.1-.44Zm-.63,1.76-1.41-.78.34-1.41a.78.78,0,0,1-.56-1.12,1.39,1.39,0,0,1-1.46-.78,1.43,1.43,0,0,1-.12-.78,4,4,0,0,1-3.1-.66c-2.51,1.49-5.46-2.07-3.85-3.73a2.26,2.26,0,0,1,.39-3.1,2.28,2.28,0,0,1,1.09-3l.13-.06a2.2,2.2,0,0,1-.59-1.51,2.3,2.3,0,0,1,1.76-2.22,2.37,2.37,0,0,1-.2-1,2.27,2.27,0,0,1,2.29-2.27l.22,0a2.27,2.27,0,0,1,2.22-2.83,2.88,2.88,0,0,1,.68.1,2.28,2.28,0,0,1,2.29-2.27,2.16,2.16,0,0,1,1,.27,15.32,15.32,0,0,0,5.44-1.24h.15A2.27,2.27,0,0,1,499,454a2.05,2.05,0,0,1,.85.17,37.62,37.62,0,0,0,5.56-3.44,2.21,2.21,0,0,1,1.41.49,2.31,2.31,0,0,1,2-1,2.46,2.46,0,0,1,.61.07,3.62,3.62,0,0,1,1.34-.9l.24-.07V448h-1.56v-2h1.56v-1.39H513V446h1.56v2H513v1.19l.24.07a3.62,3.62,0,0,1,1.34.9,2.46,2.46,0,0,1,.61-.07,2.23,2.23,0,0,1,1.93,1,2.36,2.36,0,0,1,1.41-.49,2.25,2.25,0,0,1,2.15,1.49,2.47,2.47,0,0,1,1.12-.29,8.62,8.62,0,0,0,5.27,3.5,2.28,2.28,0,0,1,.17.84,3.3,3.3,0,0,1,0,.49h.17a2.35,2.35,0,0,1,1.51.56,4.35,4.35,0,0,1,7.27,2.68,2.25,2.25,0,0,1,.71-.1,2.28,2.28,0,0,1,2.29,2.27,2.08,2.08,0,0,1-.07.56h.2A2.28,2.28,0,0,1,541.6,465a2.2,2.2,0,0,1-.22,1,2.3,2.3,0,0,1,1.76,2.22,2.2,2.2,0,0,1-.59,1.51,2.28,2.28,0,0,1,1.28,3l-.06.14a2.26,2.26,0,0,1,.39,3.1c1,1,.15,2.71-.71,3.36a2.66,2.66,0,0,1-3.12.37,4,4,0,0,1-3.1.66,1.4,1.4,0,0,1-1.58,1.56.78.78,0,0,1-.54,1.12l.34,1.41-1.41.78a.74.74,0,0,1,.1.83.78.78,0,0,1-1,.43h0a50.09,50.09,0,0,0-42.18,0,.8.8,0,0,1-1-.41A.74.74,0,0,1,490,485.12Zm1-2-.44,1.73.15.29a1.29,1.29,0,0,0-.24.15c-.12.12-.22.24-.12.44a.36.36,0,0,0,.46.2,50.5,50.5,0,0,1,42.57,0c.34.15.88-.41.07-.78l.15-.29-.44-1.73,1.51-.56.12-.24a2.26,2.26,0,0,0,.32.1.27.27,0,0,0,.17-.51,55,55,0,0,0-46.33,0c-.2.1-.22.56.17.51a.65.65,0,0,0,.32-.1l.12.24ZM525.75,463A11.61,11.61,0,0,0,514,455.54a2,2,0,0,1-.32,1.07v1.54a2,2,0,0,1,0,2.15v1A21.13,21.13,0,0,1,525.75,463Zm-12-1.15a2,2,0,0,1-.44,2.63,2.15,2.15,0,0,1,1.44,1.66,2.24,2.24,0,0,1,1.76,2.49,2.31,2.31,0,0,1-2.51,2.58,1.83,1.83,0,1,0,3.46,0,4.73,4.73,0,0,1,0-.59,2.3,2.3,0,0,1,4.61,0,2.43,2.43,0,0,1-.27,1.1,1.87,1.87,0,0,0,1.37,1.66,1.84,1.84,0,0,0,2-.8,2.3,2.3,0,0,1-1.78-3.12,2.26,2.26,0,0,1,2.34-2,2.19,2.19,0,0,1,1-1,17.42,17.42,0,0,0-.76-3.1,20.21,20.21,0,0,0-12.19-1.83Zm-3.32-6.29a1.65,1.65,0,0,0,.32,1v1.8a1.58,1.58,0,0,0,0,1.9V462a1.65,1.65,0,0,0-.32,1c0,1,.78,1.39,1.58,1.73.8-.37,1.58-.68,1.58-1.73a1.63,1.63,0,0,0-.27-.9l0-1.85a1.58,1.58,0,0,0,0-1.9v-1.83a1.65,1.65,0,0,0,.32-1,2.4,2.4,0,0,0,0-.41c7.46-.54,12.8,4.49,13.53,11.61a2,2,0,0,0-1.22,1.19,1.83,1.83,0,0,0-2.17,1.63c-.44,1.68.37,2.32,2,2.73a2.28,2.28,0,0,1-4.44-.68,2,2,0,0,0,.29-1,1.85,1.85,0,0,0-1.85-1.85h0a1.87,1.87,0,0,0-1.88,1.85,2.45,2.45,0,0,0,.1.59,2.25,2.25,0,0,1-2.17,1.66,2.29,2.29,0,0,1-2.27-2.12c1.66,0,2.61-.44,2.61-2.17a1.84,1.84,0,0,0-1.71-2.12c-.29-1.54-1.07-1.63-2.37-1.83-1.29.22-2.07.32-2.37,1.83a1.84,1.84,0,0,0-1.71,2.12c0,1.73,1,2.15,2.61,2.17a2.28,2.28,0,0,1-4.46.46,2.45,2.45,0,0,0,.1-.59,1.88,1.88,0,0,0-3.75,0,1.7,1.7,0,0,0,.29,1,2.22,2.22,0,0,1-1.68,2.17,2.32,2.32,0,0,1-2.73-1.49c1.61-.41,2.41-1.07,2-2.73a1.85,1.85,0,0,0-2.17-1.63,1.81,1.81,0,0,0-1.22-1.19c.73-7.12,6.07-12.17,13.53-11.61A1.33,1.33,0,0,1,510.39,455.57Zm-12.31,7.85a14.1,14.1,0,0,0-.71,3.07,2.3,2.3,0,0,1,1,1,2.26,2.26,0,0,1,2.34,2,2.3,2.3,0,0,1-1.78,3.12,1.82,1.82,0,1,0,3.36-.85,2.31,2.31,0,0,1,2-3.39,2.31,2.31,0,0,1,2.24,2.88,1.83,1.83,0,0,0,3.46,0,2.31,2.31,0,0,1-2.51-2.58,2.26,2.26,0,0,1,1.76-2.49,2.19,2.19,0,0,1,1.44-1.66,2,2,0,0,1-.44-2.63v-.24C506.56,461.05,501.76,461.39,498.08,463.42ZM510,455.57a11.55,11.55,0,0,0-11.7,7.46,20.84,20.84,0,0,1,12-1.71v-1a2,2,0,0,1,0-2.15v-1.56A2,2,0,0,1,510,455.57ZM533,476.29l.12-.1a2.18,2.18,0,0,0,.78.41l.39.07a3.78,3.78,0,0,0,1,2l-.24.34c-1.34-.59-2.73-1.15-4.15-1.63l0-.41A4.23,4.23,0,0,0,533,476.29Zm.12.44a4.27,4.27,0,0,1-1.27.59q1.32.48,2.63,1A4,4,0,0,1,534,477l-.15,0A3.39,3.39,0,0,1,533.16,476.73Zm-21.38-5.53h.44a3.46,3.46,0,0,0,2,2.66l-.1.41c-.68,0-1.39,0-2.1,0s-1.39,0-2.1,0l-.1-.41A3.5,3.5,0,0,0,511.78,471.2Zm.22.88a4,4,0,0,1-1.29,1.73l1.29,0c.44,0,.85,0,1.29,0A3.83,3.83,0,0,1,512,472.07Zm-23.12,7-.24-.34a3.87,3.87,0,0,0,1-2,2,2,0,0,0,1.19-.46,3.81,3.81,0,0,0,2.15.8l0,.41C491.62,477.92,490.23,478.46,488.88,479.07Zm.59-.73q1.28-.55,2.63-1a3.77,3.77,0,0,1-1.27-.59,2.14,2.14,0,0,1-.68.29l-.15,0A4.67,4.67,0,0,1,489.47,478.34Zm10.31-3.24v.41c-1.34.29-2.68.63-4,1l-.2-.37a3.5,3.5,0,0,0,1.22-3l.41-.1A3.45,3.45,0,0,0,499.78,475.1Zm-.9.2a4.05,4.05,0,0,1-1.66-1.34,3.84,3.84,0,0,1-.8,2C497.25,475.68,498.08,475.46,498.88,475.29Zm3.73-.29-.15-.39a3.88,3.88,0,0,0,1.61-2.07h.27a2.12,2.12,0,0,0,.68-.12,3.94,3.94,0,0,0,2.1,1.61l0,.41C505.56,474.56,504.08,474.75,502.61,475Zm1.76-2a4,4,0,0,1-1,1.46c.93-.15,1.88-.27,2.83-.34a4.16,4.16,0,0,1-1.34-1.17A3.3,3.3,0,0,1,504.37,473Zm12.56,1.49,0-.41a3.94,3.94,0,0,0,2.1-1.61,2.24,2.24,0,0,0,.68.12h.27a3.88,3.88,0,0,0,1.61,2.07l-.15.39C519.92,474.75,518.41,474.56,516.93,474.44Zm2.68-1.49a3,3,0,0,1-.46,0,4.39,4.39,0,0,1-1.34,1.17c1,.1,1.88.22,2.83.34a4.51,4.51,0,0,1-1-1.37Zm8.8,3.22-.2.37c-1.32-.39-2.63-.73-4-1v-.41a3.59,3.59,0,0,0,2.56-2.1l.41.1A3.5,3.5,0,0,0,528.41,476.17Zm-.85-.27a4.05,4.05,0,0,1-.8-2,3.7,3.7,0,0,1-1.66,1.34C525.92,475.46,526.75,475.68,527.56,475.9Zm.63-7.49a1.85,1.85,0,0,0-2.24,1.32,1.84,1.84,0,1,0,2.24-1.32Zm.07-.29a2.12,2.12,0,0,1,1.54,2.58,2.14,2.14,0,0,1-2.61,1.54,2.11,2.11,0,0,1-1.54-2.56v0A2.16,2.16,0,0,1,528.26,468.12Zm1.58-3.29a1,1,0,1,0,1,1A1,1,0,0,0,529.85,464.83Zm0-.29a1.32,1.32,0,1,1-1.32,1.32A1.33,1.33,0,0,1,529.85,464.54Zm-.85-3.36a1,1,0,1,0,1,1,1,1,0,0,0-1-1Zm0-.29a1.32,1.32,0,1,1-1.32,1.32A1.33,1.33,0,0,1,529,460.88Zm12.7,9.9a1,1,0,1,0,1,1A1,1,0,0,0,541.7,470.78Zm0-.29a1.32,1.32,0,1,1-1.32,1.32A1.31,1.31,0,0,1,541.7,470.49Zm-.85-3.34a1,1,0,1,0,1,1A1,1,0,0,0,540.85,467.15Zm0-.29a1.32,1.32,0,1,1-1.32,1.32A1.31,1.31,0,0,1,540.85,466.85Zm-1.54-2.9a1,1,0,0,0-1,1,1,1,0,0,0,1,1,1,1,0,0,0,1-1A1,1,0,0,0,539.31,464Zm0-.29A1.32,1.32,0,1,1,538,465,1.31,1.31,0,0,1,539.31,463.66Zm-2.41-2.54a1,1,0,1,0,1,1A1,1,0,0,0,536.9,461.12Zm0-.29a1.32,1.32,0,1,1-1.32,1.32A1.3,1.3,0,0,1,536.9,460.83Zm-3-1.88a1,1,0,1,0,1,1A1,1,0,0,0,533.9,459Zm0-.29a1.32,1.32,0,1,1-1.32,1.32A1.31,1.31,0,0,1,533.9,458.66Zm-3.22-1a1,1,0,1,0,1,1A1,1,0,0,0,530.68,457.71Zm0-.29a1.32,1.32,0,1,1-1.32,1.32A1.31,1.31,0,0,1,530.68,457.42Zm-3.27.56a1,1,0,1,0,1,1A1,1,0,0,0,527.41,458Zm0-.29a1.32,1.32,0,1,1-1.32,1.32A1.3,1.3,0,0,1,527.41,457.69ZM525,455.22a1,1,0,1,0,1,1A1,1,0,0,0,525,455.22Zm0-.29a1.32,1.32,0,1,1-1.32,1.32A1.33,1.33,0,0,1,525,454.93Zm-3.15-1.78a1,1,0,1,0,1,1A1,1,0,0,0,521.85,453.15Zm0-.29a1.32,1.32,0,1,1-1.32,1.32A1.31,1.31,0,0,1,521.85,452.86Zm-3.27-.9a1,1,0,1,0,1,1A1,1,0,0,0,518.58,452Zm0-.29A1.31,1.31,0,0,1,519.9,453a1.29,1.29,0,0,1-1.32,1.29,1.31,1.31,0,0,1-1.32-1.32A1.29,1.29,0,0,1,518.58,451.66Zm-3.34-.29a1,1,0,1,0,1,1A1,1,0,0,0,515.24,451.37Zm0-.29a1.32,1.32,0,1,1-1.32,1.32A1.31,1.31,0,0,1,515.24,451.08Zm-31.67,27.07a1.82,1.82,0,0,0,.73-2.49,1.87,1.87,0,0,0-2.51-.73,1.84,1.84,0,0,0-.73,2.49A1.86,1.86,0,0,0,483.57,478.14Zm.15.27a2.15,2.15,0,0,1-2.9-.83,2.11,2.11,0,0,1,.83-2.86h0a2.15,2.15,0,0,1,2.9.83A2.11,2.11,0,0,1,483.72,478.41Zm13-6.46a1.81,1.81,0,0,0,1.32-2.22,1.85,1.85,0,0,0-2.24-1.32,1.83,1.83,0,1,0,.93,3.54Zm.07.29a2.14,2.14,0,0,1-2.61-1.54h0a2.12,2.12,0,0,1,1.54-2.58,2.14,2.14,0,0,1,2.61,1.54A2.12,2.12,0,0,1,496.78,472.24ZM512,470a1.83,1.83,0,1,0-1.85-1.83A1.85,1.85,0,0,0,512,470Zm0,.29a2.12,2.12,0,1,1,2.15-2.12A2.15,2.15,0,0,1,512,470.34Zm-17.87-3.49a1,1,0,1,0-1-1A1,1,0,0,0,494.13,466.85Zm0,.29a1.32,1.32,0,1,1,1.32-1.32A1.31,1.31,0,0,1,494.13,467.15Zm.85-3.93a1,1,0,1,0-1-1A1,1,0,0,0,495,463.22Zm0,.29a1.32,1.32,0,1,1,1.32-1.32A1.31,1.31,0,0,1,495,463.51Zm-12.68,9.31a1,1,0,1,0-1-1A1,1,0,0,0,482.3,472.83Zm0,.27a1.32,1.32,0,1,1,1.32-1.32A1.3,1.3,0,0,1,482.3,473.1Zm.85-3.93a1,1,0,1,0-1-1A1,1,0,0,0,483.15,469.17Zm0,.29a1.32,1.32,0,1,1,1.32-1.32A1.33,1.33,0,0,1,483.15,469.46Zm1.51-3.49a1,1,0,0,0,1-1,1,1,0,0,0-1-1,1,1,0,0,0-1,1A1,1,0,0,0,484.67,466Zm0,.29A1.32,1.32,0,1,1,486,465,1.31,1.31,0,0,1,484.67,466.27Zm2.44-3.12a1,1,0,1,0-1-1A1,1,0,0,0,487.1,463.15Zm0,.29a1.32,1.32,0,1,1,1.32-1.32A1.31,1.31,0,0,1,487.1,463.44Zm3-2.44a1,1,0,1,0-1-1A1,1,0,0,0,490.1,461Zm0,.29a1.32,1.32,0,1,1,1.32-1.32A1.31,1.31,0,0,1,490.1,461.3Zm3.19-1.56a1,1,0,1,0-1-1A1,1,0,0,0,493.3,459.73Zm0,.29a1.32,1.32,0,1,1,1.32-1.32A1.3,1.3,0,0,1,493.3,460Zm3.29,0a1,1,0,1,0-1-1A1,1,0,0,0,496.59,460Zm0,.29a1.32,1.32,0,1,1,1.32-1.32A1.31,1.31,0,0,1,496.59,460.32Zm2.41-3a1,1,0,1,0-1-1A1,1,0,0,0,499,457.27Zm0,.29a1.32,1.32,0,1,1,1.32-1.32A1.33,1.33,0,0,1,499,457.56Zm3.12-2.37a1,1,0,1,0-1-1A1,1,0,0,0,502.12,455.2Zm0,.29a1.32,1.32,0,1,1,1.32-1.32A1.31,1.31,0,0,1,502.12,455.49Zm3.27-1.51a1,1,0,1,0-1-1A1,1,0,0,0,505.39,454Zm0,.29a1.32,1.32,0,1,1,1.32-1.32A1.31,1.31,0,0,1,505.39,454.27ZM512,464a1,1,0,1,0-1-1A1,1,0,0,0,512,464Zm0,.29a1.32,1.32,0,1,1,1.32-1.32A1.31,1.31,0,0,1,512,464.25Zm0-4a1,1,0,1,0-1-1A1,1,0,0,0,512,460.27Zm0,.29a1.32,1.32,0,1,1,1.32-1.32A1.31,1.31,0,0,1,512,460.56Zm0-4a1,1,0,1,0-1-1A1,1,0,0,0,512,456.57Zm0,.29a1.32,1.32,0,1,1,1.32-1.32A1.31,1.31,0,0,1,512,456.86Zm-3.24-3.44a1,1,0,1,0-1-1A1,1,0,0,0,508.76,453.42Zm0,.29a1.32,1.32,0,1,1,1.32-1.32A1.34,1.34,0,0,1,508.76,453.71Zm33.43,21.24a1.82,1.82,0,0,0-2.48.71v0a1.82,1.82,0,0,0,.73,2.49,1.86,1.86,0,0,0,2.51-.71A1.89,1.89,0,0,0,542.19,474.95Zm.15-.27a2.11,2.11,0,0,1,.85,2.88,2.15,2.15,0,0,1-2.9.83,2.1,2.1,0,0,1-.85-2.84l0,0A2.11,2.11,0,0,1,542.33,474.68Zm-56.15.73a2.08,2.08,0,0,0-1.41-1.49c.49-6.29,2.12-9.17,7.85-12,.49.17.49.24.49.34a2.07,2.07,0,0,0,1.1,1.73c-1,.22-1.93.68-1.93,1.9a1.86,1.86,0,0,0,1.58,1.83,2.12,2.12,0,0,0-.29,1.44,1.84,1.84,0,0,0-1.12,2.46c.44,1.68,1.46,1.85,3.07,1.44a2.26,2.26,0,0,1-4.07,1.73,3.33,3.33,0,0,0,0-.46,1.88,1.88,0,0,0-2.27-1.34,1.84,1.84,0,0,0-1.34,2.27,1.87,1.87,0,0,0,.46.83,2.22,2.22,0,0,1-1.15,2.24,2.56,2.56,0,0,1-2.34,0C486.11,477.63,486.79,477,486.18,475.41Zm.1-6.8a17.55,17.55,0,0,0-1,5,2.81,2.81,0,0,1,1.37,1.66,2.25,2.25,0,0,1-.73,2.93,1.82,1.82,0,0,0,1-.22,1.84,1.84,0,0,0,1-1.68,2.27,2.27,0,0,1-.46-.9,2.3,2.3,0,0,1,4.46-1.15v0l.07.39a1.84,1.84,0,0,0,3.24-1,2.31,2.31,0,0,1-3.07-1.88,2.24,2.24,0,0,1,1.1-2.85,2.74,2.74,0,0,1,.15-.93,2.3,2.3,0,0,1-1.37-1.66,25.39,25.39,0,0,0-3.36,1A7.25,7.25,0,0,0,486.28,468.61Zm6.41-6.27c-3.19,1.66-5.07,3.34-6.17,5.71a8,8,0,0,1,1.9-1,26.16,26.16,0,0,1,3.41-1v-.15a2.18,2.18,0,0,0,.85-3.54Zm44.23,16a2.2,2.2,0,0,1-1.15-2.24,2.14,2.14,0,0,0,.46-.83,1.85,1.85,0,0,0-1.32-2.26h0a1.86,1.86,0,0,0-2.27,1.34,1.43,1.43,0,0,0,0,.46,2.26,2.26,0,0,1-4.07-1.73c1.61.39,2.63.22,3.07-1.44a1.81,1.81,0,0,0-1.12-2.46,2.1,2.1,0,0,0-.29-1.44,1.93,1.93,0,0,0,1.58-1.85c0-1.22-.93-1.68-2-1.9a2.07,2.07,0,0,0,1.1-1.73.68.68,0,0,0,0-.22l.41-.12c5.71,2.83,7.46,5.8,7.95,12a2.21,2.21,0,0,0-1.41,1.49c-.61,1.58.1,2.22,1.46,2.9A2.69,2.69,0,0,1,536.92,478.34Zm-4.8-12a2.3,2.3,0,0,1-1.37,1.66,2.74,2.74,0,0,1,.15.93,2.25,2.25,0,0,1,1.1,2.85,2.32,2.32,0,0,1-3.07,1.88,1.84,1.84,0,0,0,3.24,1,1.1,1.1,0,0,1,.07-.39,2.32,2.32,0,0,1,2.8-1.66,2.27,2.27,0,0,1,1.19,3.68,1.8,1.8,0,0,0,1.93,1.9,2.22,2.22,0,0,1-.73-2.93,2.86,2.86,0,0,1,1.34-1.66,17.73,17.73,0,0,0-1-5,7.68,7.68,0,0,0-2.24-1.34A26.84,26.84,0,0,0,532.12,466.29Zm-.8-4a2.38,2.38,0,0,1-.59,1.46,2.29,2.29,0,0,1,1.44,2.12V466a22.84,22.84,0,0,1,3.41,1,8.65,8.65,0,0,1,1.9,1C536.38,465.68,534.51,464,531.31,462.27Zm-6.68,19.63-3.24-2.24,3.93-.41,3.24,2.24Zm-6.07-1.32a1.32,1.32,0,1,1,1.32-1.32A1.3,1.3,0,0,1,518.56,480.58Zm0-.29a1,1,0,1,0-1-1A1,1,0,0,0,518.56,480.29Zm-25.82,3.41a1,1,0,1,0-1-1A1,1,0,0,0,492.74,483.7Zm0,.27a1.32,1.32,0,1,1,1.32-1.32A1.3,1.3,0,0,1,492.74,484Zm12.68-3.68a1,1,0,1,0-1-1A1,1,0,0,0,505.42,480.29Zm0,.29a1.32,1.32,0,1,1,1.32-1.32A1.31,1.31,0,0,1,505.42,480.58Zm25.82,3.12a1,1,0,1,0-1-1A1,1,0,0,0,531.24,483.7Zm0,.27a1.32,1.32,0,1,1,1.32-1.32A1.3,1.3,0,0,1,531.24,484Zm-31.89-2.07-3.93-.41,3.24-2.24,3.93.41Zm15.92-3L512,477.73l-3.29,1.22,3.29,1.22Zm.85,0L512,480.48l-4.12-1.54,4.12-1.54Z" transform="translate(-463.26 -444.62)" style="fill:#004996"/></svg>