<svg xmlns="http://www.w3.org/2000/svg" viewBox="0 0 240.57 316"><title>valencia cf logo</title><path d="M511.93,667.52c-17.61,0-47.13-23.65-72-57.56-29.12-39.86-45.82-85.32-45.82-124.59,0-72.91,66.72-121.89,80.58-121.89,2.39,0,4.15,1.81,6.23,4,2.84,2.93,6,6.23,11.29,6.23a9.89,9.89,0,0,0,6.77-2.93q-.34-.84-.72-1.67a21.25,21.25,0,0,1-1.81-7.45c0-2.48,1.53-5.1,6-5.1a8.69,8.69,0,0,1,6.32,2.84A13.2,13.2,0,0,1,512,359a13.51,13.51,0,0,1,3.16.36,8.52,8.52,0,0,1,6.32-2.84c4.42,0,6,2.71,6,5.1a20.34,20.34,0,0,1-1.9,7.45c-.18.54-.45,1.17-.63,1.72a9.52,9.52,0,0,0,6.77,2.93c5.19,0,8.4-3.25,11.29-6.18,2-2.12,3.79-3.93,6.18-3.93,13.81,0,80.53,49,80.53,121.89,0,39.27-16.7,84.73-45.87,124.59-24.83,33.86-54.35,57.56-72,57.56M521.41,354a10.74,10.74,0,0,0-7.09,2.71,16.25,16.25,0,0,0-4.79,0,10.52,10.52,0,0,0-7-2.71c-5.87,0-8.49,3.84-8.49,7.58a22.24,22.24,0,0,0,2.08,8.35,6.5,6.5,0,0,1-3.84,1.26c-4.15,0-6.86-2.71-9.48-5.42-2.26-2.26-4.51-4.69-8-4.69-8.31,0-29.12,13.63-46.95,33.95-16.48,18.82-36.11,49.79-36.11,90.42,0,90,83.47,184.54,120.22,184.54s120.35-94.62,120.35-184.63c0-40.63-19.73-71.55-36.2-90.38C578.29,374.68,557.44,361,549.13,361c-3.39,0-5.73,2.39-8,4.69-2.53,2.71-5.24,5.42-9.39,5.42a6.77,6.77,0,0,1-3.84-1.17,22.73,22.73,0,0,0,2-8.4c0-3.75-2.62-7.58-8.49-7.58m0,5c3.16,0,3.61,1.67,3.61,2.62,0,3.84-2.71,7.95-2.71,9.93a12.45,12.45,0,0,0,9.39,4.6c9.93,0,13.86-10.16,17.47-10.16,11,0,78.1,46.27,78.1,119.45,0,88.71-82.61,179.67-115.39,179.67s-115.34-91-115.34-179.67c0-73.13,67-119.4,78.1-119.4,3.61,0,7.49,10.16,17.47,10.16,5.78,0,9-4.24,9.48-4.6,0-2-2.71-6.09-2.71-9.93-.09-.9.32-2.71,3.48-2.71a6.52,6.52,0,0,1,5.24,3.07c0,.09.14.09.27.09a17,17,0,0,1,4-.63,19.39,19.39,0,0,1,4.06.63c.09,0,.18,0,.23-.09a6.21,6.21,0,0,1,5.15-3" transform="translate(-391.72 -354)" style="fill:#fff"/><path d="M403.54,482.75H620.37a78.68,78.68,0,0,0-8.4-24H412a76.94,76.94,0,0,0-8.49,24" transform="translate(-391.72 -354)" style="fill:#009ad5"/><path d="M620.37,482.75H597.52v89.83C611.38,546.26,621,517.15,621,490.24a58.45,58.45,0,0,0-3.75-19.55,73.91,73.91,0,0,1,3.16,12" transform="translate(-391.72 -354)" style="fill:#f7dc31"/><path d="M573.42,610.64a276.59,276.59,0,0,0,24.15-38V482.79H573.46V610.64Z" transform="translate(-391.72 -354)" style="fill:#e8302a"/><path d="M549.22,637.95a223.7,223.7,0,0,0,24.2-27.31V482.75h-24.2Zm-97.73-26a227.92,227.92,0,0,0,24.69,27.45V482.75H451.49Z" transform="translate(-391.72 -354)" style="fill:#f7dc31"/><path d="M427.33,574.48a276.5,276.5,0,0,0,24.15,37.47V482.75H427.33Z" transform="translate(-391.72 -354)" style="fill:#e8302a"/><path d="M403.14,498c1.67,25.28,11.15,52.09,24.2,76.47V482.75H403.41a66.5,66.5,0,0,1,3.16-12A62,62,0,0,0,403,485.5V498Zm108.79,6A34.19,34.19,0,0,1,525,506.63V482.79H500.92v23a35.12,35.12,0,0,1,11-1.72m0,70.42a35.12,35.12,0,0,1-11-1.81v84.15a27.62,27.62,0,0,0,11,2.71c3.84,0,8.31-1.35,13.09-3.7v-84a34.19,34.19,0,0,1-13.09,2.57" transform="translate(-391.72 -354)" style="fill:#f7dc31"/><path d="M525.07,482.75v23.93a35.21,35.21,0,0,1,0,65.19v84c7.36-3.61,15.62-9.8,24.2-17.88V482.75h-24.2Zm-48.3,56.43a35.21,35.21,0,0,1,24.15-33.41v-23H476.22V639.39c8.8,8.13,17.29,14.17,24.69,17.43V572.67a35.21,35.21,0,0,1-24.15-33.41" transform="translate(-391.72 -354)" style="fill:#e8302a"/><path d="M476.77,539.22a35.21,35.21,0,1,0,0-3.56,35.21,35.21,0,0,0,0,3.56" transform="translate(-391.72 -354)" style="fill:#a03822"/><path d="M544.8,539.22a32.86,32.86,0,1,1-32.91-32.82h0a32.86,32.86,0,0,1,32.86,32.82" transform="translate(-391.72 -354)" style="fill:#ce8b27"/><path d="M519.16,569.78c-3-1.9-5.42-5-5.64-6,7.67-2.57,9.34-8.22,9.34-12.55a20.68,20.68,0,0,0-2-8.4c.9-1.35.9-3.88.9-7.4a15.45,15.45,0,0,0-6.09-12.1l.14-.27c1.08-1.9,3.39-5.87,6.77-5.87,6,0,12.46,8.44,12.46,24.11V542c0,5.64.09,20.54-15.89,27.81M536.54,542v-.68c0-13.54-4.6-22-9.93-24.69a3.52,3.52,0,0,1,.9-1,9.42,9.42,0,0,1,5.19-1.81q-.88-.71-1.81-1.35a10.1,10.1,0,0,0-4.38,2,5.22,5.22,0,0,0-1.35,1.63,8.4,8.4,0,0,0-2.57-.36c-4.29,0-6.86,4.51-8.13,6.64-.18.32-.36.59-.45.72-.77,1.08-2.93,1.63-6.46,1.63-3.79,0-5.06-.77-5.06-3.07,0-3.84,5.15-12.5,12.41-15.12q-1.48-.16-3-.18h-.36c-6.41,3.75-10.65,11.47-10.65,15.26a3.54,3.54,0,0,0,.09,1c-1.22.68-3.84,2-5.87,2-4.79,0-8.44-3.61-9.48-5.06a7.85,7.85,0,0,0-.9,1.35c1.67,2.08,5.64,5.24,10.38,5.24a15.33,15.33,0,0,0,6.41-2c1.35,2.08,4.33,2.12,6,2.12,3.61,0,5.87-.54,7.22-1.72a13.94,13.94,0,0,1,5.51,10.83c0,3.75-.14,6.41-1.13,7C518,543,509.95,544,504.71,544c-13.86,0-24.38-5.15-25.6-6v1.76c3.34,1.81,13.41,5.69,25.64,5.69,4.65,0,12.82-.9,14.9-1.81a20.61,20.61,0,0,1,1.67,7.36c0,3.79-1.49,8.85-8.58,11.06-1.67-.9-5.87-2.71-9-2.71a10.93,10.93,0,0,0-6.14,2c-1.53-1.35-6-4.88-9.3-4.88a17.19,17.19,0,0,0-3.7.59c.32.45.63.9.9,1.35a16.17,16.17,0,0,1,2.84-.45c2.71,0,6.77,3.16,8.35,4.51a1.17,1.17,0,0,0-.09.45c0,1.13,1.26,4.06,3.07,6.46.9.36,1.9.68,2.84,1l.14-.18a15.27,15.27,0,0,1-4.51-7.22,9,9,0,0,1,5.69-2.12,20.52,20.52,0,0,1,8.22,2.44c.14,1.81,3.39,5.6,6.77,7.67a18.16,18.16,0,0,0,2.26-.45l-.27.14c15.94-7.85,15.8-22.93,15.8-28.76" transform="translate(-391.72 -354)" style="fill:#a03822"/><path d="M511.93,659.48c-32.77,0-109-93.36-109-169.29,0-28.21,28.44-65.28,44.56-65.28a20.06,20.06,0,0,1,3.52.45A26.2,26.2,0,0,1,466.34,420c16.93,0,25.82,16.25,25.82,22.12,0,3-1.08,2.44-1.08,4.2a2.9,2.9,0,0,0,2.26,2.26c1.35,0,5.24-3.79,6.09-5.55,5.64,0,10.92,6.32,12.46,11.2,1.58-5,6.86-11.2,12.5-11.2.9,1.81,4.83,5.6,6.09,5.6a2.9,2.9,0,0,0,2.26-2.26c0-1.81-1-1.22-1-4.24,0-5.87,8.85-22.12,25.73-22.12a26.3,26.3,0,0,1,15.44,5.33,19.34,19.34,0,0,1,3.52-.45c16.07,0,44.6,37.11,44.6,65.37,0,75.84-76.29,169.29-109.07,169.29M473.11,371.15a.44.44,0,0,1,.45.45c0,1.17-20.77,19.41-23.65,45.37-1.53-20.31,21.22-45.82,23.2-45.82m78.68,0c2,0,24.74,25.51,23.2,45.82-2.89-26-23.56-44.24-23.56-45.37a.42.42,0,0,1,.45-.45m-2.71-5.28c-3.61,0-7.45,10.16-17.43,10.16-5.78,0-9-4.24-9.48-4.6,0-2,2.71-6.09,2.71-9.93,0-.9-.32-2.62-3.52-2.62a6.31,6.31,0,0,0-5.19,3c-.32.45-1.53-.45-4.33-.45s-4,.9-4.24.45a6.39,6.39,0,0,0-5.19-3c-3.16,0-3.61,1.67-3.61,2.71,0,3.75,2.71,7.85,2.71,9.84a12.45,12.45,0,0,1-9.39,4.6c-9.93,0-13.9-10.16-17.47-10.16-11.06,0-78.1,46.27-78.1,119.45C396.64,574,479.16,665,511.93,665s115.34-91,115.34-179.67c0-73.13-67.08-119.4-78.1-119.4" transform="translate(-391.72 -354)" style="fill:#232020"/><path d="M415.69,462.7,422,479.86h4.06l6.46-17.15h-4.29s-3.79,12.5-4.06,12.5-3.79-12.5-3.79-12.5Zm22.48,10.38,2.17-5.73,2.08,5.78h-4.24Zm6.68,6.86h4.38l-6.77-17.24h-4.29l-6.77,17.15h4.2l1.44-3.75h6.41l1.35,3.79Zm95.79-6.77,2.26-5.87,2,5.78h-4.29Zm6.77,6.77h4.38l-6.86-17.24h-4.2l-6.86,17.15h4.24l1.44-3.75H546l1.35,3.79ZM451.49,462.7v17.15H465v-3.61h-9.34V462.7Zm17.06,0v17.15h13.54v-3.48h-9.62v-3.93h8.31v-2.93h-8.31v-3.3H482v-3.48Zm122.25,0v17.15h4.06v-7.45h8.22v-2.93h-8.26v-3.3h9.48V462.7Zm-104,0v17.15h3.61V468.71L497.8,480H502V462.75H498v11.74l-7-11.83Zm31.51,6.18h4.51c0-3.61-4.2-6.18-8.22-6.18-5.69,0-8.58,5.06-8.58,9.12,0,5,3.16,8.13,8.26,8.13,6,0,8.49-3.39,8.49-6.32h-4.51a3.45,3.45,0,0,1-3.61,3.61c-3,0-4.6-2.71-4.6-5.42s1.63-6,4.74-6c2.62,0,3.61,1.35,3.61,3m55.25,0h4.51c0-3.61-4.2-6.18-8.22-6.18-5.69,0-8.58,5.06-8.58,9.12,0,5,3.16,8.13,8.26,8.13,6.09,0,8.58-3.39,8.58-6.32h-4.6a3.42,3.42,0,0,1-3.52,3.61c-3,0-4.65-2.71-4.65-5.42s1.58-6,4.69-6c2.71,0,3.61,1.35,3.61,3m-46.86,11.06H531V462.7h-4.15Zm55.07,0h4.42v-4.06h-4.42Zm22.12,0h4.29v-4.06H604Z" transform="translate(-391.72 -354)" style="fill:#eeeceb"/></svg>