<svg xmlns="http://www.w3.org/2000/svg" xmlns:xlink="http://www.w3.org/1999/xlink" viewBox="0 0 202.6 252.86"><defs><clipPath id="a" transform="translate(-410.7 -385.6)"><path d="M462.19,437.57a5,5,0,0,0-2.84,4.54,5.12,5.12,0,0,0,.55,2.51,26.93,26.93,0,0,0,23,13.55l52.66,0s2.11,0,3.34,0a27.19,27.19,0,0,0,23.45-13.47,6.36,6.36,0,0,0,.86-2.9,5.2,5.2,0,0,0-3-4.63h.09a119.4,119.4,0,0,0-98.13.41" style="fill:none"/></clipPath><clipPath id="b" transform="translate(-410.7 -385.6)"><path d="M496.7,441.19l-65.89,87.07,81.15,110,81.14-109.86L527.18,441.3s-9.72-1.18-15.46-1.18a136.93,136.93,0,0,0-15,1.06" style="fill:none"/></clipPath></defs><title>Villarreal CF logo</title><path d="M511.85,385.71a6.33,6.33,0,0,1,5.56,9.19h.38a6.32,6.32,0,1,1-3.48,11.57,12.95,12.95,0,0,0,25.54,3.09,6.93,6.93,0,0,1-3.37.16,6.32,6.32,0,0,1,2.85-12.32l.21.05a6.32,6.32,0,0,1,7.56-7.68A6.32,6.32,0,0,1,550.54,400l.38.08a6.32,6.32,0,1,1-5.67,10.85l-.06.2a12.89,12.89,0,0,0,9.7,15.53c6.07,1.33,9.95-.41,12-2.44a6.44,6.44,0,0,1-3-1.38,6.32,6.32,0,0,1,8.13-9.69l1.62,1.5c2.22-3.88,2.54-4.52,3.67-6.24,1.91-2.92,4.84-2.09,8-.11l4.84,3.34L581,421.1a4.49,4.49,0,0,1,.32,1.87,5.57,5.57,0,0,1-5.57,5.57,5.39,5.39,0,0,1-2.47-.42A22.88,22.88,0,0,1,539.46,423l.21-.26A22.85,22.85,0,0,1,523,425.23a22.16,22.16,0,0,1-11.19-6.36,22.18,22.18,0,0,1-11.2,6.36A22.55,22.55,0,0,1,484.12,423l-.08.16a22.09,22.09,0,0,1-13.83,9.63,22.8,22.8,0,0,1-19.79-4.71,5.4,5.4,0,0,1-2.47.42,5.57,5.57,0,0,1-5.57-5.57,4.49,4.49,0,0,1,.32-1.87l-9.1-9.47,4.84-3.34c3.11-2,6-2.81,8,.11,1.12,1.72,1.45,2.36,3.67,6.24l1.62-1.5a6.32,6.32,0,0,1,8.13,9.69,6.41,6.41,0,0,1-3,1.38c2,2,5.91,3.77,12,2.44a12.9,12.9,0,0,0,9.7-15.53l-.06-.2a6.32,6.32,0,1,1-5.67-10.85l.38-.08a6.32,6.32,0,1,1,11-2.54l.21-.05a6.32,6.32,0,1,1,2.85,12.32,6.93,6.93,0,0,1-3.37-.16,13,13,0,0,0,25.54-3.09,6.31,6.31,0,1,1-3.48-11.57h.38a6.33,6.33,0,0,1,5.56-9.19" transform="translate(-410.7 -385.6)" style="fill:#fee050;fill-rule:evenodd"/><path d="M511.85,385.71a6.33,6.33,0,0,1,5.56,9.19h.38a6.32,6.32,0,1,1-3.48,11.57,12.95,12.95,0,0,0,25.54,3.09,6.93,6.93,0,0,1-3.37.16,6.32,6.32,0,0,1,2.85-12.32l.21.05a6.32,6.32,0,0,1,7.56-7.68A6.32,6.32,0,0,1,550.54,400l.38.08a6.32,6.32,0,1,1-5.67,10.85l-.06.2a12.89,12.89,0,0,0,9.7,15.53c6.07,1.33,9.95-.41,12-2.44a6.44,6.44,0,0,1-3-1.38,6.32,6.32,0,0,1,8.13-9.69l1.62,1.5c2.22-3.88,2.54-4.52,3.67-6.24,1.91-2.92,4.84-2.09,8-.11l4.84,3.34L581,421.1a4.49,4.49,0,0,1,.32,1.87,5.57,5.57,0,0,1-5.57,5.57,5.39,5.39,0,0,1-2.47-.42A22.88,22.88,0,0,1,539.46,423l.21-.26A22.85,22.85,0,0,1,523,425.23a22.16,22.16,0,0,1-11.19-6.36,22.18,22.18,0,0,1-11.2,6.36A22.55,22.55,0,0,1,484.12,423l-.08.16a22.09,22.09,0,0,1-13.83,9.63,22.8,22.8,0,0,1-19.79-4.71,5.4,5.4,0,0,1-2.47.42,5.57,5.57,0,0,1-5.57-5.57,4.49,4.49,0,0,1,.32-1.87l-9.1-9.47,4.84-3.34c3.11-2,6-2.81,8,.11,1.12,1.72,1.45,2.36,3.67,6.24l1.62-1.5a6.32,6.32,0,0,1,8.13,9.69,6.41,6.41,0,0,1-3,1.38c2,2,5.91,3.77,12,2.44a12.9,12.9,0,0,0,9.7-15.53l-.06-.2a6.32,6.32,0,1,1-5.67-10.85l.38-.08a6.32,6.32,0,1,1,11-2.54l.21-.05a6.32,6.32,0,1,1,2.85,12.32,6.93,6.93,0,0,1-3.37-.16,13,13,0,0,0,25.54-3.09,6.31,6.31,0,1,1-3.48-11.57h.38a6.33,6.33,0,0,1,5.56-9.19Z" transform="translate(-410.7 -385.6)" style="fill:none;stroke:#003764;stroke-miterlimit:3.864000082015991;stroke-width:0.20900000631809235px"/><path d="M410.8,528.41A101.2,101.2,0,1,1,512,629.61a101.2,101.2,0,0,1-101.2-101.2" transform="translate(-410.7 -385.6)" style="fill:#fff"/><circle cx="101.3" cy="142.8" r="101.2" style="fill:none;stroke:#003764;stroke-miterlimit:3.864000082015991;stroke-width:0.20900000631809235px"/><path d="M414.54,528.94a97.19,97.19,0,1,1,97.19,97.19,97.19,97.19,0,0,1-97.19-97.19" transform="translate(-410.7 -385.6)" style="fill:#003764"/><path d="M527.55,438.41l21.71,28.36,23.26.09v16.43H561.93l33.78,45.21-73,98.82-21.75.05-73.05-99.06,34.35-45.2H450.54V466.63l24,0L496,438.29a141.85,141.85,0,0,1,15.53-1.1c5.93,0,16,1.22,16,1.22" transform="translate(-410.7 -385.6)" style="fill:#fff;fill-rule:evenodd"/><path d="M482.87,458.17a26.93,26.93,0,0,1-23-13.55,5.15,5.15,0,0,1-.55-2.51,5,5,0,0,1,2.84-4.54,119.41,119.41,0,0,1,98.13-.41h-.1a5.19,5.19,0,0,1,3,4.63,6.37,6.37,0,0,1-.86,2.9,27.18,27.18,0,0,1-23.45,13.47c-1.23,0-3.34,0-3.34,0Z" transform="translate(-410.7 -385.6)" style="fill:#fee050"/><g style="clip-path:url(#a)"><path d="M411.73,538.65a99.41,99.41,0,1,1,99.41,99.41,99.41,99.41,0,0,1-99.41-99.41" transform="translate(-410.7 -385.6)" style="fill:#231f20"/><circle cx="100.44" cy="153.05" r="99.41" style="fill:none;stroke:#231f20;stroke-miterlimit:3.864000082015991;stroke-width:0.4180000126361847px"/><path d="M457.87,438.23c.74.67-4.57,6.31,1.17,10.76,8.35,6.47,8.47-9.37,53.21-9.37,30.66,0,42.72,10.15,42.72,10.15l-5.13,1.3-4.63.37,1.11-3.33-1.48-2-2,2.41-1.3.18-1.11-3.47-1.48,3.1L535.38,450l5.54,7.76c11.11-.6,23.73-11,23.73-15.81,0-8.46-28-16.18-53-16.18-23.65,0-54.53,11.82-53.79,12.49" transform="translate(-410.7 -385.6)" style="fill:#fee050;fill-rule:evenodd"/><path d="M457.87,438.23c.74.67-4.57,6.31,1.17,10.76,8.35,6.47,8.47-9.37,53.21-9.37,30.66,0,42.72,10.15,42.72,10.15l-5.13,1.3-4.63.37,1.11-3.33-1.48-2-2,2.41-1.3.18-1.11-3.47-1.48,3.1L535.38,450l5.54,7.76c11.11-.6,23.73-11,23.73-15.81,0-8.46-28-16.18-53-16.18C488,425.74,457.14,437.55,457.87,438.23Z" transform="translate(-410.7 -385.6)" style="fill:none;stroke:#231f20;stroke-miterlimit:3.864000082015991;stroke-width:0.1120000034570694px"/></g><path d="M482.87,458.17a26.93,26.93,0,0,1-23-13.55,5.15,5.15,0,0,1-.55-2.51,5,5,0,0,1,2.84-4.54,119.41,119.41,0,0,1,98.13-.41h-.1a5.19,5.19,0,0,1,3,4.63,6.37,6.37,0,0,1-.86,2.9,27.18,27.18,0,0,1-23.45,13.47c-1.23,0-3.34,0-3.34,0Z" transform="translate(-410.7 -385.6)" style="fill:none;stroke:#231f20;stroke-miterlimit:3.864000082015991;stroke-width:0.20900000631809235px"/><path d="M527.18,441.3l65.93,87.14L512,638.29l-81.14-110,65.88-87.07a137.64,137.64,0,0,1,15-1.06c5.74,0,15.46,1.17,15.46,1.17" transform="translate(-410.7 -385.6)" style="fill:#fee050;fill-rule:evenodd"/><g style="clip-path:url(#b)"><polygon points="37.13 126.69 55.38 103.52 55.38 182.53 37.13 159.77 37.13 126.69" style="fill:#f7323f;fill-rule:evenodd"/><polygon points="37.13 126.69 55.38 103.52 55.38 182.53 37.13 159.77 37.13 126.69" style="fill:none;stroke:#f7323f;stroke-miterlimit:3.864000082015991;stroke-width:0.4180000126361847px"/><polygon points="91.19 56.38 72.94 80.56 72.94 208.97 91.2 232.3 91.19 56.38" style="fill:#f7323f;fill-rule:evenodd"/><polygon points="91.19 56.38 72.94 80.56 72.94 208.97 91.2 232.3 91.19 56.38" style="fill:none;stroke:#f7323f;stroke-miterlimit:3.864000082015991;stroke-width:0.4180000126361847px"/><polygon points="165 126.84 147.06 103.77 147.06 181.91 165 159.54 165 126.84" style="fill:#f7323f;fill-rule:evenodd"/><polygon points="165 126.84 147.06 103.77 147.06 181.91 165 159.54 165 126.84" style="fill:none;stroke:#f7323f;stroke-miterlimit:3.864000082015991;stroke-width:0.4180000126361847px"/><polygon points="111.14 55.86 129.59 80.67 129.59 208.56 111.47 232.5 111.14 55.86" style="fill:#f7323f;fill-rule:evenodd"/><polygon points="111.14 55.86 129.59 80.67 129.59 208.56 111.47 232.5 111.14 55.86" style="fill:none;stroke:#f7323f;stroke-miterlimit:3.864000082015991;stroke-width:0.4180000126361847px"/></g><path d="M527.18,441.3l65.93,87.14L512,638.29l-81.14-110,65.88-87.07a137.64,137.64,0,0,1,15-1.06C517.46,440.12,527.18,441.3,527.18,441.3Z" transform="translate(-410.7 -385.6)" style="fill:none;stroke:#003764;stroke-miterlimit:3.864000082015991;stroke-width:0.20900000631809235px"/><path d="M508.07,400.15a3.91,3.91,0,1,1,3.92,3.92,3.92,3.92,0,0,1-3.92-3.92" transform="translate(-410.7 -385.6)" style="fill:#f7323f"/><path d="M476.08,404.21a3.92,3.92,0,1,1,3.92,3.92,3.92,3.92,0,0,1-3.92-3.92" transform="translate(-410.7 -385.6)" style="fill:#f7323f"/><path d="M540.34,404.21a3.91,3.91,0,1,1,3.91,3.92,3.92,3.92,0,0,1-3.91-3.92" transform="translate(-410.7 -385.6)" style="fill:#f7323f"/><path d="M573,424.39a3.92,3.92,0,1,1,3.92,3.91,3.92,3.92,0,0,1-3.92-3.91" transform="translate(-410.7 -385.6)" style="fill:#f7323f"/><path d="M442.76,424.39a3.91,3.91,0,1,1,3.92,3.91,3.92,3.92,0,0,1-3.92-3.91" transform="translate(-410.7 -385.6)" style="fill:#f7323f"/><polygon points="101 43.59 91.77 47.16 101.02 51.37 110.31 47.26 101 43.59" style="fill:#f7323f;fill-rule:evenodd"/><polygon points="59.77 51.57 52.42 58.21 62.57 58.83 69.77 51.66 59.77 51.57" style="fill:#003764;fill-rule:evenodd"/><polygon points="142.03 51.57 149.38 58.21 139.24 58.83 132.04 51.66 142.03 51.57" style="fill:#003764;fill-rule:evenodd"/><path d="M482,505.83a15.8,15.8,0,0,0-9.1-2.67c-12.61,0-21.79,11-21.79,26.07,0,14.21,9.35,25.43,21.2,25.43A18.53,18.53,0,0,0,482,552V537.45c-2.23,2.14-4.46,3.21-6.95,3.21-5.75,0-9.61-4.81-9.61-11.86,0-6.63,4-11.54,9.44-11.54,2.49,0,4.46.86,7.12,3.1Z" transform="translate(-410.7 -385.6)" style="fill:#231f20;fill-rule:evenodd"/><polygon points="162.13 129.03 162.13 118.19 133.16 118.19 133.16 168.92 146.28 168.92 146.28 148.03 160.69 148.03 160.69 137.2 146.28 137.2 146.28 129.03 162.13 129.03" style="fill:#231f20;fill-rule:evenodd"/><polygon points="41.24 82.43 41.24 96.18 68.5 96.14 100.82 208.23 132.05 96.14 160.33 96.14 160.33 82.43 121.87 82.43 101.16 158.09 80.3 82.43 41.24 82.43" style="fill:#231f20;fill-rule:evenodd"/><polygon points="66.59 61.42 69.37 65.78 69.17 69.56 72.15 69.36 80.29 57.5 66.59 61.42" style="fill:#ffe575;fill-rule:evenodd"/><polygon points="66.59 61.42 69.37 65.78 69.17 69.56 72.15 69.36 80.29 57.5 66.59 61.42" style="fill:none;stroke:#231f20;stroke-miterlimit:3.864000082015991;stroke-width:0.19200000166893005px"/></svg>