<svg xmlns="http://www.w3.org/2000/svg" viewBox="0 0 261.81 266.51"><defs><style>.a{fill:#a2a089;}.b{fill:#000943;}.c{fill:#ed1b2f;}.d{fill:#fff;}</style></defs><title>Adelaide 36ers logo - Brandlogos.net</title><path class="a" d="M642.9,428.6l-10.36-11.23-33.1-7.45-9.25,5.7-3.2-3V395.38l-8.38-10.3-1.16-.17c-.35-.06-35.6-6.17-65.45-6.17-27.87,0-65,6.11-65.45,6.17l-1.16.17L437,395.38v17.16l-3.37,3.26L424.33,410l-32.87,7.33L381.11,428.6v61.55c-.06,2.91-.17,6.92,5.7,10.59,5.12,3.2,20.48,12.39,20.59,12.45l1.4.81,1.51-.64c16.64-7.45,37.41-12.22,57.48-15.07a68.25,68.25,0,0,0-3.9,13.44l-3.37-5.82s-11.4,37.93.47,57c2.33,3.78,5.12,7,13.85,16.29,3.84,4.19,9.19,9.95,16.11,17.57,8.67,9.54,12.57,19.14,17.63,36.07,1,3.43,3.43,12.39,3.43,12.39s2.5-9,3.37-12.39c4.36-16.58,9-26.59,17.63-36,5.7-6.22,10.3-11.11,14-15.07,10.18-10.94,13.38-14.84,16-18.73,11.4-17.1.47-57,.47-57l-3.37,5.76a45.11,45.11,0,0,0-3.61-13.73c25.37,3.49,45.9,9.54,58.93,15.36l1.57.7,20.25-13.38c5.7-3.49,5.7-8.26,5.7-11.46Z" transform="translate(-381.1 -378.75)"/><path class="b" d="M639.7,429.83l-8.84-9.6L600,413.3l-10.24,6.34-5.93-5.7V396.49L576.87,388s-35-6.11-64.93-6.11C484,381.89,447,388,447,388l-6.92,8.49v17.34L434,419.7l-10.3-6.34-30.66,6.86-8.84,9.6v59.4c0,3.55.12,6.4,4.19,8.84L409,510.52c13.9-6.22,38-13.26,68.13-16.64a63.38,63.38,0,0,0-3.37,7.91c-.81-1.92-1.86-4.19-1.86-4.19-6.46,15.13-4.6,24.61-4.6,24.61-2.5-1.8-5.29-6.57-5.29-6.57-4,19.49-3.14,36.83,1.92,45.61,3,5.12,7.8,9.37,29.5,33.22,14.89,16.35,18,36.42,18.44,38.69.47-2.27,3.49-22.4,18.5-38.69,21.35-23.21,26.53-28.1,29.5-33.22,5.06-8.73,5.93-26.06,1.92-45.61,0,0-2.79,4.77-5.29,6.57,0,0,1.86-9.48-4.6-24.61,0,0-1.11,2.27-1.86,4.19a67.25,67.25,0,0,0-3.49-8.14c31,3.26,55.79,10.47,70,16.81L635.46,498c4.25-2.56,4.25-5.82,4.25-8.78Z" transform="translate(-381.1 -378.75)"/><path class="a" d="M522.19,567.88a10.36,10.36,0,0,1-4.19-3c1.86,3.08,3.55,5.93,4.19,8.38a179.3,179.3,0,0,0-10.24,43.05V555.49c-1.28,2.68-5.53,10.82-10.18,12.39a41,41,0,0,1-11.87,1.75,121.46,121.46,0,0,1,11.87,20.89c5.18,12.22,8.67,22.17,10.18,36.36,1.57-14.2,5.06-24.14,10.24-36.36a121.46,121.46,0,0,1,11.87-20.89A41,41,0,0,1,522.19,567.88Z" transform="translate(-381.1 -378.75)"/><path class="c" d="M544.59,544.32a27.31,27.31,0,0,0-5.93,4c.23.7.41,1.4.58,2a2.53,2.53,0,0,0-.41.23c-1,.64-2.09,1.92-1.63,2.5s1.45.41,2.44,0a4.76,4.76,0,0,1-1.16,3.61c-2.68,2.62-5.35.41-6.17-.41a15.87,15.87,0,0,0-1.63,3.49c1.22.52,5.47,1.8,8.9-1,4.07-3.37,2.09-10.41,2.09-10.41A19.62,19.62,0,0,1,544.59,544.32Z" transform="translate(-381.1 -378.75)"/><path class="c" d="M485.48,556.71a4.91,4.91,0,0,1-1.11-3.55c.93.35,2.09.41,2.44,0,.41-.58-.64-1.92-1.63-2.56l-.47-.17a20.83,20.83,0,0,1,.64-2,29.07,29.07,0,0,0-5.93-4.07,18.64,18.64,0,0,1,2.85,4.13s-1.92,7,2.15,10.36c3.43,2.85,7.62,1.57,8.9,1a19.07,19.07,0,0,0-1.63-3.49C490.89,557.17,488.21,559.38,485.48,556.71Z" transform="translate(-381.1 -378.75)"/><path class="d" d="M476.75,546.76s-2.56,6.11,1.63,11.34c3.43,4.31,9.19,3.61,9.19,3.61s-9.77-1-7.91-11.69C479.72,550,477.28,547.46,476.75,546.76Z" transform="translate(-381.1 -378.75)"/><path class="d" d="M536.32,561.71s5.82.7,9.19-3.61c4.25-5.24,1.63-11.29,1.63-11.29-.52.64-2.91,3.2-2.91,3.2C546.1,560.72,536.32,561.71,536.32,561.71Z" transform="translate(-381.1 -378.75)"/><path class="d" d="M542,541a86.2,86.2,0,0,0,5.88-30.89c-1.51-9.77-9.19-21.35-9.19-21.35,4.95,29.26-.52,46-.52,46a27,27,0,0,0-4,4.19c.17-3,.64-5.82.64-5.82-10.06,10.82-9,30.83-9,30.83A39,39,0,0,1,542,541Z" transform="translate(-381.1 -378.75)"/><path class="d" d="M558.49,525.7a43,43,0,0,1-6.86,6.11,90.6,90.6,0,0,0,.81-11.93c-2.56,13.09-6.34,19.9-6.34,19.9,4-1.75,8.14-3.9,8.14-3.9,3.84,23-7.74,30.25-13.85,38a98.06,98.06,0,0,0-9.48,15.24s7.56-9.25,10.3-12.1c4.36-4.65,12.57-11.93,16.17-19.84C562.45,546,558.49,525.7,558.49,525.7Z" transform="translate(-381.1 -378.75)"/><path class="d" d="M469.77,535.88s4.13,2.15,8.09,3.9c0,0-3.72-6.81-6.28-19.9a90.6,90.6,0,0,0,.81,11.93,40.58,40.58,0,0,1-6.86-6.11s-4,20.3,1.11,31.47C470.24,565,478.44,572.3,482.8,577c2.73,2.91,10.3,12.1,10.3,12.1a94.19,94.19,0,0,0-9.54-15.24C477.51,566.13,465.93,558.8,469.77,535.88Z" transform="translate(-381.1 -378.75)"/><path class="d" d="M489.72,539a29.88,29.88,0,0,0-4-4.19s-5.47-16.7-.52-46c0,0-7.68,11.52-9.13,21.35a85.37,85.37,0,0,0,5.82,30.89s11.93,6.86,16.11,23c0,0,1.11-20.07-9-30.89C489.38,535.07,489.61,537,489.72,539Z" transform="translate(-381.1 -378.75)"/><path class="d" d="M452.72,401.38l1.69-5.47,1.63,4.94Zm-.29-9.6c-1.86,5.47-3.78,11-5.7,16.52,1.63-.29,2.44-.47,4.07-.7l1-3.55c2-.35,3-.47,4.89-.81l1.11,3.2,4.07-.58c-2.27-5.93-3.43-8.84-5.7-14.78C454.76,391.37,454,391.49,452.43,391.78Z" transform="translate(-381.1 -378.75)"/><path class="d" d="M475,401.49l-.47.35-3.55.41V391.66l3.55-.41.47.29Zm-8.09-11.81v15.53c4.07-.47,6.11-.7,10.18-1.11l2-1.45v-13l-2-1.11C473,389,471,389.22,466.92,389.68Z" transform="translate(-381.1 -378.75)"/><path class="d" d="M485.07,403.47c4.6-.35,6.92-.47,11.58-.7v-2.5c-3,.12-4.54.23-7.56.41v-4.13c2.27-.17,3.37-.23,5.58-.35v-2.5l-5.58.29v-3.84c3-.17,4.54-.29,7.56-.41v-2.5c-4.65.17-7,.29-11.58.64Z" transform="translate(-381.1 -378.75)"/><path class="d" d="M506.25,400V387c-1.63,0-2.44,0-4.07.06v15.59c4.42-.17,6.63-.17,11.11-.17V400C510.44,399.92,509,399.92,506.25,400Z" transform="translate(-381.1 -378.75)"/><path class="d" d="M523.29,396.72l1.69-5.18,1.69,5.29Zm-.29-9.66c-2.27,6.17-3.43,9.25-5.64,15.42,1.63,0,2.44,0,4.13.12l1-3.32c2,.06,3,.06,5,.17l1,3.37c1.63.06,2.44.12,4.13.23-2.27-6.4-3.43-9.54-5.7-15.82C525.39,387.12,524.63,387.12,523,387.07Z" transform="translate(-381.1 -378.75)"/><path class="d" d="M537.66,403.3c1.63.12,2.44.17,4.07.35V388.05l-4.07-.29Z" transform="translate(-381.1 -378.75)"/><path class="d" d="M555.7,402.13l-.41.29-3.61-.41V391.43l3.61.41.41.35Zm2.15-12.45c-4.07-.47-6.11-.7-10.24-1.11v15.59c4.07.35,6.17.58,10.24,1.11l1.92-1v-13Z" transform="translate(-381.1 -378.75)"/><path class="d" d="M577.16,395.15v-2.56c-4.54-.81-6.86-1.16-11.46-1.86v15.59c4.6.64,6.92,1,11.46,1.86v-2.56c-3-.52-4.48-.81-7.45-1.22v-4.13l5.53.87v-2.5c-2.21-.41-3.32-.58-5.53-.93v-3.84C572.68,394.34,574.2,394.57,577.16,395.15Z" transform="translate(-381.1 -378.75)"/><path class="c" d="M482.22,482.53s-30.83.7-72.72,13.15L400,493.3l9.37,5.93s34.62-12.45,71.32-14.37Z" transform="translate(-381.1 -378.75)"/><path class="c" d="M614.46,495.68c-41.89-12.45-72.72-13.15-72.72-13.15l1.51,2.33c36.77,1.92,71.32,14.37,71.32,14.37L624,493.3Z" transform="translate(-381.1 -378.75)"/><path class="a" d="M395.77,424.07c-2.62,2.79-3.9,4.19-6.52,7V445c5.24-1.45,7.85-2.15,13.15-3.43v-7.16l1.57-1.63c4.07-1,6.11-1.45,10.24-2.33l1.63.93V445l-1.63,1.63c-4.77,1-7.1,1.57-11.81,2.68V459.9c4.71-1.16,7-1.69,11.81-2.68l1.63.93v14.49l-1.63,1.63c-4.13.87-6.17,1.34-10.24,2.33l-1.57-.93v-7.21c-5.29,1.28-7.91,2-13.15,3.43v13.79c2.62,1.4,3.9,2.15,6.52,3.61q13.44-3.49,27.05-6.11l6.57-6.57V454.26l-6.57-4.07c2.62-2.62,4-4,6.57-6.52V422.15l-6.57-4.07C413.75,419.76,404.73,421.74,395.77,424.07Z" transform="translate(-381.1 -378.75)"/><path class="a" d="M454.88,450.3c4.25-.52,6.4-.76,10.65-1.16l1.63,1.11v14.49l-1.63,1.45c-4.25.47-6.4.7-10.65,1.22l-1.51-1.11V451.82ZM446.5,414c-2.68,2.5-4,3.72-6.63,6.28v54.45c2.62,1.75,4,2.62,6.63,4.36,9.08-1.28,18.21-2.33,27.34-3.08l6.69-5.82V442.62c-2.68-1.92-4-2.91-6.69-4.83-6.81.58-13.67,1.28-20.48,2.15v-15l1.51-1.45c4.25-.52,6.34-.76,10.59-1.16l1.63,1.11v6.86c5.41-.52,8.09-.76,13.44-1.11V415.75c-2.68-1.92-4-2.91-6.63-4.83C464.71,411.67,455.58,412.72,446.5,414Z" transform="translate(-381.1 -378.75)"/><path class="a" d="M568.79,442.1c-5.24-.64-7.85-.93-13.09-1.45V422c5.24.52,7.85.81,13.09,1.45l1.51,1.34v16.11Zm15.07-21.87c-2.62-2.5-4-3.78-6.63-6.28-11.69-1.51-23.39-2.73-35.2-3.61v65.16c5.47.35,8.2.52,13.67,1V451.18c3.26.35,4.89.47,8.14.81l6.63,26.18c5.35.64,8,1,13.38,1.86l-6.63-26.35c2.62-1.75,4-2.62,6.63-4.31Z" transform="translate(-381.1 -378.75)"/><path class="a" d="M634.7,444.54V431.11c-2.62-2.85-3.9-4.25-6.52-7-9-2.33-18.09-4.36-27.28-6.17-2.62,1.63-3.9,2.44-6.57,4.07v26.64c2.68,2.62,4,4,6.57,6.52,6.28,1.22,12.51,2.56,18.73,4.07l1.57,1.63v14.72l-1.57.93c-4.07-1-6.17-1.45-10.24-2.33l-1.63-1.63V465.6c-5.41-1.16-8.09-1.63-13.5-2.62v13.44c2.62,2.62,4,3.9,6.57,6.52,9.19,1.75,18.27,3.78,27.28,6.11,2.62-1.45,3.9-2.15,6.52-3.55V457.75c-2.62-2.85-3.9-4.25-6.52-7-6.22-1.63-12.51-3.14-18.79-4.42l-1.63-1.63V431.11l1.63-.93c4.13.87,6.17,1.34,10.24,2.27l1.57,1.63v6.86C626.61,442.39,629.35,443.09,634.7,444.54Z" transform="translate(-381.1 -378.75)"/><path class="a" d="M492.17,409.7v64.52a23.7,23.7,0,0,1,20,16.64s3.9-14.6,19.14-16.7V463.74q-12.74-.52-25.48-.35V446.23c7.56-.06,11.34-.06,18.91.12V435.93c-7.56-.17-11.34-.23-18.91-.12V419.76q12.74-.17,25.48.35V409.7Q511.69,409.09,492.17,409.7Z" transform="translate(-381.1 -378.75)"/></svg>