<svg xmlns="http://www.w3.org/2000/svg" viewBox="0 0 253.75 200.63"><defs><style>.a{fill:#faa21b;}.b{fill:#fff;}.c{fill:#002d73;}</style></defs><title>Brisbane Bullets logo - Brandlogos.net</title><path class="a" d="M529.57,594.88a52.15,52.15,0,0,0,39.08,17.44,54.11,54.11,0,0,0,21.91-4.74,52.36,52.36,0,0,0,25.75-69.43l0-.06c-.73-1.47-1.47-2.94-2.27-4.34a14.25,14.25,0,0,0,6.68-3c3.81-3.21,5.75-8,5.75-14.43V497.67A17.06,17.06,0,0,0,623.17,487l15.7-29.26H588.3v-8.55L596,434.67H456.55l-39.49-23,12,14.9-26-13.7,31.07,44.83h-49l17.64,24.45v55.72l12.69-2.67c6.55-1.34,13.23-2.54,19.91-3.67,1.4-.2,31.27-4.21,46.23-5.34l43,62.13c.67,1,1.4,2.07,2.14,3.07Z" transform="translate(-385.13 -411.68)"/><path class="a" d="M455.54,456c0-.2,0-.33-.13-.4s-.2-.07-.4-.07h-1.6v4.14h1.8a.35.35,0,0,0,.27-.13c.07-.07.07-.13.07-.27Zm-2.14-7.75v4.61h1.67a.46.46,0,0,0,.47-.45s0,0,0,0v-3.81c0-.27-.13-.33-.33-.33Zm5.48,3.88a2.2,2.2,0,0,1-.27,1.14,1.49,1.49,0,0,1-.94.67,1.45,1.45,0,0,1,1.07.47,2,2,0,0,1,.33,1.07V460a3,3,0,0,1-.6,2.07,2.74,2.74,0,0,1-2.14.67h-6.41V445.09h6.88a1.92,1.92,0,0,1,1.54.6,2.44,2.44,0,0,1,.53,1.6Z" transform="translate(-385.13 -411.68)"/><path class="a" d="M471.78,448.23v6h1.74a.32.32,0,0,0,.33-.33v-5.34a.32.32,0,0,0-.3-.33h-1.78Zm5.55,7.35a1.59,1.59,0,0,1-1.6,1.54l1.87,5.61h-3.67l-1.67-5.61h-.47v5.61h-3.54V445.09h6.68a2.06,2.06,0,0,1,1.8.67,2.22,2.22,0,0,1,.6,1.67Z" transform="translate(-385.13 -411.68)"/><rect class="a" x="101.49" y="33.47" width="3.47" height="17.57"/><path class="a" d="M500.17,462.73l-.6-3.27h3.74a.35.35,0,0,0,.4-.4v-3.14c0-.27,0-.4-.13-.47l-.47-.07h-1.8a2.51,2.51,0,0,1-.73-.07,1.19,1.19,0,0,1-.67-.27,1,1,0,0,1-.4-.6,2.23,2.23,0,0,1-.2-1v-6a2.22,2.22,0,0,1,.6-1.67,2.31,2.31,0,0,1,1.74-.67h4.88l.6,3.27h-4a.35.35,0,0,0-.4.4V452c0,.13,0,.27.13.33a.56.56,0,0,0,.4.13h2.2a1.81,1.81,0,0,1,1.27.4,1.7,1.7,0,0,1,.47,1.4v5.81a3,3,0,0,1-.6,2.07,3,3,0,0,1-2.14.6Z" transform="translate(-385.13 -411.68)"/><path class="a" d="M522.09,456a.56.56,0,0,0-.13-.4.85.85,0,0,0-.4-.07H520v4.14h1.74a.51.51,0,0,0,.33-.13c0-.07.07-.13.07-.27ZM520,448.23v4.61h1.67a.35.35,0,0,0,.27-.13.51.51,0,0,0,.13-.33v-3.81c0-.27-.07-.33-.27-.33Zm5.41,3.88a2.2,2.2,0,0,1-.27,1.14,1.49,1.49,0,0,1-.94.67,1.45,1.45,0,0,1,1.07.47,2,2,0,0,1,.33,1.07V460a3,3,0,0,1-.6,2.07,2.74,2.74,0,0,1-2.14.67h-6.41V445.09h6.88a1.92,1.92,0,0,1,1.54.6,2.44,2.44,0,0,1,.53,1.6Z" transform="translate(-385.13 -411.68)"/><path class="a" d="M538.26,457.72h1.67l-.8-6.21Zm-.4,2.81-.27,2.2H534l3.21-17.64H541l3.21,17.64h-3.54l-.27-2.2Z" transform="translate(-385.13 -411.68)"/><polygon class="a" points="167.76 33.47 171.1 33.47 172.91 40.49 172.91 33.47 176.51 33.47 176.51 51.04 172.91 51.04 171.04 43.7 171.04 51.04 167.76 51.04 167.76 33.47"/><polygon class="a" points="185.74 33.47 192.55 33.47 193.15 36.75 189.34 36.75 189.34 40.89 192.28 40.89 192.28 43.9 189.34 43.9 189.34 47.7 193.02 47.7 192.42 50.98 185.74 50.98 185.74 33.47"/><path class="b" d="M431.29,511.1a1.52,1.52,0,0,1-.2.87,2.12,2.12,0,0,1-.94.33c-2.27.33-3.41.53-5.68.87V500.34c2.07-.27,3.07-.33,5.14-.53a1.64,1.64,0,0,1,1.2.2c.33.2.47.53.47,1.14C431.36,505.08,431.36,507.09,431.29,511.1Zm-.07-32.47v11.56a1.32,1.32,0,0,1-.4,1.07,2.26,2.26,0,0,1-1,.4c-2.14.13-3.21.2-5.28.4v-14.3c2.27-.07,3.41-.07,5.68-.13a.89.89,0,0,1,1,1Zm6.95,15.63a5.84,5.84,0,0,0,3.07-2.2,6.86,6.86,0,0,0,.8-3.34c.07-5.68.07-8.49.07-14.16a6.05,6.05,0,0,0-1.67-4.54,6.7,6.7,0,0,0-5-1.74H405.77l7.55,10.49v46.1c6.81-1.4,13.56-2.67,20.38-3.81,3.27-.53,5.55-1.47,6.88-2.87a9.55,9.55,0,0,0,1.94-6.41c.07-5.34.07-8,.07-13.36a4.44,4.44,0,0,0-1.07-2.94,3.91,3.91,0,0,0-3.34-1.2Z" transform="translate(-385.13 -411.68)"/><path class="b" d="M466.84,468.27h-4.68l2.87,4c0,11.76-.07,23.45-.13,35.08a1.52,1.52,0,0,1-.2.87c-.13.2-.4.27-.87.33l-4,.33c-.47.07-.73,0-.87-.2a1.16,1.16,0,0,1-.2-.8c.07-13.16.07-26.39.13-39.62H444.45l2.87,4.08c-.07,13-.07,25.92-.13,38.88,0,2.81.6,4.74,1.94,5.81s3.54,1.34,6.81.94c4.68-.53,7-.8,11.63-1.2,3.34-.33,5.61-1.07,6.88-2.34s2-3.14,2-5.81q0-20.14.13-40.35h-9.75Z" transform="translate(-385.13 -411.68)"/><path class="b" d="M498.5,506.09c-1.67.07-3.41.13-5.61.2,0-12.09.07-24.12.07-36.21v-1.8h-14.5l2.87,4v1.87q-.1,20.74-.13,41.49c7-.47,16-.73,23.12-.87Z" transform="translate(-385.13 -411.68)"/><path class="b" d="M524.63,514.57c2.2.07,4.34.07,6.35.13v-8.62c-4.61-.13-6.88-.13-11.42-.2,0-12.49,0-25.05-.07-37.61H504.92l2.94,4.08v31Z" transform="translate(-385.13 -411.68)"/><path class="b" d="M568.39,501.41l11.56,7.68c0-9.89-.07-19.71-.13-29.6v-1.87c3.07.07,4.61.13,7.62.2v-9.55H560.71v9c3.07.07,4.54.07,7.62.13C568.39,485.38,568.39,493.39,568.39,501.41Z" transform="translate(-385.13 -411.68)"/><path class="b" d="M534.52,514.91c4,.13,8.75.4,13.36.73.13-.07.27-.07.33-.13a52,52,0,0,1,8.89-3.14l-3.54-5.21c-2.34-.2-4.41-.27-7.42-.47V496.4c3.74.13,5.61.27,9.35.4v-8.22l-9.42-.33V477.09c4.94,0,7.42.07,12.29.13v-9H531.44l2.94,4C534.45,486.51,534.45,500.68,534.52,514.91Z" transform="translate(-385.13 -411.68)"/><path class="b" d="M602.8,478.36c5.14.13,7.68.27,12.83.47l5.61-10.56H598.05c-2.67,0-4.61.67-5.81,1.8a6.82,6.82,0,0,0-1.8,4.94v1.67c0,5.34,0,10.69.07,16a7,7,0,0,0,.53,3.14,4.87,4.87,0,0,0,3.41,2.94,13.14,13.14,0,0,0,2.34.4c2.34.27,3.47.33,5.88.6a3.66,3.66,0,0,1,1.6.4c.33.2.47.67.47,1.4,0,3.94,0,5.95.07,10h0c0,.73-.47,1-1.34.87-4.88-.67-7.28-1-12.16-1.6l-3,3.88,2.47,1.67a47.72,47.72,0,0,1,8.55,5.48c2.27.4,4.41.8,6.21,1.07.53.13,1.07.2,1.67.33,3.21.6,5.48.47,6.68-.6s1.94-3.14,1.94-6.28V497.67c0-2.14-.47-3.67-1.47-4.61a6.75,6.75,0,0,0-4.14-1.67c-2.81-.2-4.21-.33-7.08-.53a1.81,1.81,0,0,1-1.27-.4,1.22,1.22,0,0,1-.47-1.14V479.5C601.39,478.69,601.86,478.29,602.8,478.36Z" transform="translate(-385.13 -411.68)"/><path class="c" d="M619,487.58l14.1-26.39H584.82V448.36L590.3,438H455.61l-24.19-14,10.89,13.43-28.39-15,26.79,38.68H391.81L406.17,481v52.58l8.55-1.74c6.68-1.4,13.43-2.67,20.11-3.74,0,0,31.4-4.28,46.77-5.41.53,0,1.14-.07,1.67-.07l44.16,63.74a34,34,0,0,0,2.07,3,48.59,48.59,0,0,0,22.11,16.44,47.93,47.93,0,0,0,17,3.07,48.95,48.95,0,0,0,44.5-69.35,49.75,49.75,0,0,0-5.48-9.09,20.54,20.54,0,0,0,2.81.2,12.18,12.18,0,0,0,8-2.61c3-2.47,4.48-6.35,4.48-11.69V497.74c0-4.14-1.2-7.42-3.54-9.75A1.13,1.13,0,0,0,619,487.58Z" transform="translate(-385.13 -411.68)"/><path class="a" d="M455.54,456c0-.2,0-.33-.13-.4s-.2-.07-.4-.07h-1.6v4.14h1.8a.35.35,0,0,0,.27-.13c.07-.07.07-.13.07-.27Zm-2.14-7.75v4.61h1.67a.46.46,0,0,0,.47-.45s0,0,0,0v-3.81c0-.27-.13-.33-.33-.33Zm5.48,3.88a2.2,2.2,0,0,1-.27,1.14,1.49,1.49,0,0,1-.94.67,1.45,1.45,0,0,1,1.07.47,2,2,0,0,1,.33,1.07V460a3,3,0,0,1-.6,2.07,2.74,2.74,0,0,1-2.14.67h-6.41V445.09h6.88a1.92,1.92,0,0,1,1.54.6,2.44,2.44,0,0,1,.53,1.6Z" transform="translate(-385.13 -411.68)"/><path class="a" d="M471.78,448.23v6h1.74a.32.32,0,0,0,.33-.33v-5.34a.32.32,0,0,0-.3-.33h-1.78Zm5.55,7.35a1.59,1.59,0,0,1-1.6,1.54l1.87,5.61h-3.67l-1.67-5.61h-.47v5.61h-3.54V445.09h6.68a2.06,2.06,0,0,1,1.8.67,2.22,2.22,0,0,1,.6,1.67Z" transform="translate(-385.13 -411.68)"/><rect class="a" x="101.49" y="33.47" width="3.47" height="17.57"/><path class="a" d="M500.17,462.73l-.6-3.27h3.74a.35.35,0,0,0,.4-.4v-3.14c0-.27,0-.4-.13-.47l-.47-.07h-1.8a2.51,2.51,0,0,1-.73-.07,1.19,1.19,0,0,1-.67-.27,1,1,0,0,1-.4-.6,2.23,2.23,0,0,1-.2-1v-6a2.22,2.22,0,0,1,.6-1.67,2.31,2.31,0,0,1,1.74-.67h4.88l.6,3.27h-4a.35.35,0,0,0-.4.4V452c0,.13,0,.27.13.33a.56.56,0,0,0,.4.13h2.2a1.81,1.81,0,0,1,1.27.4,1.7,1.7,0,0,1,.47,1.4v5.81a3,3,0,0,1-.6,2.07,3,3,0,0,1-2.14.6Z" transform="translate(-385.13 -411.68)"/><path class="a" d="M522.09,456a.56.56,0,0,0-.13-.4.85.85,0,0,0-.4-.07H520v4.14h1.74a.51.51,0,0,0,.33-.13c0-.07.07-.13.07-.27ZM520,448.23v4.61h1.67a.35.35,0,0,0,.27-.13.51.51,0,0,0,.13-.33v-3.81c0-.27-.07-.33-.27-.33Zm5.41,3.88a2.2,2.2,0,0,1-.27,1.14,1.49,1.49,0,0,1-.94.67,1.45,1.45,0,0,1,1.07.47,2,2,0,0,1,.33,1.07V460a3,3,0,0,1-.6,2.07,2.74,2.74,0,0,1-2.14.67h-6.41V445.09h6.88a1.92,1.92,0,0,1,1.54.6,2.44,2.44,0,0,1,.53,1.6Z" transform="translate(-385.13 -411.68)"/><path class="a" d="M538.26,457.72h1.67l-.8-6.21Zm-.4,2.81-.27,2.2H534l3.21-17.64H541l3.21,17.64h-3.54l-.27-2.2Z" transform="translate(-385.13 -411.68)"/><polygon class="a" points="167.76 33.47 171.1 33.47 172.91 40.49 172.91 33.47 176.51 33.47 176.51 51.04 172.91 51.04 171.04 43.7 171.04 51.04 167.76 51.04 167.76 33.47"/><polygon class="a" points="185.74 33.47 192.55 33.47 193.15 36.75 189.34 36.75 189.34 40.89 192.28 40.89 192.28 43.9 189.34 43.9 189.34 47.7 193.02 47.7 192.42 50.98 185.74 50.98 185.74 33.47"/><path class="a" d="M516.41,537.56l-11.63-15.7h-.33c-1.67,0-3.61.07-5.61.13Z" transform="translate(-385.13 -411.68)"/><polygon class="a" points="57.66 40.55 57.66 32.54 46.3 25.59 57.66 40.55"/><path class="a" d="M604.67,573.3a30.66,30.66,0,0,1-1.87,4.28c-10,3.14-24.59.07-38.15-6.08a91.16,91.16,0,0,1-21.11-13.16,52.94,52.94,0,0,1,2.07-5l.2-.27c10.56,6.41,21.25,3,31.74-.33a91.56,91.56,0,0,1,11.63-3.14,63.86,63.86,0,0,1,9.89-.87,38.52,38.52,0,0,1,6.48.53A38.14,38.14,0,0,1,604.67,573.3Zm-20,21.58a38.69,38.69,0,0,1-19.31,3.34,107.57,107.57,0,0,1-10-14.23c-4.28-6.68-8-12.63-14-16.57q.3-2.1.8-4.21a97.3,97.3,0,0,0,20.58,12.56c12.43,5.68,25.92,8.82,36.55,7.35A38.36,38.36,0,0,1,584.69,594.88Zm-51-18.91a40.28,40.28,0,0,1-2.47-7.08,20.23,20.23,0,0,1,2.07.13,12.9,12.9,0,0,1,3.14.87,48.87,48.87,0,0,0,.67,12.09,43.77,43.77,0,0,1-3.41-6Zm17.64,10.56c2.14,3.34,4.34,6.88,7,10.42a27.44,27.44,0,0,1-3.07-1,37.6,37.6,0,0,1-11-6.21A43.17,43.17,0,0,1,541,573c4,3.41,7.08,8.22,10.36,13.56Zm-20.24-34.81a63.87,63.87,0,0,0,7.08,8.08c-.47,1.74-.87,3.54-1.2,5.34a14.14,14.14,0,0,0-3-.73,15.58,15.58,0,0,0-3.54-.13,37.9,37.9,0,0,1,.67-12.56Zm10.89-1.6-.6,1.2c-.6,1.2-1.07,2.41-1.54,3.54a35,35,0,0,1-6.88-9.15,36.8,36.8,0,0,1,4.14-7.68,17.3,17.3,0,0,0,.47,4.21,16.19,16.19,0,0,0,4.41,7.88Zm26.92-28.6c-11,7-19.11,15.37-24.59,24.32a12.12,12.12,0,0,1-2.2-4.68,19.21,19.21,0,0,1,.73-9.69,39.12,39.12,0,0,1,9.75-6.41,37.69,37.69,0,0,1,16.3-3.54Zm34.81,22.72c-1.54-.13-3.07-.2-4.68-.2a66.75,66.75,0,0,0-10.69.94,94.85,94.85,0,0,0-12.23,3.27c-9.55,3-19.24,6.08-28.13.6,5.88-9.89,15.43-19.11,28.6-26.52a41.48,41.48,0,0,1,5.41,1.6,38.31,38.31,0,0,1,21.58,20Zm-12-20.71h.2l-36.55-22.25,13.3,15.57a43.82,43.82,0,0,0-18,3.94,43,43,0,0,0-13.23,9.49l-31.74-21.18L531.58,538a42.29,42.29,0,0,0-3.34,7,41.18,41.18,0,0,0-2.67,15.1l-22.52-23,29.26,46a43.11,43.11,0,1,0,59.4-59.6Z" transform="translate(-385.13 -411.68)"/><path class="b" d="M424.48,500.34c2.07-.27,3.07-.33,5.14-.53a1.64,1.64,0,0,1,1.2.2c.33.2.47.53.47,1.14v10a1.13,1.13,0,0,1-.27.87,1.82,1.82,0,0,1-.94.33c-2.27.33-3.41.53-5.61.87Zm6.75-20v9.82a1.32,1.32,0,0,1-.4,1.07,2.26,2.26,0,0,1-1,.4c-2.14.13-3.21.2-5.28.4v-14.3c2.27-.07,3.41-.07,5.68-.13q1-.1,1,1Zm9.29,37.82c1.34-1.4,2-3.54,2-6.35V498.47a4.48,4.48,0,0,0-1-2.94,3,3,0,0,0-1-.8,5,5,0,0,0-2.41-.47,5,5,0,0,0,3.07-2.2,6.08,6.08,0,0,0,.87-3.34V474.55a6.15,6.15,0,0,0-1.67-4.54,6.7,6.7,0,0,0-5-1.74H405.7l7.55,10.49v46.17c6.81-1.4,13.56-2.67,20.38-3.81C437,520.59,439.24,519.58,440.51,518.18Z" transform="translate(-385.13 -411.68)"/><path class="b" d="M467.44,468.27h-5.28l2.87,4v1.87c0,11.09-.07,22.18-.13,33.27a1.43,1.43,0,0,1-.2.8,1,1,0,0,1-.87.33c-1.6.13-2.41.2-4,.4a1.25,1.25,0,0,1-.87-.2,1,1,0,0,1-.2-.67V508c.07-12.63.07-25.19.13-37.82v-1.8H444.45l2.87,4v1.87c0,12.36-.07,24.72-.13,37.08v.53c.07,2.54.73,4.28,1.94,5.28s3.61,1.34,6.88.94c4.61-.53,6.95-.8,11.63-1.2,3.27-.33,5.61-1.07,6.88-2.34s1.94-3.14,1.94-5.81c.07-12.83.13-25.66.13-38.55v-1.8C472.92,468.27,470.64,468.27,467.44,468.27Z" transform="translate(-385.13 -411.68)"/><path class="b" d="M499.71,507.89l-1.2-1.8c-1.74.07-3.41.13-5.61.2,0-12.09.07-24.12.07-36.21v-1.8h-14.5l2.87,4v1.87q-.1,20.74-.13,41.49c7-.47,16-.73,23.12-.87Z" transform="translate(-385.13 -411.68)"/><path class="b" d="M519.48,468.27H504.92l2.94,4.08v31l16.77,11.22c2.2.07,4.34.07,6.35.13v-8.62c-4.61-.13-6.88-.13-11.42-.2C519.48,493.39,519.48,480.83,519.48,468.27Z" transform="translate(-385.13 -411.68)"/><path class="b" d="M587.43,477.89v-9.62H560.77v9c3,.07,4.54.07,7.55.13.07,8,.07,16,.13,24l6.48,4.28,5.08,3.41c0-9.89-.07-19.71-.13-29.6v-1.87C582.89,477.76,584.42,477.76,587.43,477.89Z" transform="translate(-385.13 -411.68)"/><path class="b" d="M536.12,468.27h-4.61l2.94,4.08c0,14.16.07,28.39.07,42.56,4,.2,8.75.47,13.43.8a.51.51,0,0,1,.27-.13.07.07,0,0,0,.07-.06h0a49.84,49.84,0,0,1,8.89-3.07l-3.61-5.28c-2.34-.2-4.41-.27-7.42-.47V496.4c3.74.13,5.61.27,9.35.4v-8.22l-9.42-.33V477.09c4.94,0,7.42.07,12.29.13v-9Z" transform="translate(-385.13 -411.68)"/><path class="b" d="M601.39,479.5c0-.8.47-1.2,1.4-1.14,5.14.13,7.68.27,12.83.47l5.61-10.56H598.05c-2.67,0-4.61.67-5.81,1.8a6.82,6.82,0,0,0-1.8,4.94v1.67c0,5.34,0,10.69.07,16a7,7,0,0,0,.53,3.14,4.87,4.87,0,0,0,3.41,2.94,13.15,13.15,0,0,0,2.34.4c2.34.27,3.47.33,5.88.6a3.66,3.66,0,0,1,1.6.4c.33.2.47.67.47,1.4,0,3.94,0,5.95.07,10h0c0,.73-.47,1-1.34.87-4.88-.67-7.28-1-12.16-1.6l-3,3.88,2.47,1.67a14.14,14.14,0,0,0,1.4.73.92.92,0,0,1,.27.2c.4.2.8.47,1.2.67.07.07.13.07.13.13a34.47,34.47,0,0,1,5.48,3.74c2.27.4,4.48.8,6.21,1.07.53.13,1.07.2,1.74.33,3.21.6,5.41.47,6.68-.6s1.87-3.14,1.87-6.28V497.74c0-2.14-.47-3.74-1.4-4.68a6.35,6.35,0,0,0-4.14-1.6c-2.87-.27-4.28-.33-7.08-.53a3.16,3.16,0,0,1-1.34-.4,1.47,1.47,0,0,1-.4-1.14c0-3.34,0-5.21-.07-8.08A16.28,16.28,0,0,0,601.39,479.5Z" transform="translate(-385.13 -411.68)"/></svg>