<svg xmlns="http://www.w3.org/2000/svg" viewBox="0 0 222.94 222.94"><defs><style>.a{fill:#f47c30;}.b{fill:#fff;}</style></defs><title>National Basketball League logo - Brandlogos.net</title><path d="M511.95,623.47a111.47,111.47,0,1,0-78.83-32.71A111.47,111.47,0,0,0,511.95,623.47Z" transform="translate(-400.53 -400.53)"/><path class="a" d="M511.95,587.47c-38,0-71.3-15.41-88.95-38.35a96.34,96.34,0,0,0,177.77,0c-17.65,22.94-50.83,38.35-88.95,38.35Z" transform="translate(-400.53 -400.53)"/><path class="a" d="M423,474.87c17.65-22.82,50.83-38.36,88.95-38.36s71.18,15.53,88.83,38.36a96.34,96.34,0,0,0-177.77,0Z" transform="translate(-400.53 -400.53)"/><path class="b" d="M613.84,512.05a101.95,101.95,0,1,0-102,101.89h.12A102,102,0,0,0,613.84,512.05ZM423,549.11c17.65,22.82,50.83,38.35,88.95,38.35s71.18-15.53,88.83-38.35a96.34,96.34,0,0,1-177.77,0Zm177.77-74.24c-17.65-22.82-50.83-38.36-88.83-38.36S440.65,452,423,474.87a96.34,96.34,0,0,1,177.77,0Zm7.29,33.41H564v5.76h44.12c-1.53,37.53-44,67.65-96.12,67.65s-94.71-30.12-96.24-67.53h32.71v-5.88H415.71c2.59-36.59,44.83-66,96.24-66s93.42,29.3,96.12,66Z" transform="translate(-400.53 -400.53)"/><polygon class="b" points="67.18 107.29 67.18 150.11 52.83 150.11 52.83 70.81 69.42 70.81 79.18 113.76 79.18 70.81 94.01 70.81 94.01 150.11 76.83 150.11 67.18 107.29"/><path class="b" d="M537.48,536.05c0,10.59-4.47,14.59-13.65,14.59H500.3v-79.3h23.53c9.18,0,13.65,4,13.65,14.59v8.94c0,9.18-2.71,13.29-8.94,14.47,6.24.94,8.94,5.18,8.94,14.24Zm-16.12-50.12a2.54,2.54,0,0,0-.59-2,2.46,2.46,0,0,0-1.88-.94h-2.71v20.47h2.59a2.84,2.84,0,0,0,2-.82,3.19,3.19,0,0,0,.71-2Zm0,32.24a2.63,2.63,0,0,0-.71-2,2.78,2.78,0,0,0-1.88-.82h-2.59v23.53h2.71a2.78,2.78,0,0,0,1.88-.82,2.54,2.54,0,0,0,.59-2Z" transform="translate(-400.53 -400.53)"/><polygon class="b" points="142.36 70.81 158.24 70.81 158.24 137.76 169.89 137.76 169.89 150.11 142.36 150.11 142.36 70.81"/></svg>