<?xml version="1.0" encoding="utf-8"?>
<!-- Generator: Adobe Illustrator 19.0.0, SVG Export Plug-In . SVG Version: 6.00 Build 0)  -->
<svg version="1.1" id="Layer_1" xmlns="http://www.w3.org/2000/svg" xmlns:xlink="http://www.w3.org/1999/xlink" x="0px" y="0px"
	 viewBox="0 0 500 500" style="enable-background:new 0 0 500 500;" xml:space="preserve">
<style type="text/css">
	.st0{clip-path:url(#XMLID_17_);fill:#ED1D24;}
	.st1{clip-path:url(#XMLID_17_);}
	.st2{clip-path:url(#XMLID_17_);fill:#FFFFFF;}
	.st3{clip-path:url(#XMLID_18_);fill:#ED1D24;}
	.st4{clip-path:url(#XMLID_22_);}
	.st5{clip-path:url(#XMLID_22_);fill:#FFFFFF;}
	.st6{fill:url(#XMLID_23_);}
	.st7{clip-path:url(#XMLID_24_);fill:#FBAD32;}
	.st8{clip-path:url(#XMLID_24_);}
	.st9{clip-path:url(#XMLID_24_);fill:#FFFFFF;}
	.st10{clip-path:url(#XMLID_24_);fill:#808285;}
</style>
<g id="XMLID_1_">
	<g id="XMLID_30_">
		<defs>
			<polygon id="XMLID_29_" points="67.5,451.6 432.5,451.6 432.5,48.4 67.5,48.4 67.5,451.6 			"/>
		</defs>
		<clipPath id="XMLID_17_">
			<use xlink:href="#XMLID_29_"  style="overflow:visible;"/>
		</clipPath>
		<path id="XMLID_34_" class="st0" d="M239.3,395.7c0,5.6-3.6,8.8-7.2,9.4l0.1-34.9c4.9-0.6,7.2,1.1,7.2,6.2
			C239.4,379.2,239.5,387.9,239.3,395.7 M198.1,410.5l0.1-51l14.6,11.2l0.1,37.5L198.1,410.5z M417.5,374.1
			c-0.1-6.4-3-11.7-9.7-16.8l-8.4-6.5c-2-1.4-5.4-3.6-5.9-4.9c0-0.5-0.2-1.2,1.3-1.4l15-2.4l0-16.9c0,0-11.2,1.8-16.8,2.7
			c-5.3,0.9-10.2,1.7-14.1,3.4v-1.2l-46.4,7.3v16.9l14.8-2.3l0.2,48l-30.3-67L289.5,396l-7.7,1.2c-4.9,0.6-7.4-1.2-7.4-6.3
			c0-2.8-0.1-11.4,0.1-19.2c0.1-5.6,3.6-8.7,6.6-9.3l0.1-0.1l14.2,10.8l0.1-29.9l-16.5,2.6c-10.2,1.6-19.1,7.7-22.6,17.5
			c-4.6-9.1-15-11.6-26.6-9.7l-31.6,5v0l-35,5.5l0,0l-30.5,4.8l-4.9,17.1l-5.4-15.5l-13.7,2.2l-5,17.1l-5.1-15.5l-31.1,4.9
			l17.1,13.2l19.2,59.2l12.8-44.2l14.2,39.9l17.6-69.1l2.9,2.3l0.2,54.7l19-3.1l0.1-62.3l8.2,6.3l0.2,54.7l33.8-5.4v0.1l21.2-3.4
			c12-1.9,19.2-8.3,22.5-16.9c4.9,12.1,18,10.4,25.3,9.3l22.2-3.5l6.3-14.4l13.1-2.1l5.6,12.5l18.2-2.9v0l18.9-3l0.1-52.3l4.4-0.7
			c1,5,3.9,7.7,8.1,11.5l9.5,7.3c4.3,3.4,7.4,4.4,7.5,8.8c0,2.7-3.1,4.1-6.8,4.7l-14.1,2.2l0,17.2c11.9-1.9,16.7-2.6,20-3.2
			C404.4,395.1,418.1,390.6,417.5,374.1"/>
		<path id="XMLID_37_" class="st1" d="M243.3,395.8c0,7.1-5.5,12.2-11.7,13.2l-3.5,0.6l0-42.6l2.8-0.4c7.3-1.1,12.5,1.6,12.5,9.9
			C243.4,380.5,243.2,387.4,243.3,395.8 M254.8,374.6c0-15.1-9.8-19.7-24.1-17.4l-23.9,3.8l10.1,7.8l-0.1,52.2l17.2-2.7
			c13.1-2.1,20.8-12.4,20.8-25.3C254.8,386,254.8,379.3,254.8,374.6"/>
		<polygon id="XMLID_38_" class="st1" points="87.4,389.2 103.8,438.8 103.7,438.9 116.4,396.4 130.2,434.7 130.3,434.6 
			146.4,371.5 155.5,378.4 155.5,430.7 166.9,428.8 166.9,367.3 135.7,372.2 128.2,398.5 119.9,374.7 111.7,376 103.9,402.4 
			96.1,378.5 77.4,381.4 		"/>
		<polygon id="XMLID_39_" class="st1" points="182.9,374 182.9,426.3 212.9,421.6 213,412 194.3,414.9 194.4,362.9 172.9,366.3 		
			"/>
		<path id="XMLID_40_" class="st1" d="M282.9,358.2l9,6.9l0-17.7l-12.3,2c-10.6,1.7-20.4,8.9-20.8,25.1c0.1,10.7,0.1,9.5,0.2,17.8
			c-0.3,21.1,14.9,19.6,22.5,18.4l19.7-3.1l6.3-14.4l18.9-3l5.6,12.5l11.3-1.8l-26.1-57.7l-24.6,56.1l-9.8,1.5
			c-7.3,1.1-12.5-1.6-12.5-10c0-4,0.2-11,0.1-19.4c0-7.1,5.5-12.3,11.7-13.2L282.9,358.2"/>
		<polygon id="XMLID_41_" class="st0" points="322.4,381.3 311.9,383 317.4,370.4 		"/>
		<polygon id="XMLID_42_" class="st0" points="322.4,381.3 322.4,381.3 311.9,383 317.4,370.4 322.4,381.4 322.4,381.3 322.4,381.3 
			322.4,381.3 322.4,381.3 317.4,370.4 311.9,383 322.4,381.4 322.4,381.3 		"/>
		<path id="XMLID_43_" class="st1" d="M378.9,395.3l0-9.5l11.9-1.9c3.5-0.5,9.2-2.9,9.2-8.9c-0.2-5-3.2-6.9-9.6-11.9l-9.5-7.3
			c-5.2-4.1-6.5-8-6.5-11.6v-0.4l-11.9,1.9l0.1,52.2l-11.3,1.8l-0.1-52.2l-14.9,2.4l0-9.3l38.8-6.2v5.4c2.6-6.5,11.5-7.2,18.5-8.3
			l12.4-2l0,9.4l-11.8,1.9c-3.6,0.4-5,2.7-4.5,6c0.6,3,2.3,3.6,5.5,6.2l10.7,8.2c5.5,4.3,7.6,7.9,7.7,13.5
			c0.3,12.7-9.3,16.8-18.9,18.3C391.3,393.3,383.8,394.5,378.9,395.3"/>
		<path id="XMLID_44_" class="st2" d="M201.1,216.7c31.3-13.6,53.1-29.1,90.9-28c0.2,4.6,2.2,8.6,2.2,8.6
			C260.4,191.1,236.2,208.4,201.1,216.7"/>
		<path id="XMLID_45_" class="st2" d="M215.5,235.8c41.5-17,61.3-36.6,103-36.6c0,0,16.3,1.1,30.5-3.5c0,0,0.2,19.7-19.6,31.8
			c0,0,7.7-10.5,8.5-22c0,0-6,1.1-14.5,1.4c1.1,13.2-6.6,20.8-6.6,20.8C314.6,188,263.6,222.8,215.5,235.8"/>
		<path id="XMLID_46_" class="st2" d="M315.7,229.7c0,0-10,15.7-24,21.7l4.1,5.8l30.3-4.5c0,0,8.2-13.7,2.6-23.1
			c0,0-1,10.1-6.8,16.3l-13.1,1.6C308.8,247.5,314.3,240.7,315.7,229.7"/>
		<path id="XMLID_49_" class="st1" d="M201,216.7c31.4-13.6,53.3-29.1,91.3-28c0.2,4.6,2.2,8.6,2.2,8.6
			C260.6,191.1,236.3,208.4,201,216.7 M359.6,172.6c0,0-1.3-2.9-3.1-4.2c-2.3-1.9-6.1-3.4-12.4-3.2h0l-0.1,0c0.3,0,2.3,5,2.4,7.6
			c0.1,5-2.9,10.3-10.5,14.7c0,0-4.8-19.4-34.2-16.3c0,0,26-11.4,38.9,4c0,0,5.3-3.2,3.3-10.5c-1.4-2.6-5.8-6.3-10.4-6.3
			c0,0,0.2-32.2-59.7-21.7c-56.4,12.4-78,19-97.7,18.3c0,0,3.3,3.1,9,6.2c4.5,2.4,10.6,4.8,17.8,5.7l0,0.1l0.1,0
			c0,0-5.9,10.5-7.7,24.5l-0.1,0c-2.4,18.1,2,42,34.6,56.4c17.2,8.4,48.6,0.1,60.8,30.1c8-1,33.7-5.6,33.7-5.6l0,0.1
			c2.3-0.4,3.7-0.6,3.7-0.6c7.3-10.1,8.5-25,8.5-25l-5.3-10.6c-0.2,9.6-4.6,16.5-4.6,16.5l-30.5,4.4l-4-5.8
			c12.5-4.6,24.1-21.7,24.1-21.7c-0.8,9.6-7,17.9-7,17.9l13.2-1.7c6.1-6.3,6.9-17.8,6.9-17.8s7.9-9.5,9.2-22.8c0,0-6,1.1-14.6,1.5
			c0.6,14-6.7,20.8-6.7,20.8c-2.1-40.5-53.9-4.3-101.7,8c36.9-13.7,59.5-36.9,103.4-36.6c0,0,18.6,0.8,30.2-3.5
			c0,0,0.4,8.1-5.8,18.4c12-9.6,18.2-18.7,18.2-32.3C361.4,180.5,361.4,176.4,359.6,172.6"/>
		<polygon id="XMLID_50_" class="st0" points="415.7,323.6 410.6,324.4 410.6,325.1 412.7,324.8 412.7,330.6 413.6,330.5 
			413.6,324.7 415.7,324.3 		"/>
		<polygon id="XMLID_51_" class="st0" points="415.7,323.6 415.7,323.6 410.6,324.4 410.6,324.4 410.6,325.1 410.6,325.1 
			412.7,324.8 412.7,330.6 412.7,330.6 413.6,330.5 413.6,330.5 413.6,324.7 415.7,324.3 415.7,324.3 415.7,323.6 415.7,323.6 
			415.7,323.6 415.7,323.6 415.7,324.3 413.6,324.7 413.5,324.7 413.5,330.5 412.7,330.6 412.7,324.8 412.7,324.8 410.6,325.1 
			410.6,324.4 415.7,323.6 415.7,323.6 415.7,323.6 		"/>
		<polygon id="XMLID_52_" class="st0" points="416.4,330.1 417.2,330 417.1,324.2 417.1,324.2 419.1,329.7 419.9,329.6 422,323.5 
			422,323.5 421.9,329.3 422.7,329.1 422.7,322.6 421.5,322.7 419.5,328.7 419.5,328.7 417.5,323.3 416.4,323.5 		"/>
	</g>
	<g id="XMLID_54_">
		<defs>
			<rect id="XMLID_53_" x="67.5" y="48.4" width="355.2" height="403.2"/>
		</defs>
		<clipPath id="XMLID_18_">
			<use xlink:href="#XMLID_53_"  style="overflow:visible;"/>
		</clipPath>
		<polygon id="XMLID_55_" class="st3" points="416.4,330.1 416.4,330.1 417.2,330 417.2,330 417.1,324.2 417.1,324.2 419.1,329.7 
			419.1,329.7 419.9,329.6 419.9,329.6 422,323.5 422,323.5 421.9,329.3 421.9,329.3 422.7,329.1 422.7,329.1 422.7,322.6 
			422.7,322.6 421.5,322.7 421.5,322.7 419.5,328.7 419.5,328.7 417.5,323.3 417.5,323.3 416.4,323.5 416.4,323.5 416.4,330.1 
			416.4,330.1 416.4,330.1 416.4,330.1 416.4,323.5 417.5,323.3 419.5,328.7 419.5,328.7 419.5,328.7 419.5,328.7 421.5,322.7 
			422.7,322.6 422.7,329.1 421.9,329.2 422,323.5 422,323.5 422,323.5 419.9,329.5 419.1,329.7 417.1,324.2 417.1,324.2 
			417.1,324.2 417.1,324.2 417.2,330 416.4,330.1 416.4,330.1 416.4,330.1 		"/>
	</g>
	<g id="XMLID_57_">
		<defs>
			<polygon id="XMLID_56_" points="67.5,451.6 432.5,451.6 432.5,48.4 67.5,48.4 67.5,451.6 			"/>
		</defs>
		<clipPath id="XMLID_22_">
			<use xlink:href="#XMLID_56_"  style="overflow:visible;"/>
		</clipPath>
		<path id="XMLID_58_" class="st4" d="M360.3,174.4c0.6,2.1,1.1,4.6,1.1,7.3c4.6-1.8,23.8-8,57.6-4.1
			C419,177.6,392.4,166.4,360.3,174.4"/>
		<path id="XMLID_59_" class="st4" d="M361.2,186.1c-0.3,2.5-0.8,5.2-1.9,7.9c6.4-1.1,31.6-5,49.1,1
			C408.4,195,393,184.6,361.2,186.1"/>
		<path id="XMLID_60_" class="st5" d="M199.1,192.1c34.5-11.3,47-17.5,67.6-18c-0.2-6.1,3.8-8.1,3.8-8.1c4.9-0.9,7.9,0.2,7.9,0.2
			c-1.6,4.7,1.2,7.9,1.2,7.9c3.6-6.7,5.9-6.4,5.9-6.4c6.1,1.6,9.2,5.5,9.2,5.5c-3,4.5-2.8,11.1-2.8,11.1
			C258,175,230.1,186.8,199.1,192.1"/>
	</g>
	
		<linearGradient id="XMLID_23_" gradientUnits="userSpaceOnUse" x1="-5.3931" y1="-4.3544" x2="-4.1953" y2="-4.3544" gradientTransform="matrix(0 -265.4504 265.4504 0 1406.6327 -1065.2369)">
		<stop  offset="0" style="stop-color:#FDB813"/>
		<stop  offset="1" style="stop-color:#ED1C24"/>
	</linearGradient>
	<path id="XMLID_62_" class="st6" d="M212.2,145c-5.8,1-10.7,1.9-16.5,2.8l-0.2,0c-0.1,0-0.3,0-0.4,0c-0.2,0-0.4,0-0.6,0.1
		c-0.5,0-0.9,0.1-1.4,0.1h0c-0.4,0-0.7,0.1-1.1,0.1l-0.2,0c-8.5,0.7-15.4,0.9-18.5,0.9h-0.6h0c-0.8,0-1.2,0-1.2,0l-0.1,0
		c-0.4,0-0.8-0.1-1.2-0.1h0c-6.2,0-1.7,6.3-1.7,6.3c7.9,10.5,26.5,15.7,26.5,15.7l-96.7,17.5h0c0.6,0.2,23,6.5,55.4,6.5h0h0
		c12.2,0,25.9-0.9,40.3-3.4l0.1,0l0.1,0l0.2,0l0.2,0c0.2,0,0.4-0.1,0.6-0.1c1.9-14,7.7-24.5,7.7-24.5c-16.3-2.1-26.9-12-26.9-12
		c1,0,2,0.1,3.1,0.1h0h0.1c16.8,0,36.3-5.2,78-14.6c0.2-0.1,0.5-0.1,0.7-0.2v0h0l0.2,0c0.7-0.2,1.4-0.3,2.1-0.5l0.1,0
		c0.6-0.1,1.2-0.3,1.8-0.4l0.2,0l0.2-0.1c0.2,0,0.4-0.1,0.7-0.1c0.4-0.1,0.9-0.2,1.3-0.3l0.1,0c0.1,0,0.2,0,0.3-0.1l0.3-0.1
		c0.3-0.1,0.5-0.1,0.8-0.2l0,0c0.9-0.2,1.9-0.4,2.9-0.6l0.1,0c0.1,0,0.3-0.1,0.4-0.1c0.2,0,0.4-0.1,0.6-0.1l0.2,0
		c0.1,0,0.2,0,0.3-0.1l0,0c0.1,0,0.2,0,0.3-0.1l0.2,0l0.2,0l0.2-0.1c0.1,0,0.3-0.1,0.4-0.1c0.6-0.1,1.1-0.2,1.7-0.4
		c0.2,0,0.5-0.1,0.7-0.1c8.1-1.4,15.1-2,21.1-2h0c37.7,0,37.8,23.5,37.8,23.8c4.9,0,9.7,4.3,10.7,6.9c0.4,0,0.7,0,1.1,0h0
		c10.1,0,13.3,4.6,14.4,7.3l0,0l0,0l0,0l43.7-39.4l-68.1,12.4c-2.2-6.3-12.8-17.1-38.8-17.1h0h0c-7,0-15.1,0.8-24.5,2.6
		c-0.2,0-0.3,0.1-0.5,0.1l-32-82.9L212.2,145L212.2,145z M175.5,275.7l-25.9,90.6l96.2-88.1l100.5,52.9l-22.1-58.8
		c0,0-25.9,4.6-33.7,5.6c-12.2-30.1-43.7-21.7-60.9-30.1c-0.4-0.2-0.7-0.3-1-0.5C204,270.3,175.5,275.7,175.5,275.7"/>
	<g id="XMLID_65_">
		<defs>
			<polygon id="XMLID_64_" points="67.5,451.6 432.5,451.6 432.5,48.4 67.5,48.4 67.5,451.6 			"/>
		</defs>
		<clipPath id="XMLID_24_">
			<use xlink:href="#XMLID_64_"  style="overflow:visible;"/>
		</clipPath>
		<path id="XMLID_66_" class="st7" d="M292.8,177.2c0.4-1.4,1-2.9,1.9-4.1c0,0-3.1-3.8-9.2-5.5c0,0-2.3-0.3-5.9,6.4
			c0,0-2.7-3.1-1.1-7.8c0,0-3.1-1.1-8-0.2c0,0-4.1,2-3.8,8.1l-0.3,0c0.1,0,0.2,0.1,0.4,0C282.2,173,290.6,176.2,292.8,177.2"/>
		<path id="XMLID_67_" class="st8" d="M344.2,165.2c0,0,5.9-0.4,10,1.7c4.1,2.1,5.2,4.8,6.1,7.4c0.2,0.7-0.9,0.4-0.9,0.4l-13.8-7.9
			L344.2,165.2"/>
		<path id="XMLID_70_" class="st8" d="M200.9,331.7l3.3-0.5c3.1-0.5,4,0.5,4,2.4c0,1.9-0.9,3.2-4,3.7l-3.3,0.5V331.7z M200.9,349.9
			v-8.7l3.8-0.6c4.7-0.7,7.6-3.1,7.6-7.6c0-4.5-3-6-7.6-5.2l-7.9,1.2v21.5L200.9,349.9z"/>
		<polygon id="XMLID_71_" class="st8" points="231.5,345 231.5,341.6 221,343.2 221,337.2 228.4,336 228.4,332.6 221,333.7 
			221,328.6 231.2,327 231.2,323.5 216.9,325.8 216.9,347.3 		"/>
		<path id="XMLID_74_" class="st8" d="M240.6,325.4l3.8-0.6c2.3-0.4,3.5,0.5,3.5,2.5c0,2-1,3.2-4.2,3.7l-3,0.5V325.4z M240.6,343.6
			v-8.8l3.6-0.6l4.1,8.1l4.6-0.7l-4.7-8.9c2.6-1.2,4-3.5,3.9-6.2c0-3.5-2-6.1-6.9-5.3l-8.6,1.4v21.5L240.6,343.6z"/>
		<polygon id="XMLID_75_" class="st8" points="255.6,319.6 255.6,323.1 261.2,322.2 261.2,340.3 265.3,339.7 265.3,321.6 271,320.7 
			271,317.2 		"/>
		<polygon id="XMLID_76_" class="st8" points="279.7,337.4 279.7,328.1 288,326.8 288,336.1 292.1,335.4 292.1,313.9 288,314.5 
			288,323.1 279.7,324.5 279.7,315.9 275.6,316.5 275.6,338 		"/>
		<path id="XMLID_77_" class="st9" d="M301.7,171.2c0,0,27.3-4,34.2,16.3c0,0,17-7.6,7.9-22.9c0,0,2.1,6-3.3,10.5
			C340.6,175.1,330.4,160,301.7,171.2"/>
		<path id="XMLID_78_" class="st10" d="M195.3,208.2l0,0.2c0.4,2.9,1.1,5.7,2.1,8.3l0.1,0C196.4,213.8,195.7,211,195.3,208.2"/>
		<path id="XMLID_79_" class="st8" d="M189.9,209.1c-0.6-4.3-0.7-8.6-0.4-12.8c-33.8,5.6-69.7,4.1-108.7-4.7l43.3,22.9
			c0,0,29.9,8.3,67.8,3C191,214.9,190.3,212.1,189.9,209.1"/>
		<path id="XMLID_80_" class="st8" d="M193.4,221.3c-13,2.5-28.9,4.2-52.3,2c0,0,33,17.3,32.9,17.3c11.4,0.8,23-0.9,30.7-3.2
			C200.4,233,196.2,227.7,193.4,221.3"/>
		<path id="XMLID_81_" class="st8" d="M207.3,239.8c-6.4,3-11.9,4.8-23.3,6l-6.1,21.5c18.1-4,34.6-13.1,42.6-18.1
			C217.3,247.5,212.3,244.4,207.3,239.8"/>
		<polygon id="XMLID_82_" class="st8" points="330.6,415 337.5,413.9 337.7,415.3 332.4,416.2 332.9,419.8 338.1,419 338.3,420.4 
			333.2,421.2 333.9,426.1 339.2,425.3 339.5,426.7 332.6,427.8 		"/>
		<path id="XMLID_83_" class="st8" d="M345.7,415.1c-0.6-0.7-1.3-1-2.3-0.9c-1,0.2-2,1-1.9,2.2c0.2,1,1.2,1.4,2.1,1.6l1,0.2
			c1.9,0.4,3.5,1.2,3.8,3.4c0.4,2.3-1.2,4.3-3.5,4.6c-2.1,0.3-3.9-1-4.5-3l1.6-0.6c0.2,1.4,1.5,2.3,2.9,2c1.4-0.2,2.2-1.5,2-2.9
			c-0.2-1.4-1.4-1.8-2.6-2.1l-0.9-0.2c-1.6-0.4-3-1-3.3-2.8c-0.3-2.1,1.3-3.6,3.3-3.9c1.4-0.2,2.7,0.3,3.6,1.4L345.7,415.1z"/>
		<polygon id="XMLID_84_" class="st8" points="354.4,424.4 352.8,424.7 351.1,413.3 348,413.7 347.8,412.3 355.5,411.1 355.7,412.5 
			352.7,413 		"/>
		<polygon id="XMLID_85_" class="st8" points="359.5,410.7 357.9,415.6 356.9,415.4 358,410.4 		"/>
		<path id="XMLID_88_" class="st8" d="M365.1,421.3l0.6-0.1c3.3-0.5,5.9-2.2,5.3-5.9c-0.6-3.7-3.6-4.5-6.9-4l-0.6,0.1L365.1,421.3z
			 M361.7,410.1l2.7-0.4c3.9-0.6,7.5,1,8.2,5.2c0.7,4.4-2.2,7-6.3,7.6l-2.6,0.4L361.7,410.1z"/>
		<polygon id="XMLID_89_" class="st8" points="379.6,408.8 380.2,407.2 383.1,406.8 385.1,419.6 383.6,419.9 381.8,408.5 		"/>
		<path id="XMLID_92_" class="st8" d="M393.6,409.1c-0.2-1.4-1.6-2.5-3-2.3c-1.5,0.2-2.6,1.7-2.4,3.1c0.2,1.5,1.8,2.5,3.1,2.3
			C393,412,393.9,410.5,393.6,409.1 M389.6,418.4l2.7-5.2l0,0c-0.3,0.2-0.8,0.4-1.2,0.4c-2.1,0.3-4-1.3-4.3-3.4
			c-0.4-2.3,1.3-4.5,3.6-4.9c2.2-0.3,4.6,1.2,4.9,3.4c0.2,1.3-0.3,2.5-0.9,3.6l-3.5,6.6L389.6,418.4z"/>
		<path id="XMLID_96_" class="st8" d="M398.5,407.8c0.2,1,1.4,2,2.5,1.8c1.1-0.2,2-1.5,1.8-2.5c-0.2-1.2-1.4-2.1-2.5-1.9
			S398.3,406.6,398.5,407.8 M399.1,413.8c0.2,1.3,1.6,2.2,2.9,2c1.3-0.2,2.3-1.5,2.1-2.8c-0.2-1.4-1.6-2.2-2.9-2
			C399.9,411.2,398.9,412.4,399.1,413.8 M399.1,410.6c-1.1-0.4-1.9-1.4-2.1-2.6c-0.3-2.1,1.1-3.8,3.1-4.2c2-0.3,3.9,0.9,4.2,3
			c0.2,1.3-0.3,2.4-1.2,3.1c1.4,0.3,2.3,1.4,2.5,2.8c0.4,2.4-1.2,4.1-3.4,4.5c-2.2,0.3-4.2-0.8-4.6-3.2
			C397.3,412.7,397.9,411.3,399.1,410.6"/>
		<path id="XMLID_97_" class="st8" d="M416.1,413.3l0.2,1.5l-8.3,1.3l4.6-7.8c0.4-0.7,0.9-1.6,0.8-2.5c-0.2-1.3-1.6-2.3-2.9-2.1
			c-1.3,0.2-2.2,1.4-2.1,2.7l-1.6,0.2c-0.1-2.3,1.1-4.1,3.5-4.4c2.2-0.3,4.3,1,4.7,3.2c0.1,1-0.1,2-0.5,2.8l-3.4,5.8L416.1,413.3z"
			/>
	</g>
</g>
</svg>
