<?xml version="1.0" encoding="utf-8"?>
<!-- Generator: Adobe Illustrator 19.0.0, SVG Export Plug-In . SVG Version: 6.00 Build 0)  -->
<svg version="1.1" id="Layer_1" xmlns="http://www.w3.org/2000/svg" xmlns:xlink="http://www.w3.org/1999/xlink" x="0px" y="0px"
	 viewBox="0 0 500 500" style="enable-background:new 0 0 500 500;" xml:space="preserve">
<style type="text/css">
	.st0{fill:#5B4099;}
	.st1{fill:#FFC528;}
	.st2{fill:#FFFFFF;}
</style>
<g id="XMLID_1_">
	<path id="XMLID_3_" class="st0" d="M348.4,253.2c127.7-9.5,103.7-130.2-29.4-23.4c-1.2-15.1-0.7-21.6,1.9-44.5
		c-19.1,2.9-39.7,15.1-57.6,33.3c-7.8-36.3-1.8-57.3-1.1-61.6c-15.7,3.7-56.1,17.8-77.3,73l-5.1,2.2c-23.1-12.4-46.7-14.1-71.8-8.5
		c13.9,17.8,28.7,45.7,29,65.4l-67.4,3.2l61.8,5.8l-23.4,5.7l23.8,6.3L79,314.2l54.1,5.6l-26.5,7.1l23.4,6.1l-62.5,5.6l75.8,3.4
		l1.5-11.6l-11.7-4.1l17.3-1.9l2.3-16.5l-16.3-3.7l13.1-2.9c2.9-20-3.4-41-19.5-67.9c17.5-0.1,34.8,4.6,49.8,13.6l20-7.5
		c0,0,19-46,44.8-61c0,24.3,2.7,45.5,5.4,52.7l16.7,9.2c0,0,12.2-17.8,36.5-31.1c0,0-1,23.1,2.4,33.3l17,8.5c0,0,39.8-55.2,89.1-56
		C442.3,194.4,410,243.6,348.4,253.2z"/>
	<polygon id="XMLID_4_" class="st0" points="339.8,263 339.2,267.5 340.9,267.5 339.6,278.7 337.7,278.6 337.1,283.1 346.1,283.2 
		346.7,278.7 344.8,278.6 345.5,273.7 350.8,283.2 357.2,283.2 359.3,267.5 361.1,267.5 361.6,263 352.9,263 352.4,267.5 
		354.2,267.5 353.6,272.5 348.7,263 	"/>
	<path id="XMLID_5_" class="st0" d="M275.9,276.8l0.1-1.2h-3.8l-0.9,7.5h3.7l0.2-0.9c0.7,0.6,1.3,1.2,4.2,1.1
		c2.9-0.1,9.2-1.3,9.6-7.9c0.2-4.4-3.6-5.1-4-5.4c-0.4-0.2-5-0.8-5-2.4c0-0.8,1-1.3,2.2-1.2c1.2,0.1,2.9,1.1,2.9,2.3l-0.1,0.6h3.6
		l0.9-6.7h-3.7l-0.1,0.7c-1.3-0.8-2.8-1.1-4.4-1.1c-0.9,0-4.3,0.2-6.2,2.6c-1.3,1.5-2.1,3.5-2,5.5c0,1.2,0.5,3.6,3.7,4.8
		c3.2,1.2,5,1.1,4.9,2.4c-0.1,1.3-1.2,1.5-2.3,1.5C278.3,278.9,276.5,278.4,275.9,276.8z"/>
	<polygon id="XMLID_6_" class="st0" points="176.3,342.1 177.7,330.1 173.8,330.1 175.3,317.7 184,330.1 180.3,330.1 178.9,342.1 
		208.2,342.1 209.7,330.1 207.1,330.1 193.5,312.4 207.3,300.5 211.6,300.6 213.1,288.8 185.6,288.8 184.1,300.5 189.4,300.7 
		176.2,311.2 177.5,300.5 181.5,300.5 183,288.8 154.9,288.8 153.5,300.5 157.9,300.6 154.1,330.1 149.8,330.1 148.2,342 	"/>
	<polygon id="XMLID_7_" class="st0" points="221.8,300.5 218,330.1 213.1,330.2 211.6,342 240.5,342.1 242,330.2 237.6,330.1 
		241.3,300.5 245.8,300.6 247.3,288.8 218.4,288.8 216.9,300.5 	"/>
	<polygon id="XMLID_8_" class="st0" points="252,288.8 250.5,300.5 255,300.5 251.3,330.1 246.7,330.1 245.2,342 268.2,342 
		269.6,330.1 264.7,330.1 266.4,316.8 279.9,342.1 296.5,342.1 301.8,300.5 306.4,300.5 308,288.8 285.6,288.8 284.1,300.5 
		288.8,300.5 287.2,313.7 274.8,288.9 	"/>
	<path id="XMLID_9_" class="st0" d="M358.8,288.6l-2.6,20.8h-12.4c0.6-7-3-9.8-6.3-10c-3.3-0.2-9.2,5.3-10.9,14.8
		c-1.6,9.3-1.9,16.6,4.5,16.6c6.5,0,7.4-5.4,7.4-5.4h-5.3l1.5-11.8h23.4c-0.6,13.5-6.2,28.7-29,29.4c-16.5,0.6-25.4-11.5-24.5-22.5
		c0.8-11,6.3-33.2,30.3-32.7c8.1,0.2,11.5,3.9,11.5,3.9l0.3-3L358.8,288.6z"/>
	<path id="XMLID_10_" class="st0" d="M370,325.7l0.3-3.1h-9.8l-2.4,19.7l9.8-0.1l0.2-2.4c2.1,1.5,3.5,3.2,11,3.1
		c7.5-0.2,23.8-3.4,24.6-20.7c0.5-11.3-9.2-13.2-10.4-13.8c-0.9-0.4-13.1-2.3-13.1-6c0-2.3,2.6-3.2,5.8-3.2c3.2,0.1,7.5,2.9,7.5,5.8
		l-0.2,1.5h9.4L405,289h-9.4l-0.2,1.8c-3.5-2-7.4-3-11.4-2.8c-2.4,0-11.1,0.6-16,6.7c-4.8,6.2-5.2,11.4-5.2,14.4
		c0.1,3,1.4,9.2,9.3,12.2c8,3.1,13.1,2.7,12.8,6.1c-0.2,3.4-3.2,3.9-6,3.9C376.5,331.4,371.7,330,370,325.7z"/>
	<polygon id="XMLID_11_" class="st0" points="365.1,267.7 364.2,278.5 361.8,278.5 361.5,283.2 381.3,283.2 381.8,275.1 
		376.6,275.1 376.2,278.7 372.2,278.7 372.4,275.8 375.7,275.8 376.2,270.5 373.1,270.5 373.4,267.7 377.4,267.7 377.2,271 
		382.5,271 383.2,263 363.5,263 363.2,267.8 	"/>
	<path id="XMLID_14_" class="st0" d="M325.4,267.7l-0.8,10.7c2,0,4.2-1.5,4.5-5.6C329.3,268.7,328,267.7,325.4,267.7z M327.7,263
		c7.9,0,9.7,7.4,9.7,9.2c-0.5,8.3-7.8,11-11.8,11H314l0.3-4.8h2.4l0.8-10.7h-1.9l0.2-4.8H327.7z"/>
	<polygon id="XMLID_15_" class="st0" points="313.4,267.8 313.8,263 305,263 304.7,267.8 305.8,267.7 303.5,270.4 301.9,267.8 
		303.2,267.8 303.5,263 291.7,263 291.5,267.8 292.4,267.8 297.5,275.1 297.3,278.5 294.9,278.5 294.5,283.2 307.4,283.2 
		307.7,278.5 305.5,278.5 305.8,275.1 312.1,267.7 	"/>
	<polygon id="XMLID_16_" class="st0" points="407.4,267.8 407.7,263 398.9,263 398.5,267.8 399.7,267.7 397.5,270.4 395.9,267.8 
		397.1,267.8 397.4,263 385.6,263 385.3,267.8 386.4,267.8 391.5,275.1 391.2,278.5 388.7,278.5 388.4,283.2 401.3,283.2 
		401.5,278.5 399.4,278.5 399.7,275.1 406.1,267.7 	"/>
	<path id="XMLID_17_" class="st0" d="M267.7,246.5l-7.4,5.2l-0.9-6.1l-8.7,5.9l-5.4-6.5l-5.8,4.4l-6.5-8l-7.7,8.6l-7.7-4.9l-4.1,5.9
		l-6.7-5.8l-1.1,6.9l-6.9-4.6l8.3,30.7c9.9,8.3,33.9,11.1,51.3-0.2L267.7,246.5z"/>
	<path id="XMLID_23_" class="st1" d="M254,275.4c-5.6,2.7-11.7,4.3-17.8,4.8l1.9-18l3.5,4.9l1.1-0.7l-1.9,11.4l1.9-0.3l2.4-12.7
		l4.1-3.2l4.5,5.8l4.7-4.9L254,275.4z M234.4,280.2c-2.9,0.1-5.8,0-8.7-0.3l6.7-1.5l0.6-23l0.2-0.2l2.7,3.8L234.4,280.2z
		 M211.6,275.1l-3.3-12.3l4.3,4.2l2,7.9l1.5,0.6l-2.2-9.5l1.8-2.6l2.4,12.7l4.1,3C218.4,278.5,214.8,277.1,211.6,275.1L211.6,275.1z
		 M224.5,267.3l3-4.2l-0.2,14.9c0,0-3.3-0.3-5.6-0.8l-2-14.3L224.5,267.3z M253.5,263.8l-4.1-5.6l-7.4,5.6l-8.8-12.5l-9.1,12.7
		l-7.1-6.6l-4.5,6.6l-8-7.9l5.6,20.7c11.7,8.3,33.3,7.7,46-0.2l5.9-21.7L253.5,263.8z"/>
	<path id="XMLID_24_" class="st0" d="M404.3,200.5c0,16.9-13.8,30.6-30.7,30.6c-16.9,0-30.6-13.8-30.6-30.7
		c0-16.9,13.8-30.6,30.7-30.6h0C390.6,169.9,404.3,183.6,404.3,200.5L404.3,200.5z"/>
	<path id="XMLID_25_" class="st1" d="M346.4,195.3c-0.3,1.7-0.4,3.5-0.5,5.2c0,3,0.5,6,1.5,8.9c3.6-3.1,7.5-5.8,11.6-8.3
		C355.8,197,351.2,194.5,346.4,195.3z"/>
	<path id="XMLID_26_" class="st1" d="M388.6,176.7c-2.9,3.7-4.3,8.3-3.8,13v0.2c4.5-1.3,9-2.1,13.6-2.7
		C396.1,182.9,392.7,179.3,388.6,176.7z"/>
	<path id="XMLID_27_" class="st1" d="M359.7,176.4c-5.9,3.5-10.3,9-12.4,15.5c2.8-0.2,5.6,0.4,8,1.8c2.6,1.4,4.8,3.4,6.4,5.8
		c2.2-1.2,4.5-2.4,6.9-3.5L359.7,176.4z"/>
	<path id="XMLID_28_" class="st1" d="M380.9,191.1c-0.1-0.5-0.2-0.9-0.2-1.4c-0.6-5.3,0.9-10.6,4.1-14.9c-3.5-1.4-7.2-2.2-11-2.2
		c-4,0-7.9,0.9-11.5,2.6l8.9,19.8C374.3,193.4,377.6,192.1,380.9,191.1z"/>
	<path id="XMLID_29_" class="st2" d="M349.2,201.1c0.4-1.9,0.9-3.7,1.6-5.5c-0.4-0.1-0.9-0.2-1.3-0.2
		C349.3,197.2,349.2,199.2,349.2,201.1z"/>
	<path id="XMLID_30_" class="st2" d="M390.8,184.6c-1.4-1.5-3-2.9-4.6-4.1c-0.2,0.6-0.4,1.1-0.6,1.5
		C387.4,182.8,389.2,183.6,390.8,184.6z"/>
	<path id="XMLID_31_" class="st2" d="M362.4,182.7l-1.8-3.8c-5.2,2.7-9,7.5-10.5,13.2c0.7,0.1,1.4,0.3,2,0.5
		C354.4,188.2,358,184.8,362.4,182.7z"/>
	<path id="XMLID_32_" class="st2" d="M381.7,181c0.2-0.8,0.5-1.6,0.9-2.4c-6-2.8-12.9-3.1-19.1-0.9l1.8,4
		C370.5,179.9,376.2,179.7,381.7,181z"/>
	<path id="XMLID_33_" class="st2" d="M349.2,201.1c0.4-1.9,0.9-3.7,1.6-5.5c-0.4-0.1-0.9-0.2-1.3-0.2
		C349.3,197.2,349.2,199.2,349.2,201.1z"/>
	<path id="XMLID_34_" class="st2" d="M390.8,184.6c-1.4-1.5-3-2.9-4.6-4.1c-0.2,0.6-0.4,1.1-0.6,1.5
		C387.4,182.8,389.2,183.6,390.8,184.6z"/>
	<path id="XMLID_35_" class="st2" d="M362.4,182.7l-1.8-3.8c-5.2,2.7-9,7.5-10.5,13.2c0.7,0.1,1.4,0.3,2,0.5
		C354.4,188.2,358,184.8,362.4,182.7z"/>
	<path id="XMLID_36_" class="st2" d="M381.7,181c0.2-0.8,0.5-1.6,0.9-2.4c-6-2.8-12.9-3.1-19.1-0.9l1.8,4
		C370.5,179.9,376.2,179.7,381.7,181z"/>
	<path id="XMLID_37_" class="st1" d="M381.4,224.7c-4.7,1.6-9.8,1.9-14.6,0.7c-0.2-0.1-0.4-0.1-0.6-0.2c1.8-2.9,2.9-6.1,3.1-9.5
		c2.5-0.4,4.9-1,7.3-1.7l-6.7-14.8c-2.2,1.1-4.3,2.2-6.4,3.3c1.6,3.1,2.5,6.5,2.7,10.1c0.2,4.8-1.2,9.5-4.1,13.4
		c6.4,2.9,13.7,3.3,20.4,1.1L381.4,224.7z"/>
	<path id="XMLID_38_" class="st1" d="M362.8,216.1c0.1-1.1,0.1-2.3,0.1-3.4c-0.1-3-0.8-5.9-2.2-8.5c-4.2,2.6-8.2,5.5-11.9,8.8
		c2.3,4.7,6,8.7,10.5,11.4c0.4-0.6,0.8-1.1,1.2-1.8c-4-2.5-7.6-5.5-10.9-8.9C353.8,215.2,358.3,216.1,362.8,216.1z"/>
	<path id="XMLID_41_" class="st1" d="M397.9,204.3c-1.4-0.7-2.6-1.6-3.7-2.7c1.4-2.2,2.3-4.8,2.4-7.5
		C397.5,197.5,398,200.9,397.9,204.3z M399.7,189.9c-4.8,0.6-9.6,1.7-14.3,3.2c2.1,7.5,8.2,13.4,15.4,14.8
		C402.5,201.9,402.1,195.6,399.7,189.9L399.7,189.9z"/>
	<path id="XMLID_42_" class="st1" d="M385.6,223c-0.9-1.9-2.8-6.2-4.8-10.5c3.3-1.4,6.4-3.4,9.1-5.8c-3.9-3.2-6.8-7.5-8.2-12.3
		c-2.9,1-5.9,2.2-8.9,3.5l-0.2,0.1l12.7,28.1c6.4-2.9,11.6-8,14.4-14.5c-1-0.2-1.9-0.5-2.8-0.9C394.8,216,390.8,220.4,385.6,223z"/>
</g>
</svg>
