<svg xmlns="http://www.w3.org/2000/svg" viewBox="0 0 378.11 284.8"><title>Houston Rockets logo</title><path d="M642.75,455a142.45,142.45,0,0,0-210.4-60.9,144.66,144.66,0,0,0-50.8,60.9c-48.4,12.7-58.6,28.5-58.6,39.6l.1,60.3c.7,10.2,11.3,29,74.9,42.2a146.09,146.09,0,0,0,48.5,41.3,142.48,142.48,0,0,0,131.2,0,145.11,145.11,0,0,0,48.5-41.3c63.6-13.2,74.2-32.1,74.9-42.3V494.6C701.35,483.6,691.15,467.7,642.75,455Z" transform="translate(-322.95 -369.6)" style="fill:#fff"/><path d="M639.35,458.9a137.78,137.78,0,0,0-254.2,0c-35.3,9-57.3,21.7-57.3,35.8v60c0-12.7,17.8-23.2,47-31.9,5.4,71.1,65,127.2,137.5,127.2s132-56.2,137.5-127.2c29.2,8.7,47,19.2,47,31.9v-60C696.75,480.6,674.75,467.9,639.35,458.9Z" transform="translate(-322.95 -369.6)" style="fill:#9ea2a2"/><path d="M696.55,553c0-.2-.1-.4-.1-.7a2.35,2.35,0,0,0-.2-.8c0-.1-.1-.3-.1-.4l-.3-.9c0-.1-.1-.2-.1-.3-.1-.4-.3-.7-.4-1.1v-.1c-1.9-4.3-5.9-8.2-11.6-11.9-9.2,6.1-23.1,11.8-40,16.3h0a139.17,139.17,0,0,1-8.4,20.8h0a138.48,138.48,0,0,1-11.6,18.9h0c43.5-8.8,71.9-22.7,72.9-38.4a4.87,4.87,0,0,0-.1-1.2C696.65,553.3,696.65,553.2,696.55,553Z" transform="translate(-322.95 -369.6)" style="fill:#707271"/><path d="M327.95,553c0-.2.1-.4.1-.7a2.35,2.35,0,0,1,.2-.8c0-.1.1-.3.1-.4l.3-.9c0-.1.1-.2.1-.3.1-.4.3-.7.4-1.1v-.1c1.9-4.3,5.9-8.2,11.6-11.9,9.2,6.1,23.1,11.8,40,16.3h0a139.17,139.17,0,0,0,8.4,20.8h0a138.49,138.49,0,0,0,11.6,18.9h0c-43.5-8.6-71.9-22.5-72.9-38.2a4.87,4.87,0,0,1,.1-1.2C327.85,553.3,327.95,553.2,327.95,553Z" transform="translate(-322.95 -369.6)" style="fill:#707271"/><circle cx="189.3" cy="142.5" r="130.7" style="fill:#373a36"/><path d="M679.25,480.3c-8.7-5.5-21.8-10.6-38-15-2.5-.7-5.1-1.4-7.7-1.9a130.7,130.7,0,0,0-242.5,0c-2.6.6-5.2,1.3-7.7,1.9-16.1,4.4-29.3,9.5-38,15-5.4,3.4-11.8,8.7-11.8,14.4v41.1c9.8-7.9,25.5-14.8,46.9-20.5l1.3-.3a130.65,130.65,0,0,0,130.6,127.8c71.2,0,129.2-56.9,130.6-127.8l1.3.3c21.4,5.7,37.1,12.6,46.9,20.5V494.7C691,488.9,684.65,483.7,679.25,480.3ZM595.15,430a1.53,1.53,0,0,1,2.5-.5,119,119,0,0,1,21.5,30.6l-3.3-.6A142.84,142.84,0,0,0,592,438,48.93,48.93,0,0,1,595.15,430Zm-30.4-24.4a118.87,118.87,0,0,1,22.4,14.4,4,4,0,0,1,1.1,4.9,60.69,60.69,0,0,0-3.5,8.3,143.42,143.42,0,0,0-19.8-10.4c-1-4.9-2-9.9-3.3-14.7A2.17,2.17,0,0,1,564.75,405.6Zm-35.2-11.1a126.8,126.8,0,0,1,17.5,3.9,6.68,6.68,0,0,1,4.4,4.4c1.6,5.3,3.1,10.7,4.3,16.2a138.93,138.93,0,0,0-21.3-5.6,69.44,69.44,0,0,0-3.4-9c-1.1-2.3-2.3-4.5-3.6-6.8C526.45,396.3,527.75,394.3,529.55,394.5ZM631,512.1a117.83,117.83,0,0,1-15.2,58.1,1,1,0,0,1-1.8-.7v-.1a116.46,116.46,0,0,0-2.7-61.2c-.6-1.7-1.2-3.5-1.7-5.1a2.29,2.29,0,0,0-1.8-1.5l-5.3-.9a1.65,1.65,0,0,0-1.8,2.3c.5,1.3,1,2.4,1.5,3.7a108.3,108.3,0,0,1,3.9,60.8l-.9,3.6a62.87,62.87,0,0,1-35.9,41.8,121.61,121.61,0,0,1-48.6,10.3,130,130,0,0,1-21.8-1.8,3.52,3.52,0,0,1-1.6-6.2c4.2-3.5,8.1-7.2,12-11,2.8-2.8,5.4-5.6,8-8.5a6.72,6.72,0,0,0,1.6-4.5l-.2-7.2a1.12,1.12,0,0,0-2-.7,201.85,201.85,0,0,1-30.5,30.1,10.45,10.45,0,0,1-10.1,1.5,121.29,121.29,0,0,1-42.2-28,10,10,0,0,1-2.7-9.3,122.86,122.86,0,0,1,17.1-40.7,1.91,1.91,0,0,0-1.1-2.9c-1.5-.5-3-1-4.4-1.5a1.9,1.9,0,0,0-2.2.7,132.65,132.65,0,0,0-15.6,34,3.51,3.51,0,0,1-6.3,1,119.18,119.18,0,0,1-19.8-57.2c-.3-3.3-.4-6.6-.4-9.9V500a62.79,62.79,0,0,1,16-41.4,55,55,0,0,1,5.4-5.4,133.28,133.28,0,0,1,62.9-31c.7-2.9,1.5-5.8,2.4-9a142,142,0,0,0-63,27.3,1.78,1.78,0,0,1-2.5-2.5,118.35,118.35,0,0,1,94.1-44.7h0a59.86,59.86,0,0,1,9.9,14.8c.6,1.4,1.2,2.7,1.7,4.1a148.86,148.86,0,0,0-16.4-1c-2.6,0-5.2.1-7.7.2a71.83,71.83,0,0,1,2,8.3c1.9-.1,3.8-.1,5.7-.1a131.72,131.72,0,0,1,19,1.4,60,60,0,0,1,1.1,7.4,1.83,1.83,0,0,0,1.3,1.5,36.87,36.87,0,0,1,7.3,2.7,67.67,67.67,0,0,0-.8-10.1,135.24,135.24,0,0,1,21.1,6.3,199.58,199.58,0,0,1,2.2,20.6,2.46,2.46,0,0,0,1.9,2.2l5,.8a1.34,1.34,0,0,0,1.5-1.4c-.3-6.2-.9-12.3-1.6-18.4a132.14,132.14,0,0,1,16,9.1,58.17,58.17,0,0,0-1,10.9,2.31,2.31,0,0,0,1.1,2,3.7,3.7,0,0,0,1.1.5l5.1.9a1.19,1.19,0,0,0,1.1-.4,1.45,1.45,0,0,0,.2-.7,48.26,48.26,0,0,1,.2-7.6,124.57,124.57,0,0,1,11.7,10.1,133,133,0,0,1,27.8,38.2c.3,5.3.7,10.8.7,16.5Z" transform="translate(-322.95 -369.6)" style="fill:#061922"/><path d="M539.45,504.7l.2-18.8c0-8.8-9.2-10.3-16-10.2,4.5-1.5,10.1-4.1,13.9-8.3a19.67,19.67,0,0,0,6.6-16.8c-.9-12.8-16.8-19.1-43.2-16.5-.4,0-.9.1-1.3.1a143.69,143.69,0,0,0-6.1-27l-1.4,1.3a187.34,187.34,0,0,0-6.9,27.6,196.78,196.78,0,0,0-26.8,6.4l-1.3,1.3s12.8-1.2,27.3-1c-1.6,16.5,0,32.2,0,61.9-23.5-.7-44.1,3.3-49.1,9.5-1.6,1.4-2.5,2.9-2.5,4.4.3,7.2,21.7,13.8,51.6,16.3l1.3,40.8,1.3-1.3,2.1-27.6a3.73,3.73,0,0,1,.2-1.2c.7.1,1.3.9,1.3,2.3l1,36.4L493,583l2.2-29.6a6.27,6.27,0,0,1,.2-1.6c.7.1,1.3,1.1,1.2,2.7l1.1,38,1.3-1.3,1.8-55.2c3.5.1,7,.2,10.5.2,3.8,0,7.5-.1,11.2-.2l1.8,57.6,1.3-1.3,1.5-30.2a6.05,6.05,0,0,1,.2-1.5c.6.1,1.2,1.1,1.2,2.6l1.5,42.2,1.3-1.3,1.5-36.2a5.9,5.9,0,0,1,.2-1.4c.8,0,1.5.9,1.5,2.6l1.3,48.4,1.3-1.4,1.9-81c25.6-2.2,45.1-7.4,50-13.3,1.6-1.4,2.4-2.7,2.4-4.2-.3-8.2-24.1-14.3-52-12.9m-55,21.6c-20.6-2-34.4-6.2-34.4-11.4a2,2,0,0,1,.3-1.1c4.8-3.4,19.6-5.5,34.4-7.7,0,5.8-.1,12.1-.3,19Zm41.8-70.8a15.89,15.89,0,0,1-3.9,13.5c-5.4,4.8-13.7,7.1-20.6,8.1.1-11,0-22.3-1-33.5,13.2,1.4,24.6,4.8,25.5,11.9m-3.8,72c-3.2.1-6.5.2-9.9.2-4,0-7.8-.1-11.6-.2l.2-4.6c-.4-11.9.4-26.8.6-42.6,9.7,1.2,21.3,3.9,21.1,10.6Zm51.1-9.2c-4.8,3.8-17.5,6.7-34.3,8.2l.2-20.2c19.2,2.5,34.9,5.3,34.9,10a3.67,3.67,0,0,1-.8,2" transform="translate(-322.95 -369.6)" style="fill:#9ea2a2"/><path d="M591.55,517.3c-.4-7.9-24.1-14-52-12.7l.2-18.8c0-11.6-16-10.5-21.4-9.8,6.3-1.2,27.3-6.4,25.9-25.5-.9-12.8-16.8-19.1-43.2-16.5-.4,0-.9.1-1.3.1a143.69,143.69,0,0,0-6.1-27,170.58,170.58,0,0,0-7,28.7,198.59,198.59,0,0,0-27.9,6.6s12.8-1.2,27.3-1c-1.6,16.7.1,32.7,0,63.2-27.7-1-51.9,4.4-51.6,12.7.3,7.2,21.6,13.8,51.6,16.3l1.3,40.8,2.1-27.6c.1-3.4,2.7-3.1,2.7-.2l1,36.4,2.2-29.6c0-4,2.8-3.8,2.7-.2l1.1,38,1.8-56.6c3.9.1,7.8.2,11.8.2,3.8,0,7.5-.1,11.2-.2l1.8,57.6,1.5-30.2c0-3.9,2.6-3.7,2.6-.2l1.5,42.2,1.5-36.5c.1-3.6,3-3.4,3.1,0l1.3,48.4,1.9-82.2v.2c30.3-2.8,52.4-9.4,52.4-16.6m-64-63c2.1,16-14.1,21.2-25.8,22.9a343.05,343.05,0,0,0-1.2-35c13.9,1.3,26,4.6,27,12.1m-77.6,60.6c0-4.8,18-7.4,36-10.2,0,5.8-.1,12.1-.3,19l.1,2.6c-21.3-1.7-35.8-6-35.8-11.4m51,12.5.2-4.6c-.4-12.2.4-27.6.7-44.1,9.9,1,22.5,3.7,22.3,10.7l-.4,38c-3.6.1-7.3.2-11.2.2s-7.8,0-11.6-.2m38.3-.9.3-21.7c19.8,2.5,36.2,5.4,36.2,10.2-.2,5.3-15,9.6-36.5,11.5" transform="translate(-322.95 -369.6)" style="fill:#ce1141"/><path d="M374.35,476.9c-2.5.9-4.9,1.6-7.3,2.5a4.72,4.72,0,0,0-2.9,4v25.4a2,2,0,0,0,2.9,1.9c2.4-.9,4.9-1.7,7.3-2.5a4.58,4.58,0,0,0,2.9-3.9V478.9C377.15,477.2,375.95,476.3,374.35,476.9Zm-1.9,27.1c-1.2.4-2.4.9-3.6,1.3V483.7c1.2-.4,2.4-.9,3.6-1.3Zm76.3-44.9-7.6,1.2a3.73,3.73,0,0,0-3,3.5v25.4a2.45,2.45,0,0,0,3,2.4c2.5-.4,5.1-.9,7.6-1.2a3.54,3.54,0,0,0,3-3.4V461.6A2.55,2.55,0,0,0,448.75,459.1Zm-1.9,26.7-3.8.6V464.8l3.8-.6Zm-55.5-14.2c1.6-.5,3.2-1,4.8-1.4v28.3a4.44,4.44,0,0,1-2.9,3.8c-2.5.7-5,1.5-7.4,2.2a2.09,2.09,0,0,1-2.9-2V474.2l4.8-1.5v26.4c1.3-.4,2.4-.7,3.7-1.1C391.35,489.2,391.35,480.4,391.35,471.6Zm-37.5,12.7c1.5-.6,3.1-1.3,4.7-1.8v31.3c-1.5.6-3.2,1.2-4.7,1.8V502.4c-1.1.4-2.2.9-3.3,1.3v13.2c-1.5.6-3.1,1.3-4.6,1.9V487.5c1.5-.7,3.1-1.3,4.6-1.9v13.2c1.1-.5,2.2-.9,3.3-1.3Zm66.1-20c4.4-1,9-1.8,13.4-2.7v4.8c-1.5.3-2.9.6-4.3.8v26.4c-1.6.3-3.3.7-4.9,1V468.2c-1.5.3-2.8.6-4.3.9C419.95,467.6,419.95,466,419.95,464.3Zm50.4-7.9v31.3c-1.6.2-3.3.3-4.9.5v-5.5c-1.2-3.3-2.3-6.5-3.5-9.8v15.7l-4.9.6V457.9l4.8-.6c1.2,3.4,2.3,6.7,3.6,10.1V457Zm-55.2,11.9V472c-1.6.4-3.3.8-4.8,1.2v-1.7c-1.3.3-2.4.6-3.7.9v6.5l7.1,3.4c1.2.6,1.5,1.5,1.5,2.9v8.7a4.07,4.07,0,0,1-2.9,3.6c-2.5.6-5,1.3-7.5,1.8a2.2,2.2,0,0,1-2.9-2.2v-3.7c1.6-.4,3.2-.9,4.8-1.3v1.7c1.3-.3,2.4-.6,3.7-.9v-6.5c-2.3-1.2-4.6-2.2-7-3.3-1.2-.5-1.5-1.5-1.5-2.9v-8.7a4.2,4.2,0,0,1,2.9-3.7q3.75-1,7.5-1.8A2.31,2.31,0,0,1,415.15,468.3Zm169.3-7.8c-2.5-.4-5.1-.9-7.6-1.3a2.51,2.51,0,0,0-3,2.5v25.4a3.71,3.71,0,0,0,3,3.4c2.5.4,5.1.8,7.6,1.3a2.45,2.45,0,0,0,3-2.4V464A3.63,3.63,0,0,0,584.45,460.5Zm-1.9,26.1-3.8-.6V464.4l3.8.6Zm65.9-10.3c4.4,1.5,8.7,3,13.1,4.5v4.8l-4.2-1.5v26.4c-1.5-.6-3.2-1.1-4.7-1.6V482.5c-1.4-.5-2.8-1-4.2-1.4C648.45,479.5,648.45,478,648.45,476.3Zm25.4,15.9v-1.7l-3.6-1.5v6.5c2.2,2.6,4.5,5.1,6.8,7.7a5.66,5.66,0,0,1,1.5,3.9v8.7a1.82,1.82,0,0,1-2.8,1.7c-2.4-1-4.8-1.9-7.3-2.9a4.77,4.77,0,0,1-2.8-4.1v-3.7c1.5.6,3.2,1.2,4.7,1.8v1.7l3.6,1.5v-6.5c-2.2-2.6-4.5-5.1-6.8-7.7a5.66,5.66,0,0,1-1.5-3.9V485a1.89,1.89,0,0,1,2.8-1.8c2.4,1,4.8,1.9,7.3,2.9a5,5,0,0,1,2.8,4.1v3.7C677,493.4,675.55,492.8,673.85,492.2Zm-48-22.6c-1.6,4.7-3.4,9.6-5,14.3,1.6,5.6,3.4,11.3,5,17-1.7-.5-3.4-.9-5.1-1.4-1.4-4.5-2.7-9-4-13.4v12.5l-4.8-1.2V466.1c1.6.4,3.3.8,4.8,1.2v12.5c1.4-3.9,2.7-7.6,4-11.4A29.11,29.11,0,0,1,625.85,469.6Zm-19.4-2v3.8c-1.6-.4-3.3-.7-4.8-1.1v-1.8c-1.3-.3-2.5-.5-3.7-.8v21.6c1.3.3,2.5.5,3.7.8v-1.6c1.6.4,3.3.7,4.8,1.1v3.6a2.34,2.34,0,0,1-2.9,2.3c-2.5-.6-5-1.1-7.6-1.5a3.82,3.82,0,0,1-3-3.5V465.1a2.34,2.34,0,0,1,3-2.3c2.5.5,5,1.1,7.6,1.5A3.52,3.52,0,0,1,606.45,467.6Zm-38.6,5.5V460.9a3.52,3.52,0,0,0-3-3.3l-10.6-1.2h0v31.3c1.6.2,3.3.3,4.9.5V475a15,15,0,0,0,2,.2c.7,4.4,1.5,9,2.1,13.4l5,.6c-.8-4.5-1.5-9.2-2.2-13.7A2.3,2.3,0,0,0,567.85,473.1Zm-4.9-2.5c-1.3-.2-2.5-.3-3.8-.4v-8.3c1.3.1,2.5.3,3.8.4Zm68.3.4c4.4,1.3,8.7,2.6,13.1,4v4.8c-2.7-.9-5.5-1.7-8.3-2.5v8.3c2,.6,4.1,1.3,6.2,1.8v4.8a63.21,63.21,0,0,0-6.2-1.8v8.3c2.8.8,5.5,1.6,8.3,2.5V506c-4.4-1.4-8.7-2.7-13.1-4Z" transform="translate(-322.95 -369.6)" style="fill:#fff"/></svg>