<svg xmlns="http://www.w3.org/2000/svg" viewBox="0 0 252.5 252.5"><title>Washington Wizards logo</title><path d="M512,385.75A126.25,126.25,0,1,0,638.25,512,126.19,126.19,0,0,0,512,385.75" transform="translate(-385.75 -385.75)" style="fill:#8b8d8d"/><path d="M633.54,511.49c0-65.31-55.89-121.54-121.2-121.54s-122,56.56-122,121.87c0,60,47.64,113,106,121.2a125.6,125.6,0,0,0,15,.93h.17a121.69,121.69,0,0,0,32-4.29C594.57,615.1,633.54,566.12,633.54,511.49Z" transform="translate(-385.75 -385.75)" style="fill:#cf0a2c"/><path d="M633.45,505.69H390.63c-.08,2-.17,4.21-.17,6.23a117.48,117.48,0,0,0,4.63,32.24H628.91a116.57,116.57,0,0,0,4.63-32.49C633.54,509.64,633.54,507.62,633.45,505.69Z" transform="translate(-385.75 -385.75)" style="fill:#fff"/><path d="M496.43,633a125.6,125.6,0,0,0,15,.93h.17a121.69,121.69,0,0,0,32-4.29c31.9-9.17,59.08-31.81,75.08-60.85H405.36C424,602.56,457.88,627.56,496.43,633Z" transform="translate(-385.75 -385.75)" style="fill:#0d2240"/><path d="M511.41,417.14s-.93-17.09-.93-17.93a2.6,2.6,0,0,1,.84-1.6c-.67,0-3,.17-5.47.25-.67.17-1.77.17-1.52,2.69l1,18.94,6.06-.34.51-.17a10.4,10.4,0,0,1-.5-1.85" transform="translate(-385.75 -385.75)" style="fill:#fff"/><path d="M572.77,420.51l2.19-3.87-9-5.22-.08-.08-5.13-2.95a1.07,1.07,0,0,0-1.43.42c-.17.34-2,3.53-2,3.53h0l-.76,1.43a2.46,2.46,0,0,1,2.69-.42l3.2,1.85-8.25,14.31,5.72,3.28a4.23,4.23,0,0,1,.59-1.94s4.46-7.83,7.15-12.37l2.44,1.43c1.43.76,1.35,3.11,1.35,3.11Z" transform="translate(-385.75 -385.75)" style="fill:#fff"/><path d="M555.18,406,546.85,403c-2.69-.93-4.63-1.18-5.72-.76s-2.1,1.85-2.95,4.21l-3.11,8.92a7.44,7.44,0,0,0-.67,2.61,3.61,3.61,0,0,0,.93,3.2,12.52,12.52,0,0,0,4.46,2.27l3.79,1.35c2.78.93,4.63,1.18,5.81.76s2.1-1.85,2.95-4.21c0,0,1.52-4.21,1.68-4.8a1.56,1.56,0,0,0-1-2l-7.07-2.44c-.84-.34-1.35.34-1.68.84a34.92,34.92,0,0,0-1.35,3.53l-.42.93a2,2,0,0,1,1.94-.42l2.61.93c-.42.93-.84,1.52-1.26,1.68a4.54,4.54,0,0,1-2.61-.5,9.62,9.62,0,0,1-1.18-.5,1.36,1.36,0,0,1-.76-1.6,9.11,9.11,0,0,1,.42-1.6l1.77-4.88c.51-1.35.93-2,1.43-2.19a4.71,4.71,0,0,1,2.69.5L554,411a2.64,2.64,0,0,1,1.43,1.94l.51-1.26,1.18-3.28a2.62,2.62,0,0,0-1.94-2.44" transform="translate(-385.75 -385.75)" style="fill:#fff"/><path d="M490.87,399.81s1.85.67,2.27,2.1V402l1.09,5.39-4.29.84a2,2,0,0,0-1.52,1.52l-1.85-9.09-7.32,1.52a3.48,3.48,0,0,1,1.85,2.19v.08L485,423l4.29-.84c.84-.17,1.43-.42,1.6-1l-1.6-7.41,5.89-1.26,1.68,8.16,4.29-.84c.84-.17,1.43-.42,1.6-1l-4.29-20.45Z" transform="translate(-385.75 -385.75)" style="fill:#fff"/><path d="M589.69,432.8a3.24,3.24,0,0,0,.08-3.37,13.64,13.64,0,0,0-3.37-3.53l-3.2-2.44c-2.27-1.77-4-2.61-5.22-2.61s-2.61,1-4.12,3l-5.72,7.41a17.57,17.57,0,0,0-1.51,2.27,3.3,3.3,0,0,0-.17,3.28,14.36,14.36,0,0,0,3.45,3.53l3.2,2.44c2.27,1.85,4,2.69,5.22,2.61s2.61-1,4.12-3l5.81-7.41a8.71,8.71,0,0,0,1.43-2.19m-7.58.17-3.2,4.12c-.84,1.09-1.6,1.68-2.1,1.68a5.15,5.15,0,0,1-2.27-1.26l.51.42a15.06,15.06,0,0,1-1.43-1.26,1.54,1.54,0,0,1-.25-1.85,13.35,13.35,0,0,1,.93-1.35l3.2-4.12c.84-1.09,1.6-1.68,2-1.68a5.93,5.93,0,0,1,2.44,1.35l-.51-.34a15.06,15.06,0,0,1,1.43,1.26,1.54,1.54,0,0,1,.25,1.85,10.08,10.08,0,0,0-1,1.18" transform="translate(-385.75 -385.75)" style="fill:#fff"/><path d="M480.94,415c-1.43-2.69-4.29-3.53-7.24-2.36l-3.28,1.43q-1.77.76-2.53-.25l-.17-.34c-.17-.5-.59-1.35,1.26-2.1l6-2.53c1.26-.59,3.2.67,3.2.67s-1.18-2.86-1.85-4.55a2.3,2.3,0,0,0-2.78-1.26l-7.32,3.11c-2.69,1.09-4.29,2.19-4.8,3.2s-.34,2.78.67,5.13l.84,1.94a7.4,7.4,0,0,0,.51.84,4.65,4.65,0,0,0,2.86,1.94,7.18,7.18,0,0,0,5-.67l2.86-1.18c1.09-.5,1.94-.34,2.36.42.17.17.17.42.25.67,0,0,.34,1-1.94,1.94l-5.72,2.36c-1.26.5-3.2-.76-3.2-.76s1.18,2.86,1.94,4.55a2.17,2.17,0,0,0,2.78,1.18l.59-.25,4-1.68,2.86-1.18c2.69-1.09,4.29-2.19,4.8-3.2s.34-2.69-.67-5c-.17.08-1-1.68-1.18-2.1" transform="translate(-385.75 -385.75)" style="fill:#fff"/><path d="M603.49,444.83l-1-1.26s.34,1.94-.84,2.86h0l-6.4,5,4.12-11.28a.77.77,0,0,0-.17-.84c-.51-.67-3.2-4.12-3.2-4.12l-1.09-1.43s.34,2-.84,2.95l-15,11.7,2.69,3.45c.59.67.93,1.09,1.68.93l8-6.23-3.79,9.85c-.67,1.6-1.77.67-1.77.67l.76,1h0l2.69,3.37c.59.67.93,1.09,1.6.93l16.41-12.88Z" transform="translate(-385.75 -385.75)" style="fill:#fff"/><path d="M528.5,399l-1.68-.17a3.24,3.24,0,0,1,1.35,2.61v-.08l-.93,8.08-5.13-10.86a1.31,1.31,0,0,0-.67-.5l-5.13-.59-1.85-.17s1.68,1.18,1.52,2.69l-2.1,18.85,4.38.5c.84.08,1.52.08,1.85-.5,0,0,.59-4.71,1.09-10.1l4.38,9.6c.67,1.6-.76,1.68-.76,1.68l1.26.17h0l4.38.5c.84.08,1.52.08,1.85-.5l2.27-20.79Z" transform="translate(-385.75 -385.75)" style="fill:#fff"/><path d="M437.68,423.29,437,424l-3.37,3.87-.08.08c-.5.59-.76.93-.67,1.43l8.58,13.3-12.12-6.57a1.64,1.64,0,0,1-.84-2.27l-1.18,1.35-2.53,2.86-.08.08a2.09,2.09,0,0,0-.67,2.19l8.67,12.2-12.2-6.23c-1.6-.76-.84-2.61-.84-2.61l-1.26,1.43-2.86,3.2-.08.08a1.72,1.72,0,0,0-.17,2.36c.08.08,0,.08,0,.08l18.94,8.84,4.46-5.05c.67-.67.76-1,.5-1.77l-3.53-6.65,7.32,3.62,4.71-5.39a2.3,2.3,0,0,0,.42-2.27l-10-16.83a2.52,2.52,0,0,1-.42-2.1" transform="translate(-385.75 -385.75)" style="fill:#fff"/><path d="M448.12,417.14l-3.62,2.52a1.83,1.83,0,0,0-.93,1.77l6.06,18.43c.42,1.18-1,3.2-1,3.2l6.31-4.46a1.56,1.56,0,0,0,.51-1.77l-.84-2.61,4.8-3.37,1.85,1.18a1.4,1.4,0,0,1,.34,1.94l7-4.88Zm4.46,12.2-1.18-3.2,2.95,1.94Z" transform="translate(-385.75 -385.75)" style="fill:#fff"/><polygon points="27.52 81.56 30.38 90.31 39.64 90.31 32.15 95.78 35.01 104.53 27.52 99.15 20.12 104.53 22.98 95.78 15.49 90.31 24.66 90.31 27.52 81.56" style="fill:#fff"/><polygon points="224.98 82.74 222.12 91.57 212.86 91.57 220.35 96.96 217.49 105.71 224.98 100.33 232.38 105.71 229.52 96.96 237.01 91.57 227.84 91.57 224.98 82.74" style="fill:#fff"/><path d="M512.67,604.33h-4.46a2.07,2.07,0,0,0-1.85.84l-5.64,18.6c-.34,1.18-2.69,2-2.69,2h7.74a1.63,1.63,0,0,0,1.43-1.09L508,622h5.81l.84,2a1.36,1.36,0,0,1-.84,1.77h8.42ZM509.56,617l.93-3.2,1.18,3.2Z" transform="translate(-385.75 -385.75)" style="fill:#fff"/><path d="M543.39,620.15,538.77,615a3.89,3.89,0,0,0,2.27-1.35c.59-.84.59-2.52.08-5,0,0-.84-4.29-1-5a3.24,3.24,0,0,0-1.85-2.36,6.38,6.38,0,0,0-3.62,0l-15.23,2.86s1.85.67,2.27,2.1L525,625l4.29-.76c.84-.17,1.43-.34,1.6-.93L529.76,617l3-.67,5.13,6.23,7.57-1.43c0,.17-1.35-.17-2.1-.93m-8.25-12.46a6.06,6.06,0,0,1,.25,2.44,1,1,0,0,1-.84.67l-3.53.67a3.34,3.34,0,0,0-1.94,1.94L528,608l5.72-1.09a1.15,1.15,0,0,1,1.43.84" transform="translate(-385.75 -385.75)" style="fill:#fff"/><path d="M560.56,594.57a3.43,3.43,0,0,0-2.27-1.94,7.51,7.51,0,0,0-3.53.76l-14.39,6.23a4.69,4.69,0,0,1,2.69,1.68l6.65,15.4a3.1,3.1,0,0,1-.34,2.52l14-6c1.94-.76,3-1.77,3.28-2.69s0-2.61-1-4.88l-4.21-9.09a13.32,13.32,0,0,0-.84-2m-4,5c.25.42,3.79,8.33,3.79,8.75a1.14,1.14,0,0,1-.59.93l-5.56,2.36-3.2-7.41c-.25-.51-.67-1.6-1.26-2.95l5.39-2.36c.51-.25,1,0,1.43.67" transform="translate(-385.75 -385.75)" style="fill:#fff"/><path d="M500.64,608.62l.84-4.12S485.57,601,485.32,601c-1.35-.17-1.85.67-2.1,1.77l-.67,2.86h0l-.34,1.18a3.89,3.89,0,0,1,2.44-.67l7.32,1.68-12.2,10.27-.67,3.45,16,3.54c1,.25,1.77.25,2.1-.76l1.18-5.3a3.23,3.23,0,0,1-2.53.93l-7.74-1.77Z" transform="translate(-385.75 -385.75)" style="fill:#fff"/><path d="M474.63,618s5.64-16.24,5.89-17a3.09,3.09,0,0,1,1.43-1.09c-.59-.25-2.86-.93-5.13-1.85-.67-.08-1.68-.51-2.36,1.94l-6.23,17.93,5.72,1.94.51.08c-.08.08-.17-.76.17-1.94" transform="translate(-385.75 -385.75)" style="fill:#fff"/><path d="M473.54,597.51l-.84-.51-4.38-2.78h-.08c-.59-.42-1.09-.67-1.6-.51L457.12,603l3.45-11.19c.25-1.09,1.94-1.09,1.94-1.09l-1.6-.93-3.2-2h-.08a2.08,2.08,0,0,0-2.27-.25l-9.76,9.09,4.29-10.86a2,2,0,0,1,2.36-1.26l-1.68-1-3.62-2.27h-.08c-.84-.59-1.94-.59-2.36.17l-.08.08-6.73,19.44,5.72,3.54c.76.51,1.18.67,1.85.25l6-4.54L448.88,608l6.06,3.79a2.36,2.36,0,0,0,2.36.08l14.06-13.21a3.05,3.05,0,0,1,2.19-1.09" transform="translate(-385.75 -385.75)" style="fill:#fff"/><path d="M582.87,589.85a5.41,5.41,0,0,0-7.58-.76l-3,2q-1.64,1-2.52.25s-.25-.25-.25-.34c-.25-.51-.76-1.18.76-2.27l5.39-3.7c1.18-.76,3.28.08,3.28.08s-1.77-2.52-2.86-4a2.34,2.34,0,0,0-3-.59L566.46,585c-2.36,1.68-3.7,3-4,4.21s.25,2.78,1.68,4.88l1.26,1.77a4.81,4.81,0,0,0,.59.67,5.26,5.26,0,0,0,3.2,1.35,7.37,7.37,0,0,0,4.71-1.68l2.52-1.77a1.81,1.81,0,0,1,2.36-.17,1.36,1.36,0,0,1,.34.59s.59.93-1.51,2.27l-5.13,3.54c-1.18.67-3.2-.08-3.2-.08s1.77,2.52,2.86,4a2.32,2.32,0,0,0,3,.59l.51-.34,3.54-2.44,2.52-1.77c2.36-1.68,3.7-3,4-4.21s-.25-2.69-1.68-4.71c.25.17-.84-1.35-1.18-1.85" transform="translate(-385.75 -385.75)" style="fill:#fff"/><path d="M586.49,471.68A84.12,84.12,0,0,0,566,446.77c-1.6-1.26-3.2-2.52-4.8-3.7a84.69,84.69,0,0,0-48.9-15.74h-.17a84.76,84.76,0,0,0-84.59,80.13c-.08,1.43-.08,2.95-.17,4.38V512A83.88,83.88,0,0,0,434,544.91c.59,1.26,1.09,2.52,1.68,3.79A84,84,0,0,0,455,574.62c1.94,1.85,4.12,3.54,6.23,5.22a84.6,84.6,0,0,0,50.58,16.92H512a84.57,84.57,0,0,0,84.67-84.59v-.08h0V512A83.88,83.88,0,0,0,590,479.09c-1.09-2.52-2.27-5-3.54-7.41" transform="translate(-385.75 -385.75)" style="fill:#8b8d8d"/><path d="M587.92,479.93a70,70,0,0,0-3.45-7.15,83.54,83.54,0,0,0-20-24.32c-1.51-1.26-3.11-2.44-4.71-3.62a82.57,82.57,0,0,0-47.55-15.32H512a82.47,82.47,0,0,0-82.32,78c-.08,1.43-.08,2.86-.08,4.29V512a81.74,81.74,0,0,0,6.48,32.07c.59,1.26,1.09,2.44,1.68,3.62a82,82,0,0,0,18.85,25.25,68.79,68.79,0,0,0,6.06,5.05,82,82,0,0,0,49.24,16.41h.17a83.39,83.39,0,0,0,28.36-5,82.33,82.33,0,0,0,54-77.35V512h0v-.08A83.23,83.23,0,0,0,587.92,479.93Z" transform="translate(-385.75 -385.75)" style="fill:#fff"/><path d="M496.6,474.21l1.94-7,.51-1.68-8.75-4.88s-5.13-3.53-16.58,3.11c-13.38,7.91-24.32,18.18-29.88,29a66.43,66.43,0,0,0-6.9,20.79,75.13,75.13,0,0,0,13,40.15c-2.19-21.46,18.43-44.86,34.76-60.94a57.67,57.67,0,0,0,12-18.52" transform="translate(-385.75 -385.75)" style="fill:#0d2240"/><path d="M550.46,463.86c-11.45-6.65-16.58-3.11-16.58-3.11l-8.75,4.88.51,1.68,1.85,7a56.51,56.51,0,0,0,12.12,18.52c16.16,16,36.78,39.39,34.76,60.77a74.56,74.56,0,0,0,12.79-40.65,67.41,67.41,0,0,0-6.82-20.12c-5.64-10.86-16.5-21-29.88-29" transform="translate(-385.75 -385.75)" style="fill:#0d2240"/><path d="M522.94,451c30,3.37,49.83,20.45,60,35.6a75.22,75.22,0,0,0-47.13-46.38c-4.88,1.43-10.27,4.38-12.88,10.77" transform="translate(-385.75 -385.75)" style="fill:#cf0a2c"/><path d="M501.23,451c-2.69-6.4-8.16-9.43-13-10.77A75.14,75.14,0,0,0,441,487c10-15.32,30-32.57,60.26-36" transform="translate(-385.75 -385.75)" style="fill:#cf0a2c"/><path d="M506.11,450.14l6-8.75,6,8.75C520.42,443.57,524.2,440,528,438a76.13,76.13,0,0,0-15.91-1.77,77.57,77.57,0,0,0-16,1.77c3.79,1.94,7.57,5.55,10,12.12" transform="translate(-385.75 -385.75)" style="fill:#cf0a2c"/><path d="M512.08,475.64c-.84.67-28.62,20.62-40.91,40.4-16.5,26.68-14.39,42.08-10.1,50.92a75.08,75.08,0,0,0,39,18.85l6.4-91.24,5.39-5.39.08-.08h0l.08.08,5.39,5.39,6.48,91.15-.08.08a74.89,74.89,0,0,0,39.31-19.11c4.21-8.84,6.23-24.16-10.18-50.67-12.29-19.78-40-39.81-40.82-40.4" transform="translate(-385.75 -385.75)" style="fill:#0d2240"/><polygon points="131.72 108.91 126.33 103.53 126.33 206.63 138.12 200.06 138.12 200.06 138.2 199.98 131.72 108.91" style="fill:#8b8d8d"/><path d="M528.08,456.28a76.71,76.71,0,0,0-9.85-1.18l-2.36-.17-.08-.08-.08-.08-.93-1.94-.08-.17h0L512,447.19l-.84,1.85-1.77,3.53h0l-.08.17-.08.17-.93,1.94-.08.17h0l-2.36.17c-3.28.25-6.65.67-9.85,1.18l-4.38.76h0l4.54,2.44,4.54,2.53,1.43.76,1.43.76-.84,3.2-.08.17-.42,1.43-2.61,9.34h0l5.81-4.38,4-2.95,1.18-.84,1.18-.84h0v-.08h0v.08h0l1.18.84,1.18.84,10,7.24-2.61-9.34-.25-.76-.25-.76-.84-3.2.93-.51,1.85-1,6.23-3.37,3-1.6h0c-1.18-.34-2.69-.5-4.12-.84" transform="translate(-385.75 -385.75)" style="fill:#8b8d8d"/></svg>